<svg xmlns="http://www.w3.org/2000/svg" viewBox="0 0 1633 2261"><defs><style>.cls-1{fill:#845123;}.cls-2{fill:#a56734;}.cls-3{fill:#4f4443;}.cls-4{fill:#282222;}</style></defs><title>barrel_smadret</title><g id="animation_2"><line class="cls-1" x1="457.57" y1="68.81" x2="635.29" y2="130.29"/><polyline class="cls-1" points="1632.47 475.24 1578.9 630.1 404 223.67 457.57 68.81"/><line class="cls-1" x1="635.29" y1="130.29" x2="1632.48" y2="475.24"/><polyline class="cls-2" points="1394.18 1392.03 1369.49 2023.68 1234.23 2018.4 1259.26 1377.81"/><polyline class="cls-2" points="1578 653.57 1371.34 1250.97 1243.42 1206.72 1453 600.86"/><polyline class="cls-1" points="1370.01 2203.3 127.73 2154.76 134.13 1991.02 1376.4 2039.56 1370.01 2203.3"/><rect class="cls-1" x="1100.4" y="1368.86" width="135.36" height="644.42" transform="translate(66.92 -44.32) rotate(2.24)"/><rect class="cls-1" x="1201.28" y="555.05" width="135.36" height="644.42" transform="translate(356.52 -366.65) rotate(19.08)"/><rect class="cls-1" x="792.98" y="1353" width="135.36" height="651.71" transform="translate(66.21 -32.32) rotate(2.24)"/><rect class="cls-1" x="905.26" y="450.92" width="135.36" height="641.46" transform="translate(305.73 -275.67) rotate(19.08)"/><rect class="cls-2" x="950.14" y="1359.76" width="135.36" height="650.74" transform="translate(66.57 -38.46) rotate(2.24)"/><rect class="cls-2" x="1051.04" y="503.43" width="135.36" height="637.62" transform="translate(330.28 -320.55) rotate(19.08)"/><rect class="cls-2" x="637.98" y="1344.37" width="135.36" height="655.85" transform="translate(65.83 -26.28) rotate(2.24)"/><rect class="cls-2" x="756.98" y="397.85" width="135.36" height="638.45" transform="translate(279.74 -230.2) rotate(19.08)"/><polyline class="cls-1" points="601.44 1645.33 588.03 1988.46 452.77 1983.18 477.89 1340.25 613.15 1345.53 601.44 1645.33"/><polyline class="cls-1" points="742.17 669.33 629.1 996.21 501.17 951.96 713.04 339.5 840.96 383.75 742.17 669.33"/><polyline class="cls-2" points="437.21 1636.66 423.51 1987.3 288.25 1982.02 313.63 1332.52 448.89 1337.8 437.21 1636.66"/><polyline class="cls-2" points="583.36 607.09 469.98 934.83 342.06 890.57 552.06 283.5 679.99 327.75 583.36 607.09"/><polyline class="cls-1" points="295.72 1322.58 270.37 1971.39 135.11 1966.11 160.38 1319.36"/><polyline class="cls-1" points="528.8 274.8 319.03 881.19 191.1 836.93 400.2 232.47"/><rect class="cls-3" x="297.27" y="549.48" width="1275.28" height="92.62" transform="translate(246.15 -272.9) rotate(19.08)"/><polygon class="cls-2" points="1163.57 697.51 1177.04 702.17 1177.04 702.17 1163.57 697.51 1163.57 697.51"/><rect class="cls-3" x="125.81" y="1805.31" width="1275.28" height="92.62" transform="translate(72.88 -28.4) rotate(2.24)"/><circle class="cls-4" cx="484.96" cy="436.37" r="24.94"/><circle class="cls-4" cx="635.29" cy="492.14" r="24.94"/><circle class="cls-4" cx="793.51" cy="546.88" r="24.94"/><circle class="cls-4" cx="941.64" cy="598.12" r="24.94"/><circle class="cls-4" cx="1094.3" cy="647.16" r="24.94"/><circle class="cls-4" cx="1240.22" cy="693.87" r="24.94"/><circle class="cls-4" cx="1237.89" cy="700.6" r="24.94"/><circle class="cls-4" cx="1386.02" cy="751.84" r="24.94"/><circle class="cls-4" cx="1240.42" cy="1870.26" r="24.94"/><circle class="cls-4" cx="1088.32" cy="1863.99" r="24.94"/><circle class="cls-4" cx="930.74" cy="1858.16" r="24.94"/><circle class="cls-4" cx="787.72" cy="1843.92" r="24.94"/><circle class="cls-4" cx="613.95" cy="1845.78" r="24.94"/><circle class="cls-4" cx="446.65" cy="1839.24" r="24.94"/><circle class="cls-4" cx="272.58" cy="1831.97" r="24.94"/></g></svg>
