<svg xmlns="http://www.w3.org/2000/svg" viewBox="0 0 1809 1711"><defs><style>.cls-1{fill:#845123;}.cls-2{fill:#a56734;}.cls-3{fill:#4f4443;}.cls-4{fill:#282222;}</style></defs><title>barrell</title><g id="animation_2"><rect class="cls-1" x="265.97" y="25" width="1243.22" height="163.86"/><rect class="cls-2" x="1373.82" y="210.24" width="135.36" height="1289.53"/><rect class="cls-1" x="265.97" y="1521.14" width="1243.22" height="163.86"/><rect class="cls-1" x="1220.65" y="210.24" width="135.36" height="1289.53"/><rect class="cls-1" x="910.73" y="210.24" width="135.36" height="1289.53"/><rect class="cls-2" x="1063.91" y="210.24" width="135.36" height="1289.53"/><rect class="cls-2" x="754" y="210.24" width="135.36" height="1289.53"/><rect class="cls-1" x="590.13" y="210.24" width="135.36" height="1289.53"/><rect class="cls-2" x="422.71" y="210.24" width="135.36" height="1289.53"/><rect class="cls-1" x="265.97" y="206.67" width="135.36" height="1289.53"/><rect class="cls-3" x="251.72" y="320.67" width="1275.28" height="92.62"/><rect class="cls-3" x="251.72" y="1310.97" width="1275.28" height="92.62"/><circle class="cls-4" cx="412.02" cy="363.41" r="24.94"/><circle class="cls-4" cx="572.32" cy="366.97" r="24.94"/><circle class="cls-4" cx="739.75" cy="366.97" r="24.94"/><circle class="cls-4" cx="896.48" cy="366.97" r="24.94"/><circle class="cls-4" cx="1056.79" cy="363.41" r="24.94"/><circle class="cls-4" cx="1209.96" cy="359.85" r="24.94"/><circle class="cls-4" cx="1209.96" cy="366.97" r="24.94"/><circle class="cls-4" cx="1366.7" cy="366.97" r="24.94"/><circle class="cls-4" cx="1366.7" cy="1357.27" r="24.94"/><circle class="cls-4" cx="1213.52" cy="1357.27" r="24.94"/><circle class="cls-4" cx="1056.79" cy="1357.27" r="24.94"/><circle class="cls-4" cx="903.61" cy="1357.27" r="24.94"/><circle class="cls-4" cx="739.75" cy="1357.27" r="24.94"/><circle class="cls-4" cx="572.32" cy="1357.27" r="24.94"/><circle class="cls-4" cx="415.58" cy="1357.27" r="24.94"/><circle class="cls-4" cx="412.02" cy="1357.27" r="24.94"/></g></svg>
