<svg xmlns="http://www.w3.org/2000/svg" viewBox="0 0 1809 2051"><defs><style>.cls-1{fill:#720d0d;}.cls-2{fill:#cc8671;}.cls-3{fill:#f9f9f9;}.cls-4{fill:none;}.cls-5{fill:#fff;}.cls-6{fill:#514848;}</style></defs><title>ninja_løber</title><g id="animation_1"><path d="M672.89,735c0-104.39,84.62-189,189-189s189,84.62,189,189"/><rect x="672.89" y="735.01" width="378.02" height="163.41"/><rect x="672.89" y="735.01" width="378.02" height="163.41"/><rect class="cls-1" x="672.89" y="735.01" width="378.02" height="33.47"/><rect class="cls-2" x="672.89" y="778.32" width="98.44" height="63"/><circle cx="704.39" cy="809.83" r="17.72"/><circle class="cls-3" cx="708.82" cy="800.33" r="3.16"/><circle class="cls-3" cx="716.41" cy="806.66" r="3.16"/><polygon points="966.25 1498.92 763.45 1498.92 672.89 898.42 1050.91 898.42 966.25 1498.92"/><rect x="415.07" y="1049.25" width="324.85" height="48.72" transform="translate(-285.89 212.97) rotate(-16.82)"/><rect x="202.43" y="972.46" width="324.85" height="48.72" rx="5.36" transform="translate(1144.8 276.78) rotate(67.39)"/><circle cx="419.89" cy="1121.89" r="24.61"/><rect x="986.23" y="1048.94" width="324.85" height="48.72" transform="translate(2289.79 2154.59) rotate(-179.6)"/><rect class="cls-4" x="1304.68" y="1047.15" width="48.72" height="324.85" rx="10.55" transform="translate(-107.81 130.28) rotate(-5.39)"/><circle cx="1313.49" cy="1073.82" r="24.61"/><polygon points="1360.85 817.7 971.53 1018.93 1033.69 1070.78 1423.02 869.56 1360.85 817.7"/><ellipse cx="1174.73" cy="965.09" rx="12.14" ry="88.66" transform="translate(-325.16 716.66) rotate(-30)"/><polygon class="cls-5" points="1226.69 950.75 1193.08 948.09 1197.13 926.02 1230.74 928.68 1226.69 950.75"/><polygon class="cls-5" points="1288.4 913.77 1254.79 911.11 1258.84 889.04 1292.45 891.7 1288.4 913.77"/><polygon class="cls-5" points="1353.42 883.6 1319.81 880.94 1323.87 858.87 1357.48 861.53 1353.42 883.6"/><polygon class="cls-6" points="706.75 1124.78 703.01 1094.37 798.7 900.48 816.06 900.64 706.75 1124.78"/><rect x="55.69" y="1704.16" width="546.49" height="85.18" transform="translate(2075.69 1417.82) rotate(90)"/><rect x="284.69" y="1419.61" width="563.01" height="84.43" rx="5.36" transform="translate(1155.08 2914.65) rotate(179.11)"/><circle cx="329.53" cy="1470.22" r="42.65"/><rect x="1160.21" y="1701.78" width="546.49" height="85.18" transform="translate(-673.65 933.37) rotate(-29.54)"/><rect x="787.08" y="1636.2" width="563.01" height="84.43" rx="5.36" transform="translate(1974.61 -93.05) rotate(59.57)"/><circle cx="1192.57" cy="1880.18" r="42.65"/><rect class="cls-1" x="672.89" y="735.01" width="378.02" height="33.47"/><rect class="cls-2" x="672.89" y="778.32" width="98.44" height="63"/><circle cx="704.39" cy="809.83" r="17.72"/><circle class="cls-3" cx="708.82" cy="800.33" r="3.16"/><circle class="cls-3" cx="716.41" cy="806.66" r="3.16"/><rect x="1205.43" y="1185.46" width="324.85" height="48.72" rx="5.36" transform="translate(1958.83 -518.02) rotate(67.39)"/></g></svg>
