<svg xmlns="http://www.w3.org/2000/svg" xmlns:xlink="http://www.w3.org/1999/xlink" viewBox="0 0 3658 2584"><defs><style>.cls-1{fill:#606060;}.cls-2{fill:#282222;}.cls-3{fill:#f15a24;}.cls-4{fill:url(#linear-gradient);}.cls-5{fill:url(#linear-gradient-2);}.cls-6{fill:#dbd2d2;}.cls-7{fill:none;}.cls-8{fill:#383838;}.cls-9{fill:#565656;}</style><linearGradient id="linear-gradient" x1="-827" y1="6460" x2="415.42" y2="6460" gradientTransform="translate(8291 2163) rotate(90)" gradientUnits="userSpaceOnUse"><stop offset="0" stop-color="blue" stop-opacity="0.6"/><stop offset="0.13" stop-color="#33f" stop-opacity="0.68"/><stop offset="0.31" stop-color="#7171ff" stop-opacity="0.78"/><stop offset="0.48" stop-color="#a3a3ff" stop-opacity="0.86"/><stop offset="0.64" stop-color="#cbcbff" stop-opacity="0.92"/><stop offset="0.78" stop-color="#e8e8ff" stop-opacity="0.96"/><stop offset="0.91" stop-color="#f9f9ff" stop-opacity="0.99"/><stop offset="1" stop-color="#fff"/></linearGradient><linearGradient id="linear-gradient-2" x1="7163" y1="3334" x2="8499" y2="3334" gradientTransform="translate(5165 -7163) rotate(90)" gradientUnits="userSpaceOnUse"><stop offset="0" stop-color="blue" stop-opacity="0.6"/><stop offset="0.05" stop-color="#0000c5" stop-opacity="0.69"/><stop offset="0.11" stop-color="#000090" stop-opacity="0.77"/><stop offset="0.17" stop-color="#000063" stop-opacity="0.84"/><stop offset="0.25" stop-color="#00003e" stop-opacity="0.9"/><stop offset="0.33" stop-color="#002" stop-opacity="0.95"/><stop offset="0.44" stop-color="#00000e" stop-opacity="0.98"/><stop offset="0.59" stop-color="#000003"/><stop offset="1"/></linearGradient></defs><title>real_background-soejle</title><g id="stor-left"><rect class="cls-1" x="-4" width="415" height="2584"/><rect class="cls-2" x="52.2" y="2236.59" width="304.86" height="303.98"/><rect class="cls-3" x="49.94" y="1849.83" width="304.86" height="303.98"/><rect class="cls-2" x="49.94" y="1463.06" width="304.86" height="303.98"/><rect class="cls-3" x="49.94" y="1076.3" width="304.86" height="303.98"/><rect class="cls-2" x="49.94" y="689.53" width="304.86" height="303.98"/><rect class="cls-3" x="52.2" y="310.91" width="304.86" height="303.98"/><rect class="cls-2" x="52.2" width="304.86" height="247.13"/></g><g id="background"><rect class="cls-4" x="411" y="1336" width="2840" height="1242.42"/><rect class="cls-5" x="411" width="2840" height="1336" transform="translate(3662 1336) rotate(180)"/><circle class="cls-6" cx="2935.02" cy="271.41" r="213.09"/><ellipse class="cls-6" cx="469.62" cy="104.25" rx="2.04" ry="1.36"/><ellipse class="cls-6" cx="495.45" cy="204.84" rx="2.04" ry="1.36"/><ellipse class="cls-6" cx="678.96" cy="94.73" rx="2.04" ry="1.36"/><ellipse class="cls-6" cx="702.07" cy="79.78" rx="2.04" ry="1.36" transform="translate(74.92 405.28) rotate(-33.91)"/><ellipse class="cls-6" cx="791.79" cy="208.92" rx="2.04" ry="1.36"/><ellipse class="cls-6" cx="731.98" cy="232.03" rx="2.04" ry="1.36"/><ellipse class="cls-6" cx="757.8" cy="237.47" rx="2.04" ry="1.36"/><ellipse class="cls-6" cx="757.8" cy="177.66" rx="2.04" ry="1.36"/><ellipse class="cls-6" cx="647.7" cy="74.34" rx="2.04" ry="1.36" transform="translate(68.7 374.02) rotate(-33.91)"/><ellipse class="cls-6" cx="802.66" cy="41.72" rx="2.04" ry="1.36" transform="translate(113.27 454.93) rotate(-33.91)"/><ellipse class="cls-6" cx="866.55" cy="22.69" rx="1.36" ry="2.04" transform="translate(524.8 819.33) rotate(-68.28)"/><ellipse class="cls-6" cx="831.21" cy="108.33" rx="1.36" ry="2.04" transform="translate(422.97 840.44) rotate(-68.28)"/><ellipse class="cls-6" cx="885.59" cy="89.3" rx="1.36" ry="2.04" transform="translate(474.91 878.97) rotate(-68.28)"/><ellipse class="cls-6" cx="847.52" cy="145.03" rx="1.36" ry="2.04" transform="translate(399.15 878.72) rotate(-68.28)"/><ellipse class="cls-6" cx="649.05" cy="131.44" rx="1.36" ry="2.04" transform="translate(286.76 685.77) rotate(-68.28)"/><ellipse class="cls-6" cx="1017.45" cy="165.42" rx="1.36" ry="2.04" transform="translate(487.25 1049.42) rotate(-68.28)"/><ellipse class="cls-6" cx="1035.12" cy="143.67" rx="1.36" ry="2.04" transform="translate(518.59 1052.13) rotate(-68.28)"/><ellipse class="cls-6" cx="1048.71" cy="121.92" rx="1.36" ry="2.04" transform="translate(547.35 1051.06) rotate(-68.28)"/><ellipse class="cls-6" cx="880.15" cy="203.48" rx="1.36" ry="2.04" transform="translate(365.4 945.85) rotate(-68.28)"/><ellipse class="cls-6" cx="896.46" cy="176.3" rx="1.36" ry="2.04" transform="translate(400.93 943.87) rotate(-68.28)"/><ellipse class="cls-6" cx="902.25" cy="162.35" rx="2.58" ry="3.6" transform="translate(417.54 940.47) rotate(-68.28)"/><ellipse class="cls-6" cx="812.18" cy="252.42" rx="1.36" ry="2.04" transform="translate(277.12 913.53) rotate(-68.28)"/><ellipse class="cls-6" cx="1051.43" cy="203.48" rx="1.36" ry="2.04" transform="translate(473.3 1104.97) rotate(-68.28)"/><ellipse class="cls-6" cx="1021.52" cy="132.8" rx="1.36" ry="2.04" transform="translate(520.13 1032.66) rotate(-68.28)"/><ellipse class="cls-6" cx="632.74" cy="117.84" rx="1.36" ry="2.04" transform="matrix(0.37, -0.93, 0.93, 0.37, 289.11, 662.06)"/><ellipse class="cls-6" cx="809.46" cy="111.05" rx="1.36" ry="2.04" transform="translate(406.75 821.95) rotate(-68.28)"/><ellipse class="cls-6" cx="950.84" cy="74.34" rx="1.36" ry="2.04" transform="translate(529.9 930.16) rotate(-68.28)"/><ellipse class="cls-6" cx="1025.6" cy="72.98" rx="1.36" ry="2.04" transform="translate(578.26 998.77) rotate(-68.28)"/><ellipse class="cls-6" cx="1067.74" cy="14.53" rx="1.36" ry="2.04" transform="translate(659.11 1001.09) rotate(-68.28)"/><ellipse class="cls-6" cx="1119.4" cy="92.02" rx="1.36" ry="2.04" transform="translate(619.67 1097.89) rotate(-68.28)"/><ellipse class="cls-6" cx="1203.68" cy="221.16" rx="1.36" ry="2.04" transform="translate(552.79 1257.54) rotate(-68.28)"/><ellipse class="cls-6" cx="1147.95" cy="211.64" rx="1.36" ry="2.04" transform="translate(526.52 1199.77) rotate(-68.28)"/><ellipse class="cls-6" cx="1243.1" cy="219.8" rx="1.36" ry="2.04" transform="translate(578.88 1293.31) rotate(-68.28)"/><ellipse class="cls-6" cx="1287.96" cy="214.36" rx="1.36" ry="2.04" transform="translate(612.19 1331.56) rotate(-68.28)"/><ellipse class="cls-6" cx="1321.95" cy="259.22" rx="1.36" ry="2.04" transform="translate(591.93 1391.39) rotate(-68.28)"/><ellipse class="cls-6" cx="1349.13" cy="233.39" rx="1.36" ry="2.04" transform="translate(633.05 1400.37) rotate(-68.28)"/><ellipse class="cls-6" cx="1309.71" cy="257.86" rx="1.36" ry="2.04" transform="translate(585.48 1379.16) rotate(-68.28)"/><ellipse class="cls-6" cx="1229.51" cy="270.09" rx="1.36" ry="2.04" transform="translate(523.59 1312.36) rotate(-68.28)"/><ellipse class="cls-6" cx="1175.13" cy="272.81" rx="1.36" ry="2.04" transform="translate(486.81 1263.56) rotate(-68.28)"/><ellipse class="cls-6" cx="1134.35" cy="155.91" rx="1.36" ry="2.04" transform="translate(569.73 1152.03) rotate(-68.28)"/><ellipse class="cls-6" cx="988.9" cy="126" rx="1.36" ry="2.04" transform="translate(505.89 998.06) rotate(-68.28)"/><ellipse class="cls-6" cx="635.46" cy="193.97" rx="1.36" ry="2.04" transform="matrix(0.37, -0.93, 0.93, 0.37, 220.1, 712.54)"/><ellipse class="cls-6" cx="613.71" cy="179.02" rx="1.36" ry="2.04" transform="matrix(0.37, -0.93, 0.93, 0.37, 220.29, 682.91)"/><ellipse class="cls-6" cx="597.4" cy="136.88" rx="1.36" ry="2.04" transform="matrix(0.37, -0.93, 0.93, 0.37, 249.17, 641.21)"/><ellipse class="cls-6" cx="553.9" cy="89.3" rx="1.36" ry="2.04" transform="matrix(0.37, -0.93, 0.93, 0.37, 265.96, 570.83)"/><ellipse class="cls-6" cx="507.68" cy="56.67" rx="1.36" ry="2.04" transform="translate(267.16 507.34) rotate(-68.28)"/><ellipse class="cls-6" cx="557.98" cy="68.91" rx="1.36" ry="2.04" transform="matrix(0.37, -0.93, 0.93, 0.37, 287.48, 561.77)"/><ellipse class="cls-6" cx="585.16" cy="48.52" rx="1.36" ry="2.04" transform="matrix(0.37, -0.93, 0.93, 0.37, 323.54, 574.18)"/><ellipse class="cls-6" cx="642.26" cy="28.13" rx="1.36" ry="2.04" transform="translate(378.45 614.38) rotate(-68.28)"/><ellipse class="cls-6" cx="702.07" cy="25.41" rx="1.36" ry="2.04" transform="translate(418.66 668.23) rotate(-68.28)"/><ellipse class="cls-6" cx="954.91" cy="127.36" rx="1.36" ry="2.04" transform="translate(483.22 967.35) rotate(-68.28)"/><ellipse class="cls-6" cx="954.91" cy="172.22" rx="1.36" ry="2.04" transform="translate(441.54 995.61) rotate(-68.28)"/><ellipse class="cls-6" cx="957.63" cy="218.44" rx="1.36" ry="2.04" transform="translate(400.32 1027.25) rotate(-68.28)"/><rect class="cls-7" x="420" y="2132.44" width="973.31" height="473.06" rx="3.88"/><ellipse class="cls-6" cx="987.54" cy="365.25" rx="1.36" ry="2.04" transform="translate(282.77 1147.51) rotate(-68.28)"/><ellipse class="cls-6" cx="983.46" cy="344.86" rx="1.36" ry="2.04" transform="translate(299.14 1130.88) rotate(-68.28)"/><ellipse class="cls-6" cx="1041.91" cy="335.34" rx="1.36" ry="2.04" transform="translate(344.8 1179.19) rotate(-68.28)"/><ellipse class="cls-6" cx="1077.26" cy="339.42" rx="1.36" ry="2.04" transform="translate(363.28 1214.59) rotate(-68.28)"/><ellipse class="cls-6" cx="1079.98" cy="393.8" rx="1.36" ry="2.04" transform="translate(314.48 1251.37) rotate(-68.28)"/><ellipse class="cls-6" cx="1103.09" cy="294.56" rx="1.36" ry="2.04" transform="translate(421.22 1210.33) rotate(-68.28)"/><ellipse class="cls-6" cx="1051.43" cy="289.13" rx="1.36" ry="2.04" transform="translate(393.73 1158.92) rotate(-68.28)"/><ellipse class="cls-6" cx="984.82" cy="294.56" rx="1.36" ry="2.04" transform="translate(346.72 1100.46) rotate(-68.28)"/><ellipse class="cls-6" cx="944.04" cy="304.08" rx="1.36" ry="2.04" transform="translate(312.19 1068.57) rotate(-68.28)"/><ellipse class="cls-6" cx="925.01" cy="251.06" rx="1.36" ry="2.04" transform="translate(349.46 1017.49) rotate(-68.28)"/><ellipse class="cls-6" cx="892.38" cy="312.23" rx="1.36" ry="2.04" transform="translate(272.08 1025.72) rotate(-68.28)"/><ellipse class="cls-6" cx="866.55" cy="366.61" rx="1.36" ry="2.04" transform="translate(205.29 1035.98) rotate(-68.28)"/><ellipse class="cls-6" cx="842.09" cy="403.31" rx="1.36" ry="2.04" transform="translate(155.78 1036.36) rotate(-68.28)"/><ellipse class="cls-6" cx="835.29" cy="407.39" rx="1.36" ry="2.04" transform="translate(147.71 1032.62) rotate(-68.28)"/><ellipse class="cls-6" cx="795.87" cy="404.67" rx="1.36" ry="2.04" transform="translate(125.4 994.28) rotate(-68.28)"/><ellipse class="cls-6" cx="780.91" cy="401.95" rx="1.36" ry="2.04" transform="translate(118.51 978.68) rotate(-68.28)"/><ellipse class="cls-6" cx="765.96" cy="369.33" rx="1.36" ry="2.04" transform="translate(139.4 944.24) rotate(-68.28)"/><ellipse class="cls-6" cx="783.63" cy="327.19" rx="1.36" ry="2.04" transform="translate(189.68 934.11) rotate(-68.28)"/><ellipse class="cls-6" cx="783.63" cy="325.83" rx="1.36" ry="2.04" transform="translate(190.94 933.25) rotate(-68.28)"/><ellipse class="cls-6" cx="753.73" cy="327.19" rx="1.36" ry="2.04" transform="translate(170.84 906.32) rotate(-68.28)"/><ellipse class="cls-6" cx="753.73" cy="327.19" rx="1.36" ry="2.04" transform="translate(170.84 906.32) rotate(-68.28)"/><ellipse class="cls-6" cx="689.84" cy="329.91" rx="1.36" ry="2.04" transform="translate(128.07 848.68) rotate(-68.28)"/><ellipse class="cls-6" cx="644.98" cy="335.34" rx="1.36" ry="2.04" transform="translate(94.76 810.43) rotate(-68.28)"/><ellipse class="cls-6" cx="644.98" cy="335.34" rx="1.36" ry="2.04" transform="translate(94.76 810.43) rotate(-68.28)"/><ellipse class="cls-6" cx="619.15" cy="314.95" rx="1.36" ry="2.04" transform="matrix(0.37, -0.93, 0.93, 0.37, 97.43, 773.59)"/><ellipse class="cls-6" cx="624.59" cy="304.08" rx="1.36" ry="2.04" transform="matrix(0.37, -0.93, 0.93, 0.37, 110.96, 771.79)"/><ellipse class="cls-6" cx="647.7" cy="259.22" rx="1.36" ry="2.04" transform="translate(167.19 765) rotate(-68.28)"/><ellipse class="cls-6" cx="654.49" cy="252.42" rx="1.36" ry="2.04" transform="translate(177.79 767.04) rotate(-68.28)"/><ellipse class="cls-6" cx="654.49" cy="252.42" rx="1.36" ry="2.04" transform="translate(177.79 767.04) rotate(-68.28)"/><ellipse class="cls-6" cx="600.12" cy="245.63" rx="1.36" ry="2.04" transform="matrix(0.37, -0.93, 0.93, 0.37, 149.85, 712.24)"/><ellipse class="cls-6" cx="600.12" cy="245.63" rx="1.36" ry="2.04" transform="matrix(0.37, -0.93, 0.93, 0.37, 149.85, 712.24)"/><ellipse class="cls-6" cx="549.82" cy="241.55" rx="1.36" ry="2.04" transform="matrix(0.37, -0.93, 0.93, 0.37, 121.95, 662.95)"/><ellipse class="cls-6" cx="498.16" cy="282.33" rx="1.36" ry="2.04" transform="translate(51.53 640.65) rotate(-68.28)"/><ellipse class="cls-6" cx="495.45" cy="287.77" rx="1.36" ry="2.04" transform="translate(44.76 641.55) rotate(-68.28)"/><ellipse class="cls-6" cx="487.29" cy="324.47" rx="1.36" ry="2.04" transform="translate(5.53 657.09) rotate(-68.28)"/><ellipse class="cls-6" cx="498.16" cy="353.02" rx="1.36" ry="2.04" transform="translate(-14.14 685.17) rotate(-68.28)"/><ellipse class="cls-6" cx="515.84" cy="380.2" rx="1.36" ry="2.04" transform="translate(-28.27 718.72) rotate(-68.28)"/><ellipse class="cls-6" cx="536.23" cy="381.56" rx="1.36" ry="2.04" transform="translate(-16.69 738.52) rotate(-68.28)"/><ellipse class="cls-6" cx="536.23" cy="381.56" rx="1.36" ry="2.04" transform="translate(-16.69 738.52) rotate(-68.28)"/><ellipse class="cls-6" cx="596.04" cy="374.77" rx="1.36" ry="2.04" transform="matrix(0.37, -0.93, 0.93, 0.37, 27.31, 789.8)"/><ellipse class="cls-6" cx="643.62" cy="363.89" rx="1.36" ry="2.04" transform="translate(67.38 827.15) rotate(-68.28)"/><ellipse class="cls-6" cx="669.45" cy="353.02" rx="1.36" ry="2.04" transform="translate(93.75 844.3) rotate(-68.28)"/><ellipse class="cls-6" cx="677.6" cy="372.05" rx="1.36" ry="2.04" transform="translate(81.21 863.86) rotate(-68.28)"/><ellipse class="cls-6" cx="684.4" cy="407.39" rx="1.36" ry="2.04" transform="translate(52.66 892.44) rotate(-68.28)"/><ellipse class="cls-6" cx="699.35" cy="423.7" rx="1.36" ry="2.04" transform="translate(46.92 916.61) rotate(-68.28)"/><ellipse class="cls-6" cx="703.43" cy="423.7" rx="1.36" ry="2.04" transform="translate(49.49 920.4) rotate(-68.28)"/><ellipse class="cls-6" cx="759.16" cy="412.83" rx="1.36" ry="2.04" transform="translate(94.71 965.32) rotate(-68.28)"/><ellipse class="cls-6" cx="1113.96" cy="517.5" rx="1.36" ry="2.04" transform="translate(220.96 1360.87) rotate(-68.28)"/><ellipse class="cls-6" cx="1062.3" cy="559.64" rx="1.36" ry="2.04" transform="translate(149.27 1339.43) rotate(-68.28)"/><ellipse class="cls-6" cx="1062.3" cy="559.64" rx="1.36" ry="2.04" transform="translate(149.27 1339.43) rotate(-68.28)"/><ellipse class="cls-6" cx="1268.93" cy="484.88" rx="1.36" ry="2.04" transform="translate(348.89 1484.28) rotate(-68.28)"/><ellipse class="cls-6" cx="1320.59" cy="551.48" rx="1.36" ry="2.04" transform="translate(319.55 1574.23) rotate(-68.28)"/><ellipse class="cls-6" cx="1225.43" cy="433.22" rx="1.36" ry="2.04" transform="translate(369.48 1411.33) rotate(-68.28)"/><ellipse class="cls-6" cx="1184.65" cy="395.16" rx="1.36" ry="2.04" transform="translate(379.15 1349.47) rotate(-68.28)"/><ellipse class="cls-6" cx="1255.34" cy="397.88" rx="1.36" ry="2.04" transform="translate(421.15 1416.85) rotate(-68.28)"/><ellipse class="cls-6" cx="1349.13" cy="425.06" rx="1.36" ry="2.04" transform="translate(454.98 1521.12) rotate(-68.28)"/><ellipse class="cls-6" cx="1028.32" cy="437.3" rx="1.36" ry="2.04" transform="translate(241.52 1230.79) rotate(-68.28)"/><ellipse class="cls-6" cx="927.73" cy="517.5" rx="1.36" ry="2.04" transform="translate(103.65 1187.86) rotate(-68.28)"/><ellipse class="cls-6" cx="889.66" cy="518.86" rx="1.36" ry="2.04" transform="translate(78.41 1153.35) rotate(-68.28)"/><ellipse class="cls-6" cx="778.2" cy="520.22" rx="1.36" ry="2.04" transform="translate(6.93 1050.65) rotate(-68.28)"/><ellipse class="cls-6" cx="647.7" cy="547.41" rx="1.36" ry="2.04" transform="translate(-100.54 946.54) rotate(-68.28)"/><ellipse class="cls-6" cx="642.26" cy="454.97" rx="1.36" ry="2.04" transform="translate(-18.09 883.26) rotate(-68.28)"/><ellipse class="cls-6" cx="562.05" cy="479.44" rx="1.36" ry="2.04" transform="matrix(0.37, -0.93, 0.93, 0.37, -91.34, 824.17)"/><ellipse class="cls-6" cx="532.15" cy="529.73" rx="1.36" ry="2.04" transform="translate(-156.91 828.07) rotate(-68.28)"/><ellipse class="cls-6" cx="504.96" cy="484.88" rx="1.36" ry="2.04" transform="translate(-132.36 774.55) rotate(-68.28)"/><ellipse class="cls-6" cx="492.73" cy="461.77" rx="1.36" ry="2.04" transform="translate(-118.6 748.63) rotate(-68.28)"/><polygon class="cls-8" points="411 1735.8 584.55 1762.89 624.68 1808.04 671.83 1858.6 724.99 1920.01 797.22 1858.6 853.4 1920.01 899.54 1954.32 975.79 1901.95 1048.02 1891.11 1048.02 2077.12 1088.14 2082.54 1141.31 2082.54 1222.57 1990.44 1297.81 1954.32 1361.01 1909.17 1417.18 1909.17 1417.18 1963.35 1479.38 2028.36 1507.47 2028.36 1570.67 2017.53 1638.88 1963.35 1792.37 1909.17 1895.7 2006.69 1939.84 2037.39 2005.04 1963.35 2070.25 1963.35 2111.38 2037.39 2171.57 2031.97 2227.75 1990.44 2284.93 1954.32 2320.04 1909.17 2393.27 1862.22 2412.33 1909.17 2440.42 1963.35 2477.54 1990.44 2571.84 2006.69 2637.04 1909.17 2662.12 1804.43 2715.29 1741.22 2772.47 1741.22 2899.87 1705.1 2950.03 1613 2994.17 1668.98 3019.25 1735.8 3031.29 1804.43 3031.29 1901.95 3072.42 1896.53 3122.58 1896.53 3159.7 1847.77 3200.82 1741.22 3256 1688.24 3256 2590 411 2590 411 1735.8"/><ellipse class="cls-6" cx="1468.15" cy="466.48" rx="1.36" ry="2.04" transform="translate(491.47 1657.77) rotate(-68.28)"/><ellipse class="cls-6" cx="1410.15" cy="488.48" rx="1.36" ry="2.04" transform="translate(434.5 1617.75) rotate(-68.28)"/><ellipse class="cls-6" cx="1483.15" cy="463.48" rx="1.36" ry="2.04" transform="translate(503.71 1669.82) rotate(-68.28)"/><ellipse class="cls-6" cx="1581.15" cy="405.48" rx="1.36" ry="2.04" transform="translate(619.33 1724.33) rotate(-68.28)"/><ellipse class="cls-6" cx="1641.15" cy="378.48" rx="1.36" ry="2.04" transform="translate(682.2 1763.06) rotate(-68.28)"/><ellipse class="cls-6" cx="1613.15" cy="308.48" rx="1.36" ry="2.04" transform="translate(729.6 1692.95) rotate(-68.28)"/><ellipse class="cls-6" cx="1549.15" cy="290.48" rx="1.36" ry="2.04" transform="translate(706 1622.16) rotate(-68.28)"/><ellipse class="cls-6" cx="1498.15" cy="303.48" rx="1.36" ry="2.04" transform="translate(661.8 1582.97) rotate(-68.28)"/><ellipse class="cls-6" cx="1425.15" cy="314.48" rx="1.36" ry="2.04" transform="translate(605.59 1522.08) rotate(-68.28)"/><ellipse class="cls-6" cx="1354.15" cy="323.48" rx="1.36" ry="2.04" transform="translate(552.51 1461.79) rotate(-68.28)"/><ellipse class="cls-6" cx="1303.15" cy="323.48" rx="1.36" ry="2.04" transform="translate(520.38 1414.41) rotate(-68.28)"/><ellipse class="cls-6" cx="1240.15" cy="266.48" rx="1.36" ry="2.04" transform="translate(533.65 1319.97) rotate(-68.28)"/><ellipse class="cls-6" cx="1205.15" cy="163.48" rx="1.36" ry="2.04" transform="translate(607.29 1222.58) rotate(-68.28)"/><ellipse class="cls-6" cx="1204.15" cy="91.48" rx="1.36" ry="2.04" transform="translate(673.55 1176.29) rotate(-68.28)"/><ellipse class="cls-6" cx="1256.15" cy="87.48" rx="1.36" ry="2.04" transform="translate(710.02 1222.08) rotate(-68.28)"/><ellipse class="cls-6" cx="1256.15" cy="87.48" rx="1.36" ry="2.04" transform="translate(710.02 1222.08) rotate(-68.28)"/><ellipse class="cls-6" cx="1339.15" cy="156.48" rx="1.36" ry="2.04" transform="translate(698.2 1342.65) rotate(-68.28)"/><ellipse class="cls-6" cx="1394.15" cy="131.48" rx="1.36" ry="2.04" transform="translate(756.07 1378) rotate(-68.28)"/><ellipse class="cls-6" cx="1524.15" cy="118.48" rx="1.36" ry="2.04" transform="translate(850.04 1490.58) rotate(-68.28)"/><ellipse class="cls-6" cx="1524.15" cy="118.48" rx="1.36" ry="2.04" transform="translate(850.04 1490.58) rotate(-68.28)"/><ellipse class="cls-6" cx="1669.15" cy="112.48" rx="1.36" ry="2.04" transform="translate(946.96 1621.51) rotate(-68.28)"/><ellipse class="cls-6" cx="1713.15" cy="98.48" rx="1.36" ry="2.04" transform="translate(987.68 1653.56) rotate(-68.28)"/><ellipse class="cls-6" cx="1793.15" cy="116.48" rx="1.36" ry="2.04" transform="translate(1021.35 1739.22) rotate(-68.28)"/><ellipse class="cls-6" cx="1831.15" cy="157.48" rx="1.36" ry="2.04" transform="translate(1007.2 1800.35) rotate(-68.28)"/><ellipse class="cls-6" cx="1805.15" cy="240.48" rx="1.36" ry="2.04" transform="translate(913.72 1828.48) rotate(-68.28)"/><ellipse class="cls-6" cx="1852.15" cy="239.48" rx="1.36" ry="2.04" transform="translate(944.25 1871.52) rotate(-68.28)"/><ellipse class="cls-6" cx="1908.15" cy="239.48" rx="1.36" ry="2.04" transform="translate(979.53 1923.54) rotate(-68.28)"/><ellipse class="cls-6" cx="1965.15" cy="232.48" rx="1.36" ry="2.04" transform="translate(1021.94 1972.09) rotate(-68.28)"/><ellipse class="cls-6" cx="2028.15" cy="151.48" rx="1.36" ry="2.04" transform="translate(1136.87 1979.59) rotate(-68.28)"/><ellipse class="cls-6" cx="1875.15" cy="240.48" rx="1.36" ry="2.04" transform="translate(957.81 1893.51) rotate(-68.28)"/><ellipse class="cls-6" cx="1786.15" cy="332.48" rx="1.36" ry="2.04" transform="translate(816.28 1868.79) rotate(-68.28)"/><ellipse class="cls-6" cx="1765.15" cy="353.48" rx="1.36" ry="2.04" transform="translate(783.54 1862.51) rotate(-68.28)"/><ellipse class="cls-6" cx="1757.15" cy="363.48" rx="1.36" ry="2.04" transform="translate(769.21 1861.37) rotate(-68.28)"/><ellipse class="cls-6" cx="1867.15" cy="360.48" rx="1.36" ry="2.04" transform="translate(841.29 1961.68) rotate(-68.28)"/><ellipse class="cls-6" cx="1944.15" cy="343.48" rx="1.36" ry="2.04" transform="translate(905.59 2022.5) rotate(-68.28)"/><ellipse class="cls-6" cx="2085.15" cy="327.48" rx="1.36" ry="2.04" transform="translate(1009.28 2143.41) rotate(-68.28)"/><ellipse class="cls-6" cx="2174.15" cy="295.48" rx="1.36" ry="2.04" transform="translate(1095.07 2205.93) rotate(-68.28)"/><ellipse class="cls-6" cx="2174.15" cy="295.48" rx="1.36" ry="2.04" transform="translate(1095.07 2205.93) rotate(-68.28)"/><ellipse class="cls-6" cx="2312.15" cy="268.48" rx="1.36" ry="2.04" transform="translate(1207.08 2317.13) rotate(-68.28)"/><ellipse class="cls-6" cx="2372.15" cy="226.48" rx="1.36" ry="2.04" transform="translate(1283.9 2346.41) rotate(-68.28)"/><ellipse class="cls-6" cx="2423.15" cy="239.48" rx="1.36" ry="2.04" transform="translate(1303.95 2401.98) rotate(-68.28)"/><ellipse class="cls-6" cx="2437.15" cy="257.48" rx="1.36" ry="2.04" transform="translate(1296.04 2426.33) rotate(-68.28)"/><ellipse class="cls-6" cx="2437.15" cy="257.48" rx="1.36" ry="2.04" transform="translate(1296.04 2426.33) rotate(-68.28)"/><ellipse class="cls-6" cx="2396.15" cy="451.48" rx="1.36" ry="2.04" transform="translate(1089.99 2510.44) rotate(-68.28)"/><ellipse class="cls-6" cx="2200.15" cy="455.48" rx="1.36" ry="2.04" transform="translate(962.81 2330.88) rotate(-68.28)"/><ellipse class="cls-6" cx="2200.15" cy="455.48" rx="1.36" ry="2.04" transform="translate(962.81 2330.88) rotate(-68.28)"/><ellipse class="cls-6" cx="2158.15" cy="451.48" rx="1.36" ry="2.04" transform="translate(940.06 2289.34) rotate(-68.28)"/><ellipse class="cls-6" cx="2184.15" cy="346.48" rx="1.36" ry="2.04" transform="translate(1053.99 2247.35) rotate(-68.28)"/><ellipse class="cls-6" cx="2184.15" cy="346.48" rx="1.36" ry="2.04" transform="translate(1053.99 2247.35) rotate(-68.28)"/><ellipse class="cls-6" cx="2372.15" cy="257.48" rx="1.36" ry="2.04" transform="translate(1255.1 2365.94) rotate(-68.28)"/><ellipse class="cls-6" cx="2456.15" cy="210.48" rx="1.36" ry="2.04" transform="translate(1351.68 2414.37) rotate(-68.28)"/><ellipse class="cls-6" cx="2453.15" cy="166.48" rx="1.36" ry="2.04" transform="translate(1390.66 2383.87) rotate(-68.28)"/><ellipse class="cls-6" cx="2321.15" cy="153.48" rx="1.36" ry="2.04" transform="translate(1319.59 2253.05) rotate(-68.28)"/><ellipse class="cls-6" cx="2226.15" cy="196.48" rx="1.36" ry="2.04" transform="translate(1219.8 2191.88) rotate(-68.28)"/><ellipse class="cls-6" cx="2151.15" cy="235.48" rx="1.36" ry="2.04" transform="translate(1136.32 2146.77) rotate(-68.28)"/><ellipse class="cls-6" cx="2151.15" cy="235.48" rx="1.36" ry="2.04" transform="translate(1136.32 2146.77) rotate(-68.28)"/><ellipse class="cls-6" cx="2107.15" cy="157.48" rx="1.36" ry="2.04" transform="translate(1181.07 2056.76) rotate(-68.28)"/><ellipse class="cls-6" cx="2096.15" cy="166.48" rx="1.36" ry="2.04" transform="translate(1165.78 2052.21) rotate(-68.28)"/><ellipse class="cls-6" cx="2261.15" cy="107.48" rx="1.36" ry="2.04" transform="translate(1324.53 2168.33) rotate(-68.28)"/><ellipse class="cls-6" cx="2085.15" cy="105.48" rx="1.36" ry="2.04" transform="translate(1215.52 2003.56) rotate(-68.28)"/><ellipse class="cls-6" cx="2112.15" cy="41.48" rx="1.36" ry="2.04" transform="translate(1291.98 1988.33) rotate(-68.28)"/><ellipse class="cls-6" cx="2046.15" cy="53.48" rx="1.36" ry="2.04" transform="translate(1239.26 1934.58) rotate(-68.28)"/><ellipse class="cls-6" cx="1871.15" cy="60.48" rx="1.36" ry="2.04" transform="translate(1122.51 1776.41) rotate(-68.28)"/><ellipse class="cls-6" cx="1745.15" cy="76.48" rx="1.36" ry="2.04" transform="translate(1028.28 1669.43) rotate(-68.28)"/><ellipse class="cls-6" cx="1549.15" cy="58.48" rx="1.36" ry="2.04" transform="translate(921.53 1476.01) rotate(-68.28)"/><ellipse class="cls-6" cx="1435.15" cy="65.48" rx="1.36" ry="2.04" transform="translate(843.22 1374.51) rotate(-68.28)"/><ellipse class="cls-6" cx="1505.15" cy="160.48" rx="1.36" ry="2.04" transform="translate(799.06 1499.39) rotate(-68.28)"/><ellipse class="cls-6" cx="1625.15" cy="159.48" rx="1.36" ry="2.04" transform="translate(875.58 1610.24) rotate(-68.28)"/><ellipse class="cls-6" cx="1659.15" cy="185.48" rx="1.36" ry="2.04" transform="translate(872.84 1658.2) rotate(-68.28)"/><ellipse class="cls-6" cx="1668.15" cy="236.48" rx="1.36" ry="2.04" transform="translate(831.13 1698.69) rotate(-68.28)"/><ellipse class="cls-6" cx="1630.15" cy="262.48" rx="1.36" ry="2.04" transform="translate(783.04 1679.77) rotate(-68.28)"/><ellipse class="cls-6" cx="1688.15" cy="258.48" rx="1.36" ry="2.04" transform="translate(823.29 1731.13) rotate(-68.28)"/><ellipse class="cls-6" cx="1679.15" cy="305.48" rx="1.36" ry="2.04" transform="translate(773.96 1752.38) rotate(-68.28)"/><ellipse class="cls-6" cx="1735.15" cy="192.48" rx="1.36" ry="2.04" transform="translate(914.21 1733.22) rotate(-68.28)"/><ellipse class="cls-6" cx="1559.15" cy="195.48" rx="1.36" ry="2.04" transform="translate(800.56 1571.6) rotate(-68.28)"/><ellipse class="cls-6" cx="1464.15" cy="224.48" rx="1.36" ry="2.04" transform="translate(713.77 1501.61) rotate(-68.28)"/><ellipse class="cls-6" cx="2422.15" cy="46.48" rx="1.36" ry="2.04" transform="translate(1482.62 2279.47) rotate(-68.28)"/><ellipse class="cls-6" cx="2253.15" cy="111.48" rx="1.36" ry="2.04" transform="translate(1315.77 2163.42) rotate(-68.28)"/><ellipse class="cls-6" cx="2499.15" cy="97.48" rx="1.36" ry="2.04" transform="translate(1483.74 2383.13) rotate(-68.28)"/><ellipse class="cls-6" cx="2587.15" cy="97.48" rx="1.36" ry="2.04" transform="translate(1539.18 2464.89) rotate(-68.28)"/><ellipse class="cls-6" cx="2608.15" cy="148.48" rx="1.36" ry="2.04" transform="translate(1505.02 2516.52) rotate(-68.28)"/><ellipse class="cls-6" cx="2580.15" cy="232.48" rx="1.36" ry="2.04" transform="translate(1409.35 2543.42) rotate(-68.28)"/><ellipse class="cls-6" cx="2536.15" cy="342.48" rx="1.36" ry="2.04" transform="translate(1279.44 2571.84) rotate(-68.28)"/><ellipse class="cls-6" cx="2515.15" cy="363.48" rx="1.36" ry="2.04" transform="translate(1246.7 2565.56) rotate(-68.28)"/><ellipse class="cls-6" cx="2400.15" cy="316.48" rx="1.36" ry="2.04" transform="translate(1217.92 2429.12) rotate(-68.28)"/><ellipse class="cls-6" cx="2294.15" cy="290.48" rx="1.36" ry="2.04" transform="translate(1175.31 2314.27) rotate(-68.28)"/><ellipse class="cls-6" cx="2331.15" cy="382.48" rx="1.36" ry="2.04" transform="translate(1113.14 2406.59) rotate(-68.28)"/><ellipse class="cls-6" cx="2525.15" cy="402.48" rx="1.36" ry="2.04" transform="translate(1216.77 2599.42) rotate(-68.28)"/><ellipse class="cls-6" cx="2568.15" cy="397.48" rx="1.36" ry="2.04" transform="translate(1248.5 2636.22) rotate(-68.28)"/><ellipse class="cls-6" cx="2649.15" cy="431.48" rx="1.36" ry="2.04" transform="translate(1267.94 2732.88) rotate(-68.28)"/><ellipse class="cls-6" cx="2700.15" cy="473.48" rx="1.36" ry="2.04" transform="translate(1261.05 2806.72) rotate(-68.28)"/><ellipse class="cls-6" cx="2616.15" cy="327.48" rx="1.36" ry="2.04" transform="translate(1343.77 2636.71) rotate(-68.28)"/><ellipse class="cls-6" cx="2631.15" cy="266.48" rx="1.36" ry="2.04" transform="translate(1409.89 2612.22) rotate(-68.28)"/><ellipse class="cls-6" cx="3041.15" cy="91.48" rx="1.36" ry="2.04" transform="translate(1830.74 2882.88) rotate(-68.28)"/><ellipse class="cls-6" cx="3084.15" cy="75.48" rx="1.36" ry="2.04" transform="translate(1872.69 2912.74) rotate(-68.28)"/><ellipse class="cls-6" cx="3107.15" cy="78.48" rx="1.36" ry="2.04" transform="translate(1884.39 2936) rotate(-68.28)"/><ellipse class="cls-6" cx="3133.15" cy="119.48" rx="1.36" ry="2.04" transform="translate(1862.68 2985.98) rotate(-68.28)"/><ellipse class="cls-6" cx="3124.15" cy="214.48" rx="1.36" ry="2.04" transform="translate(1768.76 3037.47) rotate(-68.28)"/><ellipse class="cls-6" cx="3155.15" cy="202.48" rx="1.36" ry="2.04" transform="translate(1799.43 3058.71) rotate(-68.28)"/><ellipse class="cls-6" cx="3186.15" cy="246.48" rx="1.36" ry="2.04" transform="translate(1778.09 3115.22) rotate(-68.28)"/><ellipse class="cls-6" cx="3173.15" cy="274.48" rx="1.36" ry="2.04" transform="translate(1743.88 3120.78) rotate(-68.28)"/><ellipse class="cls-6" cx="3191.15" cy="345.48" rx="1.36" ry="2.04" transform="translate(1689.26 3182.23) rotate(-68.28)"/><ellipse class="cls-6" cx="3223.15" cy="386.48" rx="1.36" ry="2.04" transform="translate(1671.33 3237.79) rotate(-68.28)"/><ellipse class="cls-6" cx="3205.15" cy="427.48" rx="1.36" ry="2.04" transform="translate(1621.9 3246.89) rotate(-68.28)"/><ellipse class="cls-6" cx="3162.15" cy="447.48" rx="1.36" ry="2.04" transform="translate(1576.24 3219.54) rotate(-68.28)"/><ellipse class="cls-6" cx="3096.15" cy="425.48" rx="1.36" ry="2.04" transform="translate(1555.1 3144.37) rotate(-68.28)"/><ellipse class="cls-6" cx="3109.15" cy="423.48" rx="1.36" ry="2.04" transform="translate(1565.15 3155.19) rotate(-68.28)"/><ellipse class="cls-6" cx="3060.15" cy="524.48" rx="1.36" ry="2.04" transform="translate(1440.45 3173.29) rotate(-68.28)"/><ellipse class="cls-6" cx="2996.15" cy="583.48" rx="1.36" ry="2.04" transform="translate(1345.32 3151) rotate(-68.28)"/><ellipse class="cls-6" cx="2996.15" cy="583.48" rx="1.36" ry="2.04" transform="translate(1345.32 3151) rotate(-68.28)"/><ellipse class="cls-6" cx="2909.15" cy="497.48" rx="1.36" ry="2.04" transform="translate(1370.41 3016) rotate(-68.28)"/><ellipse class="cls-6" cx="2906.15" cy="497.48" rx="1.36" ry="2.04" transform="translate(1368.52 3013.21) rotate(-68.28)"/><ellipse class="cls-6" cx="2796.15" cy="508.48" rx="1.36" ry="2.04" transform="translate(1289.01 2917.95) rotate(-68.28)"/><ellipse class="cls-6" cx="2796.15" cy="508.48" rx="1.36" ry="2.04" transform="translate(1289.01 2917.95) rotate(-68.28)"/><ellipse class="cls-6" cx="2749.15" cy="451.48" rx="1.36" ry="2.04" transform="translate(1312.36 2838.38) rotate(-68.28)"/><ellipse class="cls-6" cx="2729.15" cy="415.48" rx="1.36" ry="2.04" transform="translate(1333.2 2797.13) rotate(-68.28)"/><ellipse class="cls-6" cx="2703.15" cy="246.48" rx="1.36" ry="2.04" transform="translate(1473.83 2666.51) rotate(-68.28)"/><ellipse class="cls-6" cx="2649.15" cy="153.48" rx="1.36" ry="2.04" transform="translate(1526.21 2557.76) rotate(-68.28)"/><ellipse class="cls-6" cx="2698.15" cy="68.48" rx="1.36" ry="2.04" transform="translate(1636.04 2549.74) rotate(-68.28)"/><ellipse class="cls-6" cx="2755.15" cy="52.48" rx="1.36" ry="2.04" transform="translate(1686.81 2592.61) rotate(-68.28)"/><ellipse class="cls-6" cx="2787.15" cy="53.48" rx="1.36" ry="2.04" transform="translate(1706.04 2622.97) rotate(-68.28)"/><polygon class="cls-9" points="411 2590 411 2038.15 484.23 2117.82 525.36 2129.48 568.5 2063.42 603.61 1985.69 684.87 2038.15 698.91 2100.34 698.91 2170.29 715.97 2244.13 766.12 2244.13 810.26 2211.09 831.33 2129.48 994.85 2100.34 1040.99 2117.82 1069.08 2143.08 1088.14 2244.13 1169.4 2244.13 1216.55 2170.29 1278.74 2100.34 1356.99 2100.34 1404.14 2143.08 1459.32 2211.09 1507.47 2211.09 1566.66 2117.82 1666.97 2100.34 1702.08 2038.15 1764.28 2038.15 1833.5 2117.82 1873.63 2170.29 1936.83 2244.13 1976.95 2211.09 2024.1 2170.29 2086.3 2170.29 2118.4 2244.13 2171.57 2244.13 2247.81 2170.29 2265.87 2100.34 2320.04 2043.98 2377.22 1985.69 2440.42 1915.74 2477.54 1944.89 2477.54 2043.98 2496.6 2100.34 2533.72 2129.48 2662.12 2117.82 2703.25 2063.42 2753.41 1962.37 2784.51 1915.74 2896.86 1962.37 3041.32 2020.67 3088.47 2020.67 3131.61 1962.37 3194.81 1915.74 3256 1913 3256 2590 411 2590"/><rect class="cls-1" x="3250" width="411" height="2617"/><rect class="cls-2" x="3304.2" y="2269.59" width="304.86" height="303.98"/><rect class="cls-3" x="3301.94" y="1882.83" width="304.86" height="303.98"/><rect class="cls-2" x="3301.94" y="1496.06" width="304.86" height="303.98"/><rect class="cls-3" x="3301.94" y="1109.3" width="304.86" height="303.98"/><rect class="cls-2" x="3301.94" y="722.53" width="304.86" height="303.98"/><rect class="cls-3" x="3304.2" y="343.91" width="304.86" height="303.98"/><rect class="cls-2" x="3304.2" width="304.86" height="280.13"/><rect class="cls-6" x="1705" width="131" height="2584"/></g><g id="iphone_screen"><ellipse class="cls-6" cx="464.62" cy="98.25" rx="2.04" ry="1.36"/><ellipse class="cls-6" cx="490.45" cy="198.84" rx="2.04" ry="1.36"/><ellipse class="cls-6" cx="502.68" cy="50.67" rx="1.36" ry="2.04" transform="translate(269.58 498.91) rotate(-68.28)"/><ellipse class="cls-6" cx="493.16" cy="276.33" rx="1.36" ry="2.04" transform="translate(53.95 632.22) rotate(-68.28)"/><ellipse class="cls-6" cx="490.45" cy="281.77" rx="1.36" ry="2.04" transform="translate(47.19 633.12) rotate(-68.28)"/><ellipse class="cls-6" cx="482.29" cy="318.47" rx="1.36" ry="2.04" transform="translate(7.95 648.66) rotate(-68.28)"/><ellipse class="cls-6" cx="493.16" cy="347.02" rx="1.36" ry="2.04" transform="translate(-11.72 676.75) rotate(-68.28)"/><ellipse class="cls-6" cx="510.84" cy="374.2" rx="1.36" ry="2.04" transform="translate(-25.84 710.29) rotate(-68.28)"/><ellipse class="cls-6" cx="531.23" cy="375.56" rx="1.36" ry="2.04" transform="translate(-14.26 730.09) rotate(-68.28)"/><ellipse class="cls-6" cx="531.23" cy="375.56" rx="1.36" ry="2.04" transform="translate(-14.26 730.09) rotate(-68.28)"/><ellipse class="cls-6" cx="527.15" cy="523.73" rx="1.36" ry="2.04" transform="translate(-154.48 819.64) rotate(-68.28)"/><ellipse class="cls-6" cx="499.96" cy="478.88" rx="1.36" ry="2.04" transform="translate(-129.93 766.13) rotate(-68.28)"/><ellipse class="cls-6" cx="487.73" cy="455.77" rx="1.36" ry="2.04" transform="translate(-116.17 740.2) rotate(-68.28)"/><ellipse class="cls-6" cx="3079.15" cy="69.48" rx="1.36" ry="2.04" transform="translate(1875.12 2904.32) rotate(-68.28)"/><ellipse class="cls-6" cx="3102.15" cy="72.48" rx="1.36" ry="2.04" transform="translate(1886.82 2927.58) rotate(-68.28)"/><ellipse class="cls-6" cx="3128.15" cy="113.48" rx="1.36" ry="2.04" transform="translate(1865.11 2977.56) rotate(-68.28)"/><ellipse class="cls-6" cx="3119.15" cy="208.48" rx="1.36" ry="2.04" transform="translate(1771.18 3029.04) rotate(-68.28)"/><ellipse class="cls-6" cx="3150.15" cy="196.48" rx="1.36" ry="2.04" transform="translate(1801.86 3050.28) rotate(-68.28)"/><ellipse class="cls-6" cx="3181.15" cy="240.48" rx="1.36" ry="2.04" transform="translate(1780.51 3106.8) rotate(-68.28)"/><ellipse class="cls-6" cx="3168.15" cy="268.48" rx="1.36" ry="2.04" transform="translate(1746.31 3112.36) rotate(-68.28)"/><ellipse class="cls-6" cx="3186.15" cy="339.48" rx="1.36" ry="2.04" transform="translate(1691.69 3173.81) rotate(-68.28)"/><ellipse class="cls-6" cx="3218.15" cy="380.48" rx="1.36" ry="2.04" transform="translate(1673.76 3229.36) rotate(-68.28)"/><ellipse class="cls-6" cx="3200.15" cy="421.48" rx="1.36" ry="2.04" transform="translate(1624.33 3238.47) rotate(-68.28)"/><ellipse class="cls-6" cx="3157.15" cy="441.48" rx="1.36" ry="2.04" transform="translate(1578.66 3211.12) rotate(-68.28)"/><ellipse class="cls-6" cx="3091.15" cy="419.48" rx="1.36" ry="2.04" transform="translate(1557.52 3135.95) rotate(-68.28)"/><ellipse class="cls-6" cx="3104.15" cy="417.48" rx="1.36" ry="2.04" transform="translate(1567.57 3146.76) rotate(-68.28)"/></g></svg>
