<svg id="run" xmlns="http://www.w3.org/2000/svg" viewBox="0 0 1792 1537"><defs><style>.cls-1{fill:#f15a24;}</style></defs><title>run</title><circle class="cls-1" cx="859.8" cy="768.97" r="686.2"/><circle cx="861.98" cy="771.15" r="453.11"/><path class="cls-1" d="M699.28,886.2c-1.57.1-2.39,1.07-2.46,2.89a2.39,2.39,0,0,0-.65-2.07,3,3,0,0,0-1.73-.64,4.28,4.28,0,0,1-1.74-.49c-.48-.26-.6-.71-.38-1.33l3.53-.25a.39.39,0,0,1,0-.61c.21-.21.21-.31,0-.3a3.67,3.67,0,0,0-.24-1.35,3.89,3.89,0,0,1-.25-1c0-.82.35-1.24.94-1.28l3.22-.22a2.46,2.46,0,0,0-1.37-2,4.68,4.68,0,0,0-2.32-.45,2.4,2.4,0,0,0-2.69,1.4,5.64,5.64,0,0,0-.43,3.07c-1.37.1-3.24-.54-5.61-1.87A60.8,60.8,0,0,1,673.71,869q-2.61-2.81-2.79-4.6l-8.69.17a5.76,5.76,0,0,1-.69,1.88,8.68,8.68,0,0,1-1.28,1.93l-.58.05c-.39,0-.71-.29-.95-1s-.54-1.45-.87-2.33-.67-1.7-1-2.47a2.16,2.16,0,0,0-1.36-1.38l-.89.39a5.12,5.12,0,0,0-1.33.58,5.44,5.44,0,0,0-1.36.89l-.56-.25c-.58.06-1.79-.67-3.6-2.21s-3.76-3.28-5.82-5.28-4.07-3.88-6-5.68-3.3-3-4-3.47a9.24,9.24,0,0,1-1.69-.26,27.5,27.5,0,0,0-2.82-.44,30.72,30.72,0,0,1-3.92-.74,11.67,11.67,0,0,1-6-3.66,67.34,67.34,0,0,1-5-6.15c-1.59-2.21-3.08-4.37-4.47-6.51s-2.67-3.91-3.84-5.36a26.42,26.42,0,0,0-2.77-3.09,11.38,11.38,0,0,1-2.11-2.58,8,8,0,0,1-1.05-3.31,27.23,27.23,0,0,1,.17-5.59l0-.31c.18,0,.49-.26.91-.72l.63-.69.63-.68a8.69,8.69,0,0,0-1.56-2.35,5.21,5.21,0,0,1-1-4.52,12.89,12.89,0,0,1,1.87-5.67,22.28,22.28,0,0,1,3.33-4.06c1.23-1.17,2.46-2.38,3.7-3.65a14.07,14.07,0,0,0,3-4.76c2.33-1.31,4.71-2.57,7.12-3.78a60.15,60.15,0,0,0,6.86-4c2-1.45,3.15-2.54,3.49-3.29a11,11,0,0,1,1-1.78,5.83,5.83,0,0,1,1.93-1.44,31.22,31.22,0,0,1,5.93-1.9c.16.18.61.23,1.35.14.72.12,1.3.2,1.76.25s.88.76,1.3,2.12a19.53,19.53,0,0,1,2-2.65c1.13-1.33,2.36-2.73,3.68-4.18s2.5-2.79,3.52-4a8.24,8.24,0,0,1,1.81-1.86,9.16,9.16,0,0,1,4-.12,3.59,3.59,0,0,0,3.52-1.27c.39-.24.49-.85.3-1.85s-.08-1.59.31-1.84a8.71,8.71,0,0,1,4.43-2.42,8.67,8.67,0,0,0,4.43-2.41,7.42,7.42,0,0,0,.54-1.56q.21-.93.24-1.23c0-.21.56-.76,1.64-1.68s2.28-1.94,3.65-3.07,2.71-2.23,4.06-3.26a22.9,22.9,0,0,0,2.92-2.54,5,5,0,0,1,1.25-2.09c.8-1,1.64-2,2.53-3l2.37-2.64,1.33-1.48c.36,0,.89-1.09,1.59-3.17s1.59-3.17,2.67-3.27l.25.29c0,.2.07.3.25.28.42,1.58.83,3.16,1.26,4.74l.54,0c.89.14,1.6-.48,2.16-1.85s.94-2.45,1.18-3.28c0-.31,0-.61.07-.92.25-1-.33-2.34-1.72-3.94s-2.64-2.25-3.73-2c-.36,0-.8.43-1.3,1.18a20,20,0,0,0-1.08,1.76l-.54,0-.8.07a14,14,0,0,1,1.17-4.65,13.9,13.9,0,0,0,1.17-4.65c0-.2,0-.4,0-.61a9.73,9.73,0,0,1-3.15,2.71,31.69,31.69,0,0,0-3.37,2.12q-.64-3.42-1.28-6.84l-1.07.1a37.58,37.58,0,0,1-1.74,4.7c-.66,1.48-1.52,3.17-2.57,5.09a33.42,33.42,0,0,1-4.65-6,6.26,6.26,0,0,0-6.46-3.12,9.75,9.75,0,0,0-4.87,1.11c-1.31.74-2.1,2.53-2.39,5.39l.27,0c-.82-.72-1.13-1.13-.94-1.26a3.21,3.21,0,0,0,.68-1.43l-7.73.55-.23-.28c-.32-.36-.56-.55-.74-.52l-.5-.25-.57.37-.9,1-.57.36c-.18,0-.25-.07-.23-.27l-.24-.28c-.27-.77-.75-2-1.45-3.6a20.23,20.23,0,0,1-1.36-4.22c-.21.23-.61.73-1.22,1.5a31.29,31.29,0,0,1-2.26,2.53,30.25,30.25,0,0,1-2.64,2.42,9.48,9.48,0,0,1-2.41,1.5,25.94,25.94,0,0,0,.48-6.39,12,12,0,0,0-1.69-5.52,14.62,14.62,0,0,0-1.75,3.68,25.1,25.1,0,0,0-1.22,3.62,5.73,5.73,0,0,0,.33,1.61,2.84,2.84,0,0,1,0,2l.15.88c-.11.22-.22.43-.34.64a2.48,2.48,0,0,1-1,1c-.47.26-.89.51-1.27.76.07-.61.14-2,.23-4.1a10.67,10.67,0,0,0-.3-4,1,1,0,0,0,.28-1.24,5.9,5.9,0,0,0-.55-.83l-.53.07-.26,0c0,.2-.2.83-.5,1.87a23.41,23.41,0,0,1-1.17,3.16A22.94,22.94,0,0,1,627,706a3.13,3.13,0,0,1-2,1.62l-.49-.24c-.18,0-.26-.36-.25-1.17S624.17,705,624,705c0-.2-.31,0-1,.58a4.18,4.18,0,0,1-1.3.92,6.35,6.35,0,0,0,.2,2.54,7.15,7.15,0,0,1,.18,2.83,2,2,0,0,1-2.1-1.08,2.63,2.63,0,0,0-2.06-1.38,1.15,1.15,0,0,0-.61-.37,5.29,5.29,0,0,1-.87-.34,5.81,5.81,0,0,1-1.25-.43l-3.7,6.21c-2.5.33-5,.68-7.49,1l-1.15.76a50.76,50.76,0,0,1-1.6,8.94q-1.41,5.61-4.43,8.44a2.09,2.09,0,0,1-1.16.77l-.54.08q.48-2.62,1-5.25a.53.53,0,0,1-.5-.23.81.81,0,0,1-.51-.07.94.94,0,0,0-.52-.08,5.67,5.67,0,0,0-2,2.69,13.42,13.42,0,0,0-1,3.14q-.74,3.42.78,5c1,1.06,1.28,2.73.8,5-3,.24-4.93,2.33-5.63,6.23l-1.09.16-.72,3.41,3.06-2.85a16.88,16.88,0,0,0,1.68,4.56,9.41,9.41,0,0,1,1.15,4.64,7.77,7.77,0,0,0-.74,1.61,5.31,5.31,0,0,1-1.13,1.52,10.25,10.25,0,0,0-1.45,1.86c-.43.46-.8,1.67-1.14,3.62s-.34,3.11,0,3.46a2.62,2.62,0,0,0-.82-1.09,2.38,2.38,0,0,1-.81-1.08l-.51-.22-.59.38c-.19,0-.5.34-.92.89s-.75.86-.93.89l.24.27c-.21,1.62-.38,3.31-.5,5a16.52,16.52,0,0,0,.34,4.91,7.35,7.35,0,0,0,2,3.76,4.79,4.79,0,0,0,4.25,1,14.25,14.25,0,0,1-1.4,4.86,33.75,33.75,0,0,1-2.07,3.6c-.66,1-1.28,1.94-1.84,2.82a7.53,7.53,0,0,0-1.06,3.16c0,.21-.05.41-.07.61a4.15,4.15,0,0,1,.81,1.39,1.7,1.7,0,0,0,.84,1.08c-.25,2.13-.49,4.28-.73,6.41a12.36,12.36,0,0,1-2,6.45,17.47,17.47,0,0,0-2.5,6.22,4.84,4.84,0,0,0,1.83,3.64,4.08,4.08,0,0,1,1.57,3.68,2.93,2.93,0,0,1-.23.78,4,4,0,0,0-.25,1.09c0,.2-.19,1.33-.5,3.38s-.68,4.25-1.11,6.62-.9,4.64-1.41,6.81-.76,3.38-.78,3.57l-.06.61c0,.21,0,.41-.06.61a3.67,3.67,0,0,0,2,.75,1.45,1.45,0,0,1,1.39,1.76c-.08.82-.32,1.3-.71,1.45a2.89,2.89,0,0,0-1.07.76,14.15,14.15,0,0,0-1.14,1.51,8.88,8.88,0,0,0-.94,3.75c0,.2,0,.4,0,.61,1-1.16,1.5-1.93,1.36-2.3s.44-.67,1.79-.87c0,.41-.21,1.59-.49,3.53a15,15,0,0,1-.76,3.56c-.3,1-1.5,2.72-3.62,5a22.65,22.65,0,0,1-5.6,4.73,42.07,42.07,0,0,0-3.77,5.08,4.25,4.25,0,0,1-2.94,2.25,7.92,7.92,0,0,1-3.83-.3,11.46,11.46,0,0,0-3.51-.65c.67-4.81,1.35-9.61,2-14.43,0-.41-.3-.75-1-1s-1.13-2.67-1.21-7.15.05-9.56.42-15.22.85-11,1.46-16.14a54.52,54.52,0,0,1,1.74-9.88q-.49-.51-.72-4.23c-.15-2.47-.28-5.51-.37-9.09s0-7.49.15-11.73.38-8.26.54-12.08.31-7.14.44-10,.25-4.64.37-5.45c0-.2.12-.88.28-2s.28-2.3.37-3.51.21-2.38.38-3.51.26-1.79.29-2c.06-.4.24-1.39.56-2.94s.65-3.19,1-5,.72-3.37,1.12-4.83.62-2.4.68-2.81c0-.2.07-.41.1-.62l.09-.61c0-3.39-.1-6.58-.24-9.55a38.58,38.58,0,0,1,.87-9.74c.41-1.46.86-2.13,1.36-2a4,4,0,0,0,1.55,0c.42-2.06.83-4.13,1.24-6.19l6.55-.44,2-2.71c-2.72.33-5.45.65-8.17,1a3.25,3.25,0,0,1,1.9-3q1.81-.88,4.52-4.91a3.16,3.16,0,0,1,.25-.79c.14-.32.28-.4.42-.22.77.58,1.53,1.17,2.3,1.74a17,17,0,0,1,4.41-7.58,24.88,24.88,0,0,0,5.17-7.68,5.3,5.3,0,0,1,3-2.85,9.81,9.81,0,0,1,4-.89,2.69,2.69,0,0,1,2,.31,3.68,3.68,0,0,0,2.53.23,4.2,4.2,0,0,0,2.22-.32,4,4,0,0,0,2-2.39,1.44,1.44,0,0,0-1-1.21c-.56-.23-1.16-.48-1.8-.8a5.2,5.2,0,0,0,3.54-2.31c1-1.33,1.88-2.07,2.75-2.19.52-.07,1,.32,1.36,1.17s.8,1.79,1.25,2.83.85,2.09,1.22,3.13a7.76,7.76,0,0,0,1.21,2.39c.55-.27,1.12-1.3,1.72-3.09s1.27-3.63,2.05-5.54,1.58-3.67,2.41-5.28,1.67-2.48,2.53-2.6a47.82,47.82,0,0,1-4,12,57.21,57.21,0,0,0-4.18,11.69c-1,4.34.27,6.28,3.63,5.83A26.74,26.74,0,0,1,619,693a36.21,36.21,0,0,0,1.88-6.26l-1.8-.06a8.53,8.53,0,0,1,1.78-4.6A9.07,9.07,0,0,1,623.5,680a15.11,15.11,0,0,0,2.24-1.35,2.9,2.9,0,0,0,1-2.53c.93.68,1.59.85,2,.49a2.88,2.88,0,0,1,2.11-.42c.18-1.42.37-2.86.56-4.28-.68,1.29-1.43,1.79-2.25,1.49a31.3,31.3,0,0,0,.9-3.88c.32-1.74.9-2.57,1.74-2.48a7.23,7.23,0,0,1,3.47.76,24.16,24.16,0,0,1,3.37,1.69l.52-.06a1,1,0,0,1,.56-.37c.19-.22.55-.67,1.07-1.34s1-1.22,1.36-1.67l.52-.06.22.27a17,17,0,0,0,.13,4c.17.68.43,1.06.77,1.12a5,5,0,0,0,1.28,0,4.48,4.48,0,0,1,2,.37c.17,0,.64.37,1.41,1.19s1.22,1.32,1.37,1.5a3.2,3.2,0,0,0,2.72-1.22,10.66,10.66,0,0,0,1.92-3.24c.49-1.26,1-2.57,1.49-3.94a16.34,16.34,0,0,1,1.38-3c1.41,1.85,2.82,3.71,4.25,5.56,1.11-.72,1.76-.38,1.95,1a11.23,11.23,0,0,1-1.44,1.36,4.74,4.74,0,0,0-1.18,1.34l.39,1.17a6.68,6.68,0,0,0,1.93.09c.61-.07.75.62.43,2.06l-1.58.18a2.33,2.33,0,0,1-.59,1.87c-.51.66-.34,1.15.49,1.46a4.65,4.65,0,0,1,2.1-1.44,10.72,10.72,0,0,1,2.3-.85l.53,0,.52-.06-3.6,4.62-3.62,4.62c0,.2-.05.4-.07.61a4.57,4.57,0,0,1,.17,2.09,7.91,7.91,0,0,0,.14,2.4l-2.92.32a9.24,9.24,0,0,0-.32,3.06,2.59,2.59,0,0,0,1.6,2.24q.6-.67,1.8-2.16a3.74,3.74,0,0,1,2.27-1.6l1.25.62a1.78,1.78,0,0,1,1,1q.61-4.89,1.26-9.8a4,4,0,0,1,3.28,1.17,18.65,18.65,0,0,1,2.58,3.06c.76,1.13,1.45,2.17,2.06,3.11s1.27,1.38,2,1.32l0-2.42a4.9,4.9,0,0,0,2.61-1.16,2.84,2.84,0,0,0,1.15-2.54,1.81,1.81,0,0,1-2.38.24,13.41,13.41,0,0,1-2.55-2.17,12.81,12.81,0,0,1-2.08-2.81,8.4,8.4,0,0,1-.94-2.32l3.39,0,.65-1.27A1.42,1.42,0,0,0,676,677a4.68,4.68,0,0,0-.35-1.78,5.67,5.67,0,0,0-.87-1.72l6.36-4a9.5,9.5,0,0,1-.58,2,6.68,6.68,0,0,1-.82,1.74l-.09.92c-.16,1.63.37,2.49,1.58,2.56a10.33,10.33,0,0,0,3.48-.94,4.14,4.14,0,0,0,2.12-3.23c0-.2,0-.41,0-.61s0-.61,0-1.21a2.28,2.28,0,0,0-.28-1.18c0-.51-.09-1-.12-1.51a2.59,2.59,0,0,1,2.52.82,6.78,6.78,0,0,1,1,2.18c.19.79.33,1.59.44,2.38a2.36,2.36,0,0,0,.89,1.74,6.6,6.6,0,0,0,3.58.88q1.57-.15,2.67,2.49a1.28,1.28,0,0,0-1.27,1,13,13,0,0,0-.26,1.54c-.08,1-.14,1.83-.2,2.44a2.41,2.41,0,0,0,.65,1.77c1.24-.32,2.48-1.43,3.69-3.36a23,23,0,0,0,2.5-5.07q3.6,4.24,3.37,10.94a120.34,120.34,0,0,0,.15,12.43,3.33,3.33,0,0,0,1.16,2.34q1,.83,2.16,1.65a17.57,17.57,0,0,1,2,1.66,3.19,3.19,0,0,1,.76,2.67,7.18,7.18,0,0,1-.2,1.08,8.69,8.69,0,0,1-.65,1.72,6.93,6.93,0,0,1-1,1.6,1.21,1.21,0,0,1-1.37.41c-.88-.33-1.49-1.25-1.83-2.74s-.58-2.53-.72-3.13c-.53,1.26-1.07,2.51-1.61,3.77l5.74,6.53c0,.2,0,.41,0,.61s0,.41,0,.61.07.3.26.29a10.54,10.54,0,0,1-2.75,4.76,14.89,14.89,0,0,1-3.75,3.33,12.61,12.61,0,0,0,2.7,2.22,2.36,2.36,0,0,1,1.33,2.63,2.21,2.21,0,0,1-.63,1.26,7.43,7.43,0,0,0-2.91-1.29,11.34,11.34,0,0,0-3.21-.66c0-.1,0-.2,0-.3-1.08-.11-1.87.75-2.36,2.62s-.93,2.91-1.31,3.14c-.19.21-.66.31-1.38.26a12.72,12.72,0,0,0-1.63,0,9.44,9.44,0,0,0-1.75,1.66c-.8.87-1.39,1.54-1.78,2l-.32.63a2.32,2.32,0,0,0,.42,1.79,4.31,4.31,0,0,1,.64,2.36,22.37,22.37,0,0,1-1.79,5.92c-.86,1.89-1.84,4-2.92,6.31-.88-.53-1.63-1-2.24-1.32a2.92,2.92,0,0,0-2.33-.1,2.65,2.65,0,0,0-2.9,1.92,45.78,45.78,0,0,0-1.31,4.66c-.41,1.76-.86,3.41-1.34,5a4.65,4.65,0,0,1-2.45,3.1q.83-7.19,1.66-14.38c.24-.82,0-1.06-.77-.68a5.67,5.67,0,0,1-1.7.61c-.2.22-.14.68.17,1.35a1.91,1.91,0,0,1,.15,1.65l-.91,1-10.77.75a7,7,0,0,0,2.79,2.74c1.4.88,2,1.93,1.67,3.17a10.22,10.22,0,0,0-4.57,2,3.9,3.9,0,0,0-1.52,5c-1.55-1.26-2-3.21-1.44-5.9,0-.31,0-.61.08-.91s0-.41.05-.61a12.25,12.25,0,0,0,2.26-.69c1.14-.41,1.88-.54,2.23-.37a19.35,19.35,0,0,0-2.68-.79c-1.44-.36-2.35-.41-2.74-.17l-.83.08c-1.46,0-2.23.44-2.32,1.45s-.19,2.14-.29,3.35a7.12,7.12,0,0,0,.79,5.21,7.66,7.66,0,0,1,1.11,4.87c-.11.21-.21.42-.33.63a6.74,6.74,0,0,1-3.15,1.24,8.7,8.7,0,0,1-3.35.35c-.53-.35-1.57-1.08-3.13-2.23a26.16,26.16,0,0,1-2.84-2.25c0,.61-.11,1.22-.16,1.83-.11,1.21-.25,2.7-.4,4.41s.31,2.73,1.4,3q-.74,5.21-1.46,10.42c-3.37.17-4.88-.57-4.55-2.21s.72-3.9,1.16-6.77a6.3,6.3,0,0,0-2,1c-1,.62-1.65.84-2,.68a7.57,7.57,0,0,1-.2-2.39,8.13,8.13,0,0,0-.19-2.39,1.13,1.13,0,0,0,0-1.2,7.21,7.21,0,0,0-.61-.83c1.78.6,3,.36,3.52-.71a9.21,9.21,0,0,0,1-3.43q-3.9.29-7.78.6a16.33,16.33,0,0,0-.54,2.77,12.12,12.12,0,0,0-.52,2.47,8.36,8.36,0,0,1-.48,2.17c-.11,1.12-.22,2.24-.32,3.36a5.58,5.58,0,0,0,.75,3.83,9.11,9.11,0,0,0,2.56,2.41c1.05.68,2.1,1.41,3.14,2.2a14.65,14.65,0,0,1,2.82,2.85,9.71,9.71,0,0,1,4.64-2,2.08,2.08,0,0,1,1.81,1.77,19.27,19.27,0,0,1,.56,3.41l7.61-.49c.38,0,.94.56,1.69,1.79a11.57,11.57,0,0,1,1.34,2.74c0,.6-.29,1.94-.73,4a35.1,35.1,0,0,1-1,4l1.7-.17a40.5,40.5,0,0,1,1.43-4.07,17.36,17.36,0,0,1,3.14-4.23c.18,0,.3.17.38.57a1.07,1.07,0,0,1-.21.92l0,.31c0,.2,0,.4,0,.6s-.1.72-.25,1.54a7.83,7.83,0,0,1-.56,1.87l-.33.64a3.94,3.94,0,0,0,1.17,3.36c.89.82,1.91,1.68,3.08,2.58a17.27,17.27,0,0,1,3.06,3,6,6,0,0,1,.82,4.76,2.62,2.62,0,0,1-.27,2,3.37,3.37,0,0,0-.56,2,8.22,8.22,0,0,0,3-1.78,4.61,4.61,0,0,1,3.5-1.22l.55.25.29,0a4.85,4.85,0,0,1,.61,1.61,14.69,14.69,0,0,0,.6,1.92c0,.6.25.58.86-.08a.91.91,0,0,0,.59-.35c0-2.82,0-4.74.07-5.76s1.41-1.43,4.06-1.25a1.49,1.49,0,0,1,1.29-.1,3.16,3.16,0,0,0,1.27.2,3.1,3.1,0,0,0,.61,1.92,10.22,10.22,0,0,0,1.19,1.57c.88-2.09,2.17-3,3.87-2.73-.23,4.06-.17,6.53.16,7.41a1.56,1.56,0,0,0,1.95,1.06c1-.17,2.17-.36,3.61-.57s3.17.63,5.19,2.51c.08.19.17.39.25.59l-.31.63c0,.2-.17.36-.46.48a2.17,2.17,0,0,0-.74.51,7.35,7.35,0,0,1,2.89-.35,5.76,5.76,0,0,1,2.57.28c.2,0,.38.18.55.57a2.37,2.37,0,0,1,.25.89l.87-.05c.95.14,1.41-.5,1.38-1.91s.53-2.06,1.67-1.94l1.15-.07a6,6,0,0,0-.77,1.27,3,3,0,0,1-1.07,1.28,7.63,7.63,0,0,1,.68.87c.27.39.5.47.71.25a3.94,3.94,0,0,1,.89-.66l1.18-.68a5.12,5.12,0,0,1,4,1.12c1.49,1,2.21,2.15,2.17,3.37a27.18,27.18,0,0,1-5-.16c-1.62-.21-3.49-.33-5.6-.4,0,.3,0,.61,0,.91a9.62,9.62,0,0,1,4.34,2.91c1,1.26,1.92,2.52,2.74,3.79a43.49,43.49,0,0,0,2.6,3.64,9.61,9.61,0,0,0,4,2.82,9.42,9.42,0,0,0,3-4.12,15,15,0,0,0,1.05-4.92,1.08,1.08,0,0,0-.68-1.18c-.48-.17-.6-.78-.37-1.8,1.55-.09,2.49.28,2.85,1.06q.24,1.51.52,5.91c.18,2.93.27,4.8.24,5.61l-.33.93c0,.2,0,.41,0,.61a4.14,4.14,0,0,1-2,1.93c-.69.23-1.26,1.18-1.7,2.82a51.9,51.9,0,0,0-.91,5.22c-.39,2.65-.59,4.38-.62,5.2l-.59,0-.87,0a5.35,5.35,0,0,1-1.59-.52c-.87-.36-1.49-.63-1.87-.81a1.48,1.48,0,0,0-1,.52c-.3.32-.28.67.1,1l1.92,3.54-.69,11.59c0,.2-.51.52-1.5,1a4.5,4.5,0,0,1-2.82.76,6,6,0,0,0-3.12.79c0,.71-.05,1.42-.07,2.13a5.1,5.1,0,0,1-1.6-.67c-.86-.45-1.82-1-2.88-1.5a28.17,28.17,0,0,1-3-1.78c-1-.65-1.71-1.16-2.28-1.52-1-1-1.26-1.65-1-2.06S700.25,886.33,699.28,886.2ZM574.32,722a7.45,7.45,0,0,0,.11,2.68c.2,1,.76,1.28,1.69.94.21-1.44.43-2.87.65-4.3Zm-1.62,27a1.85,1.85,0,0,0,.51,2l.57-2.19ZM559.11,881.36c-.3,1-.17,1.68.38,1.89a8.49,8.49,0,0,0,1.66.49l.59-.09a3.91,3.91,0,0,0,1.18-1.83,6.83,6.83,0,0,1,.89-1.79c0-.2,0-.41.05-.61.17-1.63-.53-2.32-2.07-2.08a1.91,1.91,0,0,0-2,1.36A10.07,10.07,0,0,0,559.11,881.36Zm25.95-182c-.33-.15-.53.08-.63.7s0,.9.39.84a1.88,1.88,0,0,0,.4-1C585.29,699.55,585.23,699.35,585.06,699.38ZM573,795.16a4.34,4.34,0,0,0,.49,3.83,3,3,0,0,0,3,1C576.87,797,575.7,795.35,573,795.16ZM565.9,870.4c-.38.06-.61.45-.68,1.16s.08,1,.47,1a1.16,1.16,0,0,0,1-1.2C566.73,870.62,566.48,870.32,565.9,870.4Zm19.91-144.72,2.46-.67c.2-.83.41-1.66.61-2.49l-2.45.66C586.22,724,586,724.84,585.81,725.68Zm-3.16,24.49L584,750c0-.41.11-.81.16-1.22l-1.36.2C582.76,749.35,582.7,749.76,582.65,750.17Zm-12.37,122c-.57.08-.95.55-1.13,1.37s0,1.19.61,1.11c.38-.06.66-.5.84-1.33S570.67,872.08,570.28,872.14Zm6.37-66.42,2.78-2.52-2.21,0Zm7.41-44.05a10.44,10.44,0,0,0,0,2,14.78,14.78,0,0,1,.06,1.64l.78.18.59-.38a12.71,12.71,0,0,1-.08-2.54,1.82,1.82,0,0,0-1.2-2.08c0,.21-.06.41-.08.62S584.08,761.46,584.06,761.67Zm10.33-71.19c.06-.41,0-.09-.27.94s-.18,1.43.2,1.17c.06-.41.12-.82.19-1.23A1.17,1.17,0,0,0,594.39,690.48Zm-8.68,66.74c-.12-.39-.32-.25-.58.38s-.3.84-.09.62a4.65,4.65,0,0,0,.91-.74C586.15,757.26,586.08,757.17,585.71,757.22Zm-4.89,34.36a1.87,1.87,0,0,0,1.14,1.93c.08-.71.17-1.42.25-2.14Zm10.07-70.26a1.39,1.39,0,0,0,1.41,1.14,10.71,10.71,0,0,0,1.59-.08l.21-1.53Zm4.42-14.46a3,3,0,0,0,.27,1.76,1.09,1.09,0,0,0,1.19.73c.23-.93.44-1.87.67-2.8Zm4-14.69c-.32-.15-.52,0-.59.54s.05.73.41.69a1.29,1.29,0,0,0,.64-.85C599.77,692.25,599.62,692.11,599.27,692.17Zm-1.91,20.4a1.67,1.67,0,0,0,.59,2.32,3.18,3.18,0,0,0,2.37.86,8.21,8.21,0,0,0,1.75-1.3c1-.84,2-1.79,3.13-2.84a39,39,0,0,0,3.06-3.28,6.18,6.18,0,0,0,1.53-2.62A1.47,1.47,0,0,0,609,704a15.24,15.24,0,0,1-2.43,1.54c-1,.55-2.17,1.2-3.4,2a36.77,36.77,0,0,0-3.47,2.44A8.76,8.76,0,0,0,597.36,712.57Zm5.19-18.17,1.05-.15c.23-1.53.45-3.07.67-4.6l-1,.15C603,691.33,602.77,692.86,602.55,694.4Zm8.65,14.43a2.11,2.11,0,0,0,1.34-1.24c.15-.52.38-1.2.67-2a13,13,0,0,0,.07-1.52c0-.59-.45-.94-1.3-1Zm13.61-22.27a2.87,2.87,0,0,0-.52,2,1.24,1.24,0,0,0,1.13,1.21,3.13,3.13,0,0,0,1.41-1.84,6.68,6.68,0,0,1,.91-2.07Zm-3.69,92.9c.12.59.62,1,1.52,1.32.23-.53.47-1.06.71-1.59Zm13.77-108.94c-.5-.14-.85.21-1,1s0,1.32.46,1.45c.34,0,.61-.48.81-1.3S635.23,670.47,634.89,670.52Zm.53,9.87c-.28.84.1,1.9,1.15,3.17l.94-1.32A3.27,3.27,0,0,0,635.42,680.39Zm2.08-6.28a4.46,4.46,0,0,1,0,1.8c-.1.82.18,1.29.86,1.4.41-1.25.83-2.51,1.24-3.77ZM625.07,795.24c.13-.42.27-.84.4-1.25l-1.12.14Zm1.8-21c-.16-.18-.27-.08-.31.33s0,.6.22.58c.39-.25.6-.47.62-.68S627.24,774.19,626.87,774.24Zm-.11,9.35c-.35-.16-.55,0-.59.37s.13.59.5.54c.39-.24.6-.46.62-.67S627.14,783.54,626.76,783.59ZM637.59,688a2.48,2.48,0,0,0,.41.85c.13.38.26.77.38,1.16l.53-.07.23.28c.21-2.44.41-4.88.63-7.31a9.48,9.48,0,0,0-1.36,2.58A13.2,13.2,0,0,0,637.59,688ZM632,777.53c-.56.07-1,.47-1.22,1.2s-.1,1.07.45,1c.37,0,.69-.44.94-1.17S632.41,777.49,632,777.53Zm1.07,21c-.54-.13-.85.2-.93,1s.16,1.3.71,1.43c.56-.07.88-.51,1-1.32S633.67,798.44,633.11,798.51Zm5-27.42c-.17-.18-.32,0-.48.66a13.48,13.48,0,0,0-.31,1.85c-.06.61-.11,1.17-.16,1.67s0,.65.24.43c.38-.24.64-1,.75-2.2A6.68,6.68,0,0,0,638.16,771.09Zm11.3-95.71c-.33-.15-.5.21-.52,1.12s.13,1.45.46,1.61a1.79,1.79,0,0,0,.85-1.76C650.26,675.44,650,675.12,649.46,675.38Zm-.28,9.09c-.16,1.42-.34,2.95-.53,4.58s.7,2.24,2.67,1.8c0-.2.09-.8.21-1.83s.19-2.08.22-3.19a7.55,7.55,0,0,0-.44-3,2.94,2.94,0,0,0-1.74-1.76,4.06,4.06,0,0,1,.06,1.65A5,5,0,0,1,649.18,684.47Zm-7.66,85.94a12.34,12.34,0,0,0-.51,2.47,1.52,1.52,0,0,0,1.22,1.67.33.33,0,0,1,.31-.33,5.67,5.67,0,0,0,1.5-2.89c.41-1.44,1.08-2.23,2-2.33l.52.24A6.16,6.16,0,0,1,648,770.6a7.47,7.47,0,0,1,.48.85c.07.2.25.28.52.25l1.81-.2a6.7,6.7,0,0,0-.78-5q-1.34-2-4.63-1.91c-.37,0-1.08.83-2.14,2.35A8.66,8.66,0,0,0,641.52,770.41ZM654.82,676a2.1,2.1,0,0,0-2.19,1,21.46,21.46,0,0,0-1.42,3.33,2.6,2.6,0,0,0,2.62-1.36A8,8,0,0,0,654.82,676ZM640,806.18l1.2-1-1-1.4C640.11,804.56,640,805.37,640,806.18Zm2.43-12,1.23-1.34-1.12.12C642.48,793.33,642.44,793.74,642.41,794.14Zm15.3-125.43c-.33-.16-.56,0-.7.53s0,.76.3.72a1.88,1.88,0,0,0,.74-.84C658.17,668.81,658.05,668.67,657.71,668.71Zm0,33.2c.4-.44.33-.64-.21-.58s-.82.29-.86.7a.68.68,0,0,0,.63.23C657.58,702.23,657.72,702.11,657.75,701.91ZM646.67,813.6l1.11.18c.09-1.11.17-2.23.26-3.34l-1.11-.19C646.84,811.36,646.75,812.49,646.67,813.6Zm.16,35.6c.41-.44.42-.65,0-.61a1.16,1.16,0,0,0-.91.7c0,.41.06.6.25.58S646.6,849.62,646.83,849.2Zm1.68,4.66c-.37-.16-.58.11-.63.82s.11,1.14.49,1.3c.58-.05.89-.44.94-1.15S649.09,853.8,648.51,853.86Zm3.6-41.43.85-.09c0-.4.06-.81.1-1.22l-.86.09Zm-.33,11.81c.13-.51.26-1,.4-1.55l-.86.09C651.47,823.27,651.62,823.75,651.78,824.24Zm6.84-63.83.21-2.44-1.76,1.39Zm-3,62.24c-.19,0-.35.24-.47.65s-.11.72.07.9a1.77,1.77,0,0,0,.78-1C656.08,822.8,656,822.61,655.58,822.65ZM670.42,691.2a2.55,2.55,0,0,0-1.82,1.09q-.75,1-1.35,1.65l2.87.31C670.21,693.23,670.32,692.22,670.42,691.2ZM656.61,853.05c-.37-.16-.57,0-.6.36s.15.59.54.56.59-.16.6-.36S657,853.22,656.61,853.05ZM665.47,754c0-.3,0-.61.08-.91l-1.08-.2Zm10-57.84c-.34-.17-.5.16-.49,1s.18,1.3.52,1.46c.54,0,.79-.47.78-1.28S676,696.07,675.48,696.13ZM675,747.6c-.89-.31-1.51.25-1.91,1.69a17.91,17.91,0,0,1-1.24,3.45l4.69-.44a7.21,7.21,0,0,0,.11-3C676.49,747.87,675.94,747.31,675,747.6ZM665.7,859.76l1.16-.1.06-.92-1.17.11C665.73,859.16,665.72,859.45,665.7,859.76ZM683,686a2,2,0,0,0-.67,1.58c-.07.82.17,1.1.71.84a1,1,0,0,0,1-1.16A1.21,1.21,0,0,0,683,686ZM672.43,858.26c-.6.46-.92.88-.94,1.29a6,6,0,0,1-.38,1.55,2,2,0,0,0-.36,1.24,4.26,4.26,0,0,0,1.92-3.19c-.09-.2-.17-.39-.26-.58S672.43,858.36,672.43,858.26Zm12.14-166.34-1.47,4.68a.62.62,0,0,1,.5.25c.36,0,.93-.54,1.72-1.52a5,5,0,0,0,1.24-2.09,2.32,2.32,0,0,0-.18-.89.69.69,0,0,0-.75-.53l-.5-.26Zm3.82-16.41a.93.93,0,0,0-.87,1,1,1,0,0,0,.68,1.15c.51.15.79-.13.86-.84S688.9,675.66,688.39,675.51Zm-.52,5.8a3.46,3.46,0,0,1,2.62,1.57,7.87,7.87,0,0,1,.7,2.51c.1.9.16,1.76.18,2.56a1.77,1.77,0,0,0,1.31,1.7l1.82-2.89q-.46-3.9-.92-7.79l-.27,0c-.17,0-.25,0-.25-.13s-.07-.15-.25-.13l-.5-.25c-.37.23-1.15.66-2.34,1.27A5.08,5.08,0,0,0,687.87,681.31Zm-5.18,69.52a5.68,5.68,0,0,0,.28,1.79,16.44,16.44,0,0,0,.55,1.77,1.41,1.41,0,0,0,1-.7q.47-.65.21-.93a8.44,8.44,0,0,0-.38-2.23,2.86,2.86,0,0,0-1.76-2.12c0,.21,0,.41-.05.61a.58.58,0,0,0,.11.45.64.64,0,0,1,.1.44C682.74,750.22,682.71,750.52,682.69,750.83Zm4.74-49.19.54,0a.88.88,0,0,0,.56-.35,3,3,0,0,1,1.4-.89,10.7,10.7,0,0,1,1.09-.25,5.42,5.42,0,0,0-1.12-1,1.06,1.06,0,0,0-1.19,0l-.27,0-.53,0Zm4.36-1.3c-.34-.18-.59.16-.74,1s-.07,1.32.28,1.49a2,2,0,0,0,1.06-1.61C692.54,700.38,692.35,700.08,691.79,700.34Zm-11.2,162.08a3.19,3.19,0,0,0,2.46,2.84c.05-.91.09-1.83.14-2.74Zm12-168.21,1.09-.4-.89-2C692.7,692.58,692.63,693.4,692.56,694.21Zm-.07,27.88c0,.21.22.59.72,1.15l.52.26.27,0-1.72-2.28c.08.19.15.39.23.59S692.49,722,692.49,722.09Zm-.22,10a16.1,16.1,0,0,0,0,2,1.8,1.8,0,0,0,1.11,1.58l.57-.36c0-.2.4-.53,1.16-1a2.58,2.58,0,0,1,1.11-.4l.78-7a8,8,0,0,1-3,2.23C693,729.48,692.39,730.49,692.27,732.11Zm3.44-30.91a6.22,6.22,0,0,0,.37,3.76,2.64,2.64,0,0,0,2.94,1.72c.09.09.17.19.25.28-.24-1.59-.42-3.25-.56-5s-.33-3.25-.57-4.65l-.51-.26c-.9.08-1.38.63-1.46,1.65A9.46,9.46,0,0,1,695.71,701.2ZM684.86,869.66l1.17-.09.36-1.54-1.16.09C685.1,868.63,685,869.15,684.86,869.66Zm.59,5.71,1.23-1.31-1.17.09Zm12.11-184c1.42-.12,2.33,0,2.73.52a2.13,2.13,0,0,1,.54,1.63,7.84,7.84,0,0,0,.11,2,2.82,2.82,0,0,0,1.46,1.84q.66-5.35,1.34-10.72a21.2,21.2,0,0,0-3.92,1.24C698.63,688.32,697.88,689.49,697.56,691.34Zm5.52-9.88c0-.4-.17-.58-.61-.55s-.59.25-.44.64.35.58.61.56S703.05,681.87,703.08,681.46Zm-3.55,44,1.88.15.18-2.44-2.16-.13C699.47,723.83,699.5,724.63,699.53,725.44Zm3-18.75c.2-.42.09-.66-.35-.73s-.67.1-.71.51.13.65.49.72S702.47,707.1,702.5,706.69Zm-7.32,166.15c-.57-.17-1,.17-1.21,1s-.06,1.32.52,1.48c.59,0,1-.47,1.22-1.3S695.77,872.8,695.18,872.84Zm8.21-156.21q-.48,3.07,3.27,3.38c.18-2.64-.59-4.4-2.33-5.28-.17,0-.37.18-.57.5a6.57,6.57,0,0,1-.59.81C703.24,716.24,703.32,716.43,703.39,716.63ZM707.09,889c-.59,0-1,.41-1.07,1.13s.1,1.16.68,1.32c.59,0,.95-.51,1.08-1.43S707.68,888.81,707.09,889ZM708.17,862l2.62-.16c-.18-.39-.44-.94-.8-1.62s-.83-.91-1.43-.67l-.59.34C708,860.56,708.1,861.26,708.17,862Zm5.13-11.85c.21-.42.12-.62-.26-.59a.59.59,0,0,0-.61.64c.18.4.36.58.56.57S713.28,850.52,713.3,850.11Zm1.13,30.61,1.18-.07-1.13-1.15C714.46,879.9,714.45,880.31,714.43,880.72Zm6.65-14.05c-.39,0-.65.44-.78,1.26s0,1.22.4,1.2a1.86,1.86,0,0,0,1.08-1.58C721.9,866.73,721.67,866.43,721.08,866.67Zm.85.57a1.33,1.33,0,0,0-.78,1.56c.07.8.39,1.09,1,.86a1,1,0,0,0,1.06-1.28A1.08,1.08,0,0,0,721.93,867.24Z"/><path class="cls-1" d="M877.92,869.9a4.43,4.43,0,0,1,.53-2.46A4.5,4.5,0,0,0,879,865a6.87,6.87,0,0,0-.64-2.83,7.56,7.56,0,0,1-.65-3.13l2.32.1a20.16,20.16,0,0,0,1,4.71q.94,3.15,3.28,3.26l.58,0a35.76,35.76,0,0,0-2.5-7.58c-1.23-2.75-3.2-4.19-5.9-4.3a8.21,8.21,0,0,0-3.47,1.1,3.51,3.51,0,0,0-2.25,3.33,4.62,4.62,0,0,0,1.8,3.17,5.13,5.13,0,0,1,1.82,3.8l0,1.25a11.93,11.93,0,0,0-6.77-3.22,61.42,61.42,0,0,0-7.29-.72c0,.21,0,.42,0,.62l4.71,2.95a12.5,12.5,0,0,1-1.27,2.59,2.36,2.36,0,0,1-2.18,1,27.51,27.51,0,0,1-4.39-.61c-1.75-.37-2.64-1.17-2.66-2.41a5.33,5.33,0,0,1,.55-2.61,5.29,5.29,0,0,0,.55-2.62,8.64,8.64,0,0,0-.63-3.26,2.38,2.38,0,0,0-2.34-1.46l-2,0a4.64,4.64,0,0,1-1.15.89l-1.16.59c-1,0-2.2-.82-3.66-2.4s-2.21-2.68-2.22-3.29V853a12.83,12.83,0,0,1,.41-2.46,15.27,15.27,0,0,1,.7-2.46,11,11,0,0,1-4.06-.23,15.4,15.4,0,0,1-4.36-1.14c-.39-.22-1-1.2-1.76-3a14.84,14.84,0,0,0-1.75-3.26,14.34,14.34,0,0,0-1.6-1.25,21.5,21.5,0,0,0-1.88-1.25,4.63,4.63,0,0,1-.88-2.32c-.19-1.13-.77-1.69-1.73-1.71-.2,0-.29.06-.29.16s-.1.15-.29.15h-.29c-.77,0-1.15.4-1.15,1.22l0,12.32.58.62c.19.21.38.42.58.62v.31a.93.93,0,0,0,.29.62.91.91,0,0,1-.29.61,2.39,2.39,0,0,0-1,.46,2.54,2.54,0,0,1-1.31.45l1.17,1.24h-2.33a25.31,25.31,0,0,1-2.76-.63,18.83,18.83,0,0,0-3.05-.63h-.87c-1.17,0-1.75.86-1.75,2.61s0,2.92,0,3.54c-1.56,0-2.33.71-2.34,2.15,0,.1,0,.2,0,.3a5.47,5.47,0,0,0,1.31,1.54c.68.62,1.12,1,1.31,1.24a3.36,3.36,0,0,1-1.17.61,4.67,4.67,0,0,1-1.46.3,2.29,2.29,0,0,1-1-.46,2.47,2.47,0,0,0-1.31-.46c-1.75-.83-3.54-1.64-5.38-2.45a14.35,14.35,0,0,0-6-1.19l-2.92,0a39.75,39.75,0,0,0-3.94.66c-2.24.42-3.65.55-4.23.36a5.93,5.93,0,0,1-1.73-1.05c-1-.7-1.44-1.15-1.44-1.35a17.65,17.65,0,0,0-2,.19c-1,.12-1.46.07-1.46-.13-.19,0-.48-.36-.85-1.06a4.12,4.12,0,0,1-.57-1.36q-2.28-3.31-4.6-3.11a25,25,0,0,1-5.8-.32c-1.36-.16-2-1.17-1.83-3a4.84,4.84,0,0,0-1.5-4.24,2.51,2.51,0,0,1-1.15-.57,2.87,2.87,0,0,0-1.14-.58L761,843c2.12-.06,3.34-.56,3.65-1.49a13.5,13.5,0,0,0,.52-3.83l-1.16,0a.88.88,0,0,0-.58.33l-.6.63-.86,0h-.29a16.31,16.31,0,0,1-.65-3.34c-.24-1.82-1-2.71-2.38-2.66a2.6,2.6,0,0,0-1.89.83,3,3,0,0,1-2.19.84l-1.15,0-.54-1.5a2.74,2.74,0,0,1-.25-1.21l-3.35-3.53c-.19,0-.29-.09-.28-.29s0-.41,0-.61l.3-.63c.3-.31.59-.63.89-.95,0-.4.08-1.17.21-2.29s.2-1.88.21-2.3a25.29,25.29,0,0,0-3.28-13.89c.37.19,1.14,0,2.29-.41a20.48,20.48,0,0,0,2.31-1,7.34,7.34,0,0,0,.78-2.17c.32-1.23.58-2.26.8-3.08,0-.1,0-.2,0-.31a1.61,1.61,0,0,0-.8-1.64,3.46,3.46,0,0,0-1.69-.39,2.62,2.62,0,0,0-2.76,2,8,8,0,0,1-2,3.44,7.54,7.54,0,0,0-.09-1.37,7.55,7.55,0,0,1-.1-1.37,18,18,0,0,1,.21-1.84,2.52,2.52,0,0,1,1.33-1.89c-1.49-.53-2.38-2-2.67-4.44a36.42,36.42,0,0,1-.38-5.17c0-.2.07-.81.21-1.84s.26-2.2.41-3.52.33-2.66.56-4a24.16,24.16,0,0,0,.4-3.22,98.46,98.46,0,0,1,2.41-12.32q1.62-6.18,3.23-12.36,1-5.24,2.08-11.39a33,33,0,0,1,4-11.18.8.8,0,0,1,.8.42,4.73,4.73,0,0,0,.52.74c0,.2,0,.4,0,.61s0,.4,0,.61a10,10,0,0,0-.87,1.26,3.66,3.66,0,0,0-.59,1.25c0,.82.41,1.2,1.33,1.16a36.57,36.57,0,0,1,2.83-2.57c1.5-1.29,2.44-2.15,2.82-2.57a21.46,21.46,0,0,1,1.16-2,15.49,15.49,0,0,1,1.14-1.73l.55,0c.18,0,.27-.07.28-.17s.09-.16.27-.16c.73,0,1.61,1,2.65,2.94a13.54,13.54,0,0,1,1.54,3.61,11,11,0,0,1-1.19,3.41,12.46,12.46,0,0,0-1.24,4.95c-.05,2,.61,3,2,2.82a4.31,4.31,0,0,1,3.43,1l1.61,1.78a9.35,9.35,0,0,0,1.9,1.77l4.15-.14.54.6a1,1,0,0,0,.83.28c0,.21.44.66,1.36,1.34a16.29,16.29,0,0,1,1.63,1.33,6.31,6.31,0,0,1,2,3.63,22.92,22.92,0,0,1,.35,4.43c0,1.55,0,3.12-.07,4.76a10,10,0,0,0,.77,4.27c.18.41.83.85,1.94,1.33s1.67.84,1.67,1l0,2.46c0,1-.08,2.14-.19,3.37a4.63,4.63,0,0,1-1,2.78c0,.21-.43.47-1.28.8s-1.27.59-1.27.79l0,1.84a35.13,35.13,0,0,0,.47,6.43,35.18,35.18,0,0,1,.48,6.43c0,.41,0,.82,0,1.23a11.13,11.13,0,0,1-.61,3.07c-.2.62-.39,1.24-.59,1.86,0,.4-.67.52-2,.34s-2.08-.26-2.27-.26c-1.53.65-2.35,1.55-2.46,2.66s-.18,2.3-.2,3.53a14.32,14.32,0,0,0,.36,4.28c.27.82,1.26,1.51,3,2.08q-.1,6.9-.19,13.79c1.14.4,1.61.94,1.41,1.66a8.07,8.07,0,0,0-.31,2,6.46,6.46,0,0,0,2-.34c.58-.21,1,.29,1.42,1.51a11.18,11.18,0,0,0-1,1.7c-.49.93-.84,1.6-1,2,0,.21,0,.41,0,.61a.86.86,0,0,0,.28.61,4.07,4.07,0,0,0,3.2-1.42,34.69,34.69,0,0,0,2.19-2.95,23,23,0,0,1,2.34-2.94,4.77,4.77,0,0,1,3.61-1.42,4,4,0,0,1,2.44,1,3.27,3.27,0,0,1,1.28,2.61l-3.75,0c0,.2,0,.4,0,.61a24.2,24.2,0,0,1,3.46.43,23.39,23.39,0,0,0,3.46.44,3.45,3.45,0,0,0,1.3-.77,3.61,3.61,0,0,1,1.3-.77h.87a7.54,7.54,0,0,1,.3-3.38,7.76,7.76,0,0,1,1.16-3.08,3.1,3.1,0,0,1,1.58-.46,5.74,5.74,0,0,0,1.87-.47c.2-.2.38-.41.58-.61l.57-.62a9.64,9.64,0,0,1,2.44-1.54,10.67,10.67,0,0,0,2.16-1.23,16.43,16.43,0,0,0,2.43-.3,9.11,9.11,0,0,0,2.44-.6c.19-.2.71-.82,1.57-1.84a8.71,8.71,0,0,1,1.86-1.84,5.19,5.19,0,0,1,1-.76,6.18,6.18,0,0,0,1-.77,29.37,29.37,0,0,0,2.85-2.75c1.13-1.22,2.22-2.45,3.25-3.67s2-2.3,2.83-3.21,1.36-1.38,1.55-1.38a29.57,29.57,0,0,0,1.79-5.22c.83-2.88,1.41-4.93,1.78-6.16,0-.41,0-1.5.1-3.24s.14-3.6.21-5.56.14-3.76.22-5.41.1-2.78.1-3.4a13,13,0,0,1,2.29-6.46,11.07,11.07,0,0,0,2-6.48c0-.3,0-.62,0-.92a.8.8,0,0,1-.56-.32l-.57-.62q-.06-4.19-.13-8.35c0-2.58-.08-5.16-.11-7.73a12.74,12.74,0,0,1,1-3.24c.7-1.74,1.51-3.59,2.39-5.55s1.67-3.7,2.38-5.24,1.23-2.31,1.6-2.31a10.48,10.48,0,0,1,2.48.49,12,12,0,0,1,2.21.8,6.53,6.53,0,0,0,1,1.87,18.44,18.44,0,0,0,1.28,1.88c.58,1,1.14,1.56,1.69,1.57l3,0a4.65,4.65,0,0,0,2.6-.57,6.55,6.55,0,0,0,1.48-1.22,8.53,8.53,0,0,1,1.34-1.21,3.33,3.33,0,0,1,2.17-.58q0,.63.06,1.86a4.65,4.65,0,0,1-.22,1.86,9.93,9.93,0,0,1-1,2.31,10.48,10.48,0,0,0-1,2.3q.12,3.89.22,7.77l-1.08.9c0,.21,0,.42,0,.63s0,.62,0,.93c.19,0,.8.53,1.85,1.59a6.89,6.89,0,0,1,1.58,1.9c.2.62.65,1.72,1.35,3.29a11.11,11.11,0,0,1,1.07,3.29l2,.06a36.18,36.18,0,0,0-.54-3.9c-.34-2-.51-3.17-.52-3.59l1-2.46c0-.51,0-1-.05-1.55l0-.94a8.6,8.6,0,0,0-.91-2.5,11.32,11.32,0,0,0-1.46-2.52l.55-.3h.55c.73,0,1.1.14,1.11.34a5.44,5.44,0,0,1,1.44,1.75,5.13,5.13,0,0,1,.89,2q.31,9.33.6,18.67a5.85,5.85,0,0,0,1.2,2.67c.78,1.17,1.62,2.44,2.5,3.82s1.72,2.65,2.51,3.82a8.67,8.67,0,0,1,1.19,2.06,1.66,1.66,0,0,1-.93,1.52,11.13,11.13,0,0,0-3.81,3.91A7.83,7.83,0,0,0,885,786a16.2,16.2,0,0,0,.7,4.22c.41,1.36,1.57,2.08,3.45,2.15.07,1.87-.29,2.84-1,2.91a9,9,0,0,1-2.41-.09,3.78,3.78,0,0,0-2.39.38q-1.12.59-1.32,3.69.18,6.21.34,12.44a4.42,4.42,0,0,1-4.49,2.63,8.43,8.43,0,0,1-1.44-.2c-.57-.13-.87-.6-.89-1.43l.54-1.22c.19-.41.36-.82.54-1.23.38-.4.74-.8,1.11-1.2l0-1.25-6.84-.21a55.1,55.1,0,0,0,.41,5.75,5.77,5.77,0,0,0,3.25,4.29c0,.83-.36,1.23-1.12,1.21a6.74,6.74,0,0,1-1.87-.53c-.87-.34-1.31-.61-1.31-.82a2.53,2.53,0,0,0-.53,1.85c0,1.65.67,2.4,1.91,2.23s1.87.37,1.9,1.61c0,.31,0,.62,0,.94s-.38.39-1.14.58-1.14.38-1.13.58c-.19.21-.13.52.16.94a2.24,2.24,0,0,1,.46,1.25,4.36,4.36,0,0,0,2.43-.53,4.42,4.42,0,0,1,2.43-.54H877l2.43,5.38a4.26,4.26,0,0,1,1.84-1,6.75,6.75,0,0,1,1.57-.4l3,.12,5.33.24c1.91.08,3.63.17,5.17.25l2.88.14c.18,0,.9-.05,2.14-.2s2.58-.33,4-.56,2.75-.43,4-.56a18.27,18.27,0,0,1,2.43-.17,2.09,2.09,0,0,0,.71-.12,3.35,3.35,0,0,1,1-.1c.57,0,1.27,1,2.11,3a13.57,13.57,0,0,1,1.31,4.14l0,.94c-.38,0-1,.51-1.8,1.61s-1.33,1.74-1.51,1.93a2.69,2.69,0,0,0,.32,1,7.78,7.78,0,0,0,.92,1.62,15.15,15.15,0,0,1,1.22,2,15.49,15.49,0,0,0,1.23,2c0,.42,0,.84,0,1.25a21.71,21.71,0,0,1-.16,3.43c-.15,1.25-.71,1.83-1.67,1.77a2.68,2.68,0,0,1-2.36-1.24,24.35,24.35,0,0,1-1.08-2.26c-.32-.75-.68-1.5-1.09-2.25a2.62,2.62,0,0,0-2.35-1.24,7.37,7.37,0,0,0-2.88.3,7.06,7.06,0,0,0-2.54,1.88,10,10,0,0,1-.37,1.85,15.33,15.33,0,0,1-.66,2.15c0,.21.08,1,.22,2.35s.11,2.14-.08,2.34a26.15,26.15,0,0,1-2.8,3.27c-1.51,1.57-2.45,2.56-2.82,3s-1.3.18-2.78-.62a10,10,0,0,0-2.79-1.24,12.25,12.25,0,0,0,.53,3.61,14.11,14.11,0,0,1,.54,3.92c0,1.87-.33,2.79-1.1,2.74a8.09,8.09,0,0,0-3.48,1.07c-.19.19-.62.59-1.28,1.17s-1.1,1-1.29,1.18l-.58.29c-.19-.12-.39-.23-.59-.34a1.16,1.16,0,0,0-1.19-1.31,9.74,9.74,0,0,0-3.4-1.55C878.41,872.77,878,871.76,877.92,869.9ZM750.4,783c0,1,.37,1.61,1.21,1.77A9.93,9.93,0,0,0,754,785c0-1.44.09-2.86.14-4.28a10.41,10.41,0,0,0-2.4.41A1.8,1.8,0,0,0,750.4,783Zm-.1,11.6c1.13-.06,2.26-.1,3.4-.15,0-.82,0-1.63.07-2.45l-3.39.15C750.35,793,750.32,793.78,750.3,794.6ZM753.88,817c.2-.41.06-.61-.41-.59s-.63.24-.45.63C753.58,817.65,753.87,817.63,753.88,817Zm-.27,9.47a1.86,1.86,0,0,0,.41.9c.28.4.51.59.7.59a10.77,10.77,0,0,0,1.51-2.66c.61-1.35,1-2.22,1.22-2.64l0-1.22a3.47,3.47,0,0,0-2.63,1.78A6.11,6.11,0,0,0,753.61,826.49Zm3.63-37.07c.15,1,.85,1.49,2.08,1.44l2.4-.09c.76,0,1.94-.12,3.54-.29a2.46,2.46,0,0,0,2.47-2.68c-3.11.11-6.21.22-9.32.35Zm-.43,15,1.14,0,0-1.22Zm4.33-32.54c-.2.22-.34.32-.43.33s-.24.11-.43.32a.94.94,0,0,0-.3.62,13.21,13.21,0,0,0-.65,2.93c-.24,1.53-.36,2.51-.37,2.92,1.69-.07,2.83-.58,3.42-1.52a7,7,0,0,0,.94-3.55c0-.3,0-.61,0-.91-.19,0-.37-.14-.54-.44a4.91,4.91,0,0,0-.54-.74l-.56,0Zm2.24-36.75a.83.83,0,0,0,.25.6,1,1,0,0,0,.82.27c.18,0,.37-.17.56-.48s.38-.48.56-.49l0-.91c0-.21,0-.41,0-.61-.35-.4-.7-.79-1.06-1.18a2.12,2.12,0,0,0-.86,1.26A5.34,5.34,0,0,0,763.38,735.1Zm.33,66.29c.39-.42.87-.9,1.46-1.43a3.11,3.11,0,0,0,.91-2.32l-2.28.08Zm5.21-68c-.55,0-.84.45-.86,1.26s.24,1.2.79,1.19.84-.45.86-1.26S769.46,733.31,768.92,733.34Zm.87,62.95a23.61,23.61,0,0,0,.46,5,5,5,0,0,0,2.76,3.74l2-2.51,1.4,1.19a6.33,6.33,0,0,0,2.65-5.28c-1.33,0-2,.21-2.14.52s-1,.49-2.71.54a20.44,20.44,0,0,1,.67-4.61c.4-1.64-.62-2.44-3.07-2.36a1.65,1.65,0,0,0-1.73,1.28A12.44,12.44,0,0,0,769.79,796.29Zm2.77,17c0,.2.08.31.28.3a.8.8,0,0,0,.27.6l.56.6a7,7,0,0,0,1.87-.51,16.62,16.62,0,0,0,1.87-.81c0-.31,0-.62,0-.92v-.31a15.39,15.39,0,0,0-1.84-.72,5.88,5.88,0,0,0-1.85-.4l-.58.62a.94.94,0,0,0-.3.63c-.1.1-.2.2-.29.31S772.56,813.13,772.56,813.33Zm9.14.07a6.51,6.51,0,0,0-2.73.68,2.56,2.56,0,0,0-1.33,2.48c.38,0,1.3-.08,2.73-.22a2.9,2.9,0,0,0,2.74-1.75c0-.19-.18-.45-.56-.75A1.73,1.73,0,0,0,781.7,813.4Zm-2.87-29.62a10.4,10.4,0,0,0,1.85-1,1.9,1.9,0,0,0,1-1.56l-2.81.08C778.86,782.14,778.84,783,778.83,783.78Zm2-31.29a1.64,1.64,0,0,0,1.91,1.47l1.39,0a2,2,0,0,0-2.19-1.47Zm.34,40.41a12.86,12.86,0,0,0,.1,2.29,8.25,8.25,0,0,0,.68,2,16.08,16.08,0,0,0,2.57-1.44,2.65,2.65,0,0,0,1.17-2.32,5.7,5.7,0,0,0-2.18-4.85,3,3,0,0,0-2,1.74A10.65,10.65,0,0,0,781.2,792.9Zm1.63,40.69c-.38-.4-.58-.34-.58.16s.17.76.56.76c.39-.21.59-.42.59-.63S783.21,833.59,782.83,833.59ZM787.46,740A7.22,7.22,0,0,1,790,744a2.88,2.88,0,0,0,3.14,2.37,5.13,5.13,0,0,0,2.64-.83c.84-.53,1.72-1.12,2.65-1.75.19,0,.27.35.27,1.07s0,1.18,0,1.38c0,.41,0,.87,0,1.38a1.7,1.7,0,0,1-.29,1.08,3.33,3.33,0,0,1-.84.63l-1.12.64-.57,1.24-.56.63-.29.31a2.53,2.53,0,0,1-.29.93c-.19.41-.38.62-.56.62a24.33,24.33,0,0,1-4.5-5.09,11.24,11.24,0,0,1-2.24-6.69Zm3.95-5.63a.86.86,0,0,1,.56-.32h.27c.18,0,.28-.05.28-.16s.09-.15.28-.16c.92,0,2,.92,3.26,2.83s1.88,3.39,1.87,4.41h-.55c-.18,0-.28.06-.28.16s-.09.16-.28.16h-.27l-1.11.64-1.12.64c-1.84,0-2.88-1-3.13-3a39.18,39.18,0,0,1-.34-4.59Zm10.89,122c.39-.41.79-.82,1.17-1.23l-1.15-1.23C802.31,854.71,802.31,855.53,802.3,856.35Zm3.5-1.24a2.24,2.24,0,0,0,2.32,1.53c0-.51,0-1,0-1.54Zm3.84-17.22c-.77,0-1.2.57-1.31,1.7s-.15,1.89-.15,2.3h5.21a4.41,4.41,0,0,0-3.75-4Zm0,8.61c-.77,0-1.16.41-1.16,1.23s.38,1.23,1.15,1.23c.39,0,.59-.41.59-1.23S810,846.5,809.61,846.5Zm.87,1.23c-.39,0-.58.46-.59,1.38s.19,1.38.58,1.38c.77,0,1.17-.46,1.17-1.38S811.25,847.73,810.48,847.73Zm17.64-15.94c-.58,0-.87.4-.86,1.22s.29,1.24.87,1.24c.76,0,1.15-.4,1.14-1.22S828.88,831.8,828.12,831.79Zm1.39-11.4c-.77,0-1.15.45-1.15,1.38s.39,1.39,1.16,1.4c.38,0,.57-.46.57-1.39S829.89,820.4,829.51,820.39Zm5.54,13.93a2.83,2.83,0,0,1,1.45.64,2.85,2.85,0,0,0,1.16.63,30.57,30.57,0,0,0,4.29-4.1,9.91,9.91,0,0,0,2.53-6,48,48,0,0,0,.21-6.79q-.06-5.25-.07-6.8l-2.29,0a42.15,42.15,0,0,1-.37,5.4c-.27,2.15-1.36,3.22-3.27,3.19q.9,5-.37,7.1T835,833.4C835.05,833.71,835.05,834,835.05,834.32Zm9.84,2.63a22.68,22.68,0,0,0-6.06.67c-1.92.48-2.88,2-2.86,4.43l4,.06,1.15-1.52a4.34,4.34,0,0,1,2.88-.57C844.63,840.24,844.91,839.22,844.89,837Zm1.11-3.38c.2.62.88.94,2,1,0-.31,0-.62,0-.93Zm2.13,9.63c-.39-.22-.58-.06-.57.45s.2.77.59.78.58-.18.57-.6A.55.55,0,0,0,848.13,843.2Zm2.13-14.8a3,3,0,0,0,1.4-2.75l-1.43,0Zm6.4,24c1.54,0,2.31-.55,2.29-1.79l-.3-.63v-.31a1,1,0,0,0-.3-.63l-.59-.63-.87,0h-.29Zm5.88,4.83a2.22,2.22,0,0,0-2.31,1.16,5.59,5.59,0,0,0-.54,2.46l2.91.1C862.58,859.68,862.56,858.45,862.54,857.21Zm.71-9.9a8.9,8.9,0,0,0,.62,2.66c.41,1.15.86,2.35,1.37,3.61a20.83,20.83,0,0,0,1.65,3.31,5.47,5.47,0,0,0,1.49,1.76,26.8,26.8,0,0,1,.52-3.55,27.14,27.14,0,0,0,.51-3.55l0-1.55a34.53,34.53,0,0,0-.37-4.2,3.47,3.47,0,0,0-2.08-3c-.39,0-1,.48-2,1.48s-1.41,1.72-1.41,2.12c-.19,0-.29.1-.28.31S863.24,847.11,863.25,847.31ZM864.56,781c-.57,0-.84.4-.82,1.22s.3,1.24.87,1.26.83-.39.82-1.22S865.12,781.05,864.56,781Zm2.37,5.63a1.73,1.73,0,0,0-1.67,1.2,5,5,0,0,0-.52,1.85l2.26,0C867,788.74,867,787.71,866.93,786.67Zm1.48,73.53c-.58,0-.87.38-.85,1.21s.31,1.26.89,1.28.87-.39.85-1.21S869,860.23,868.41,860.2Zm-2.57-120.67c0,1.45.43,2.39,1.18,2.81,0-.41,0-.82,0-1.24,0-1.66-.43-2.59-1.17-2.81Zm.25,10.24,1.11,0,0-1.25Zm3.79,18.68c-.37,0-.55.4-.53,1.23s.22,1.24.59,1.25c.57,0,.83-.39.82-1.22S870.45,768.46,869.88,768.45ZM874,800.21c0,.83-.11,1.34-.39,1.54a5.48,5.48,0,0,1-1.12.58,2.55,2.55,0,0,0-1.12.9,3.84,3.84,0,0,0-.37,2.16c2.46.07,4-.08,4.68-.47s.95-1.84.89-4.32c0-.63-.09-1.5-.21-2.65a1.76,1.76,0,0,0-1.89-1.76l-.57,0a3.81,3.81,0,0,1-.69.6c-.28.2-.42.4-.41.61A3.6,3.6,0,0,1,874,800.21ZM871.17,775q2.52.06,2.42-4l-2.52-.06C871.1,772.3,871.13,773.65,871.17,775Zm1.54,68,1.16,0c0-.51,0-1,0-1.55Zm2-13a3.16,3.16,0,0,0-1.09,2.75l1.15,0Zm.44-72.63c0,1.46.43,2.29,1.18,2.52,0-.83,0-1.66-.07-2.49Zm3,27.72,1.13,0c-.39-.43-.77-.86-1.16-1.28Zm21.48,61.27c-.57,0-.85.37-.83,1.2s.33,1.26.91,1.3.85-.37.83-1.2S900.24,846.42,899.66,846.39Zm4.06-8.51a15.7,15.7,0,0,0,.21,2,2.53,2.53,0,0,0,1.35,1.79c1-.36,1.46-.9,1.53-1.63a15.77,15.77,0,0,0,.08-2Z"/><path class="cls-1" d="M1107.07,884.13c-.55.12-1.71.38-3.45.82a14.21,14.21,0,0,0-3.43,1.15c-.92.26-1.44,1.2-1.59,2.8s-.7,2.31-1.66,2.14c-.39-4.63-1.17-7.59-2.31-8.88a6.35,6.35,0,0,0-4.14-2.2,28.69,28.69,0,0,0-5.1-.09,7.44,7.44,0,0,1-5.42-2.23,5.75,5.75,0,0,1-2.1-3.1c-.18-1-.3-1.94-.38-2.82a5.38,5.38,0,0,0-.61-2.2c-.33-.59-1.35-1-3.07-1.32a2.72,2.72,0,0,0-3.35,2.2q-.78,2.61-4.22,2.06a4.45,4.45,0,0,1,1.37-4,4.42,4.42,0,0,0,1.37-4,3.24,3.24,0,0,0-1.21-2.62,6.69,6.69,0,0,0-2.48-.87,23.13,23.13,0,0,0-2.85-.29,3.71,3.71,0,0,1-2.33-.84,16,16,0,0,1-2.35-2.78c-1.17-1.56-1.94-2.39-2.32-2.44l-.57-.09a.64.64,0,0,1-.44-.22.7.7,0,0,0-.44-.23,3,3,0,0,0-3.29,1.28,2.77,2.77,0,0,1-3,1.33c-.2,0-.68-.74-1.45-2.14s-1.6-3-2.49-4.69-1.69-3.39-2.38-5a14,14,0,0,1-1.1-3c0-.33,0-.65-.08-1,.19,0,.49-.37.89-1.16s.5-1.32.3-1.57a19,19,0,0,0-2.35-2.88,11.76,11.76,0,0,1-2-2.52,7.35,7.35,0,0,1-1.2-2.56c-.38-1.23-.69-2.17-.94-2.84q-3.58-19.53-7.32-39a38.86,38.86,0,0,0-1.61-4c-.82-1.79-1.55-3.26-2.21-4.4a11.07,11.07,0,0,0-2.59.34,13.77,13.77,0,0,0-2.56.67,4.8,4.8,0,0,0-.59,2.64c-.07,1.38-.28,2-.66,2-.15.4-.67.24-1.56-.5a4.82,4.82,0,0,0-1.9-1.16,23.55,23.55,0,0,0,.83,3.27c.53,1.76.71,2.84.56,3.25l-.63.73c-.25.29-.48.42-.66.4q-5.61-.63-11.22-1.22a16.26,16.26,0,0,1-1.89,2.51l-1.92,2.18a3.44,3.44,0,0,1-1.18-.76,3.14,3.14,0,0,0-1.45-.78,15.84,15.84,0,0,1,0,3.81c-.14.61.42,1.84,1.68,3.66a7.8,7.8,0,0,0-3.55,1.22,5.79,5.79,0,0,0-1.66,2.21,20,20,0,0,0-1,3.07,22.88,22.88,0,0,1-1.41,3.82,10.39,10.39,0,0,0-1.35-1.09,4.82,4.82,0,0,0-1.32-.77c-.2-.23-.25-.23-.14,0s0,.31-.4.28c.16,2.33.49,3.69,1,4.06a3.5,3.5,0,0,0,1.73.65,2.69,2.69,0,0,1,1.76,1q.76.87,1.06,5a5.48,5.48,0,0,0-4.18.83,8.29,8.29,0,0,0-2.2,3.1c-.58,1.32-1.14,2.74-1.7,4.26a10.08,10.08,0,0,1-2.73,4,2.66,2.66,0,0,1-2.37.71l-3-.3a23.08,23.08,0,0,0-2.71-.1c-.85,0-1.34.56-1.47,1.6a44.1,44.1,0,0,0-.26,7.87c.11,3.6-.46,6.17-1.71,7.73a14.65,14.65,0,0,0-6.57.48,9.43,9.43,0,0,0-3.74,2.65,22.31,22.31,0,0,0-2.8,4.31,29.41,29.41,0,0,1-3.5,5.19,9,9,0,0,1-1.61-3.6,32.05,32.05,0,0,0-.89-3.54,4.85,4.85,0,0,0-1.7-2.51c-.8-.59-2.34-.77-4.63-.55a8.07,8.07,0,0,0-1.67,1.28,5.56,5.56,0,0,0-1.37,1.61c.2.24.46.51.76.85a4.39,4.39,0,0,0,1,.87l.58,0,.86.07c0-.2.36-.48,1.12-.84a4.07,4.07,0,0,1,1.42-.51c.19,0,.48.25.89.7a2.15,2.15,0,0,1,.63,1c0,.11,0,.21,0,.32a1,1,0,0,0,.32.65c-.09.2-.17.41-.26.61s-.65.63-1.38,1.3a5.4,5.4,0,0,0-1.37,1.61,17.53,17.53,0,0,0-1.25,4.45c-.48,2.37-.8,4-1,4.79q-2.38-1.45-5-8.27a151.14,151.14,0,0,1-4.83-15.29q-2.24-8.48-3.71-16.1A84.62,84.62,0,0,1,929.12,821c0-.73-.07-1.47-.1-2.2a5.12,5.12,0,0,0,1.32.87c.68.36,1.22.66,1.61.9l.57,0,.57,0a5.34,5.34,0,0,0,1.5-1.46c.63-.79,1.12-1.38,1.48-1.78l0-.63a31.4,31.4,0,0,1-4.39-2.81,31,31,0,0,1-4.69-3.13q-1.1-5.39-1.38-8.38t-.48-7.39a48.65,48.65,0,0,1,.3-8.43,47.82,47.82,0,0,0,.29-8.44,68.83,68.83,0,0,0-1.19-9.77,72.62,72.62,0,0,1-1.21-10.08l0-.63c0-.21.33-.71,1-1.51a7.22,7.22,0,0,1,1.58-1.48l0-.63q-1.58-3.52-2.53-6.08c-.64-1.7-1.25-3.5-1.8-5.41a23,23,0,0,1-1-5.36,6.74,6.74,0,0,1,.63-3.57,6,6,0,0,0,.65-3.25c0-.21,0-.42,0-.63a10.3,10.3,0,0,0-.82-2.54,13.59,13.59,0,0,1-.8-2.23c0-.83.24-1.29.88-1.37l2.16-.21a4.76,4.76,0,0,0,2.53-1.13c.86-.69,1.5-2.28,1.89-4.77.34-.39.28-1.34-.17-2.82a16.62,16.62,0,0,1-.71-2.85,13.7,13.7,0,0,1-3.15-.62c-1.2-.37-1.75.29-1.65,2,0,.22,0,.42,0,.63l3.19,3.59c0,.21,0,.41,0,.63s0,.63,0,.94a11.81,11.81,0,0,1-2,.69,8.22,8.22,0,0,1-2,.38q-.32-5.65-.64-11.29a4.42,4.42,0,0,0,4.57-2.62,12.31,12.31,0,0,0,1.1-6.21,9,9,0,0,1,2.89,1.07,36.12,36.12,0,0,1,4.49,2.72,48.19,48.19,0,0,1,4.41,3.51,12,12,0,0,1,2.64,3.12,6.4,6.4,0,0,0-3,2.36c-.91,1.2-1.83,1.78-2.73,1.74l-.82-.05a3.77,3.77,0,0,1-1.26-.69,4.22,4.22,0,0,0-1.26-.69c.07,1.05.13,2.1.2,3.15.18,0,.86.09,2,.26a29.87,29.87,0,0,1,3.85.83,12.82,12.82,0,0,1,3.63,1.61,3.13,3.13,0,0,1,1.65,2.29,8.83,8.83,0,0,1-1.76,6.33,9,9,0,0,0-1.77,6.34,3.65,3.65,0,0,0,1.55,2.91c.95.69,2,1.38,3,2.07a19,19,0,0,1,3,2.54,6.17,6.17,0,0,1,1.64,4c0,.42,0,1.21,0,2.36s0,1.84,0,2a8.62,8.62,0,0,1-.53,2.48,11.4,11.4,0,0,0-.55,2.16c.15,2.32,1,3.84,2.64,4.58a12.91,12.91,0,0,0,4.37,1.25c.16,2.33.54,5.44,1.17,9.37a43.51,43.51,0,0,0,1.6,7.52,22.43,22.43,0,0,1,1.59,3.12c.86,1.85,1.4,3,1.62,3.43,0,.21,0,.42,0,.63l.06.95a11.21,11.21,0,0,1-1.88,1.27c-1.07.65-1.8,1.08-2.16,1.25l.06,1c0,.21,0,.42,0,.63q2.42,7.44,3.67,9.43c.82,1.33,1.62,2.08,2.39,2.25l2.42.52c.86.18,2.12,1.71,3.81,4.59l1.32-1.46q-1.47-9.62-.58-13.16c.58-2.37,1.55-3.91,2.9-4.64a39.12,39.12,0,0,1,4.73-2.11c1.81-.68,3.45-2.54,4.89-5.57,1.56-3.86,2.79-7.14,3.68-9.79S989,764,992,761.12c.25.88.63,2.07,1.12,3.59a5,5,0,0,0,2.18,3.07,8.49,8.49,0,0,1,1.1-1.8q.86-1.18,1.41-1.14c.17-.19.65.07,1.45.78a5.09,5.09,0,0,0,1.47,1.1q.56,0,2.61-.06a23,23,0,0,1,2.61,0,16,16,0,0,0-1-3c-.59-1.54-.82-2.52-.67-2.93,0-.21.37-.49,1.16-.84a4.56,4.56,0,0,1,1.46-.48,5,5,0,0,1,.76-.72c.34-.29.49-.53.48-.75a20.16,20.16,0,0,0-.61-2.13c-.38-1.2-.83-2.57-1.34-4.1s-1-3-1.36-4.43a20.16,20.16,0,0,1-.7-3.08,11.13,11.13,0,0,1,1.06-4.67c.8-2,1.54-3.24,2.23-3.6a2.26,2.26,0,0,1,1.66,1.75,10.73,10.73,0,0,1,.14,2.88,11.33,11.33,0,0,0,.16,3,2.33,2.33,0,0,0,1.68,1.91,6,6,0,0,0,.68-1.36,3.74,3.74,0,0,0,.38-1.71c-.11-1.07-.13-3.2-.09-6.38s0-5.19-.07-6a1.19,1.19,0,0,1,.43-1.07,1.37,1.37,0,0,1,1-.38,4.77,4.77,0,0,1,1.28.61,6.28,6.28,0,0,1,1.61,1.27c0,.22.05.43.07.65a3.74,3.74,0,0,1-.28,2.52c-.32.39-.37,1.66-.15,3.8.18,0,.37.2.59.54s.42.52.6.54c.14-.41.46-1.22,1-2.45s.82-2,1-2.45l.82.09a7.64,7.64,0,0,1,3.53,1.48q1.89,1.32,3.94,2.81c1.37,1,2.74,2.06,4.13,3.17a12.45,12.45,0,0,0,3.47,2.15,3.72,3.72,0,0,0,2.19.25c1.08-.09,1.72,0,1.92.22a22.56,22.56,0,0,1,1.06,3.49,12.69,12.69,0,0,0,1,3.16,12.25,12.25,0,0,0,2.88,4c1.21,1.1,2.41,2.21,3.62,3.33a22.43,22.43,0,0,1,3.27,3.77,11.63,11.63,0,0,1,1.82,5.37,5.9,5.9,0,0,1-.46,3.31,5.37,5.37,0,0,0-.5,3,3.37,3.37,0,0,0,1.67,2.78,3.79,3.79,0,0,1,1.7,3.12c.07.65.14,1.3.2,1.95,0,.44,0,1.77-.12,4a24.22,24.22,0,0,1-.42,4c0,.22,0,.44.07.66a7,7,0,0,0,.86,3,5.29,5.29,0,0,0,1.55,1.66c.59.4,1.23.82,1.92,1.23a7.12,7.12,0,0,1,2,2.05,6.08,6.08,0,0,1,.27,2.61,6,6,0,0,0,.26,2.61c.19,0,.72.75,1.6,2.16a9.54,9.54,0,0,1,1.39,2.78c.25.68.65,1.81,1.17,3.39s1,3.27,1.48,5.05.9,3.47,1.33,5a22.69,22.69,0,0,1,.74,3.34c1,1.54,2,3.09,3,4.64q2.35,8.44,4.68,16.89,3.9,4.35,7.81,8.73,3.69,3.54,7.39,7.1l6.14,5.63c2,3.06,3.94,6.14,5.9,9.21.73.79,1.46,1.57,2.19,2.37ZM928.81,738l4.1-4.79c.07-.42.14-.83.2-1.25-1.56-.08-3.11-.17-4.67-.24C928.57,733.76,928.69,735.86,928.81,738Zm1.37.07c-.73,0-1.07.42-1,1.36s.45,1.44,1.19,1.47c.92.06,1.35-.39,1.29-1.34A1.4,1.4,0,0,0,930.18,738Zm3.67,68.55,1.7.12c0-.52,0-1.05-.08-1.57Zm3.95,17.22,1.15.09-.06-1.26Zm-2.71-95.22c.34-.4.18-.62-.45-.65s-.95.16-.92.58a1,1,0,0,0,.86.67C934.94,729.19,935.11,729,935.09,728.57Zm-.38-6q-.59-.65-.51.45c0,.73.25,1.11.61,1.13a1.6,1.6,0,0,0,.48-1.08C935.27,722.78,935.08,722.61,934.71,722.59Zm9.88,123.71,1.15.1c0-.53,0-1.06-.07-1.58l-1.16-.1C944.54,845.25,944.56,845.78,944.59,846.3Zm.17-42.09a24.37,24.37,0,0,0,2.42,8.19c1.5,3.37,2.45,5.38,2.87,6a.31.31,0,0,0,.3.34l.57.05q2,.17,2.5-3.58a14,14,0,0,1,3.15-7c0-.2,0-.42,0-.63s0-.63,0-1a9.48,9.48,0,0,1-.77-1c-.3-.45-.55-.69-.74-.69C951.57,804.72,948.16,804.45,944.76,804.21Zm1-13.13a26,26,0,0,0,1,5.57c.58,2,1.73,3.12,3.42,3.24a4.32,4.32,0,0,0,2.92-.72,4.35,4.35,0,0,1,2.91-.71c0-.43,0-.85-.07-1.27l-4.24-.33c-.26-1.27-.53-2.55-.79-3.83-.25-1.06-.45-2.08-.59-3s-.35-1.86-.58-2.72l-.06-.95c0-.63.07-1,.35-1.23a6,6,0,0,1,1.08-.55,2,2,0,0,0,1.07-.86,3.93,3.93,0,0,0,.29-2.18,28.62,28.62,0,0,0-.49-3.34A2.43,2.43,0,0,0,949.6,776c.19,3.16-.45,5.69-1.93,7.57A11,11,0,0,0,945.72,791.08Zm3-20.85c1.4.09,2.79.2,4.19.3-.44-1.08-.9-1.69-1.37-1.83a7.16,7.16,0,0,0-1.54-.27,2.17,2.17,0,0,0-.69.11,1.69,1.69,0,0,1-.69.11C948.62,769.18,948.66,769.71,948.69,770.23Zm24.62,39.48,1.7.16c0-.53-.07-1.06-.1-1.59l-1.7-.16C973.25,808.66,973.28,809.19,973.31,809.71ZM995,780.43a14,14,0,0,0,.51-2.33,15.76,15.76,0,0,1,.5-2.33,5.84,5.84,0,0,0,.71-1.52,5.64,5.64,0,0,0,.43-1.54,3.29,3.29,0,0,0-1.56-2.06l-.55,0-.84-.08a2.4,2.4,0,0,1-.74,1c-.35.28-.51.53-.49.74C993.62,775,994.31,777.72,995,780.43Zm14.12,3c-.74-.08-1.08.36-1,1.32s.49,1.49,1.24,1.57,1.07-.36,1-1.33S1009.84,783.55,1009.1,783.47Zm0-15.91c1-.52,1.51-1.53,1.38-3l-1.67-.17C1008.9,765.42,1009,766.49,1009.09,767.56Zm5.15,11.37,1.28-1.13-1.39-.15C1014.17,778.08,1014.2,778.5,1014.24,778.93Zm-.4-19.47a7.76,7.76,0,0,0,.85,3.28c.43.68,1.38,1.1,2.86,1.26a10.22,10.22,0,0,0-4-7.11C1013.67,757.75,1013.76,758.61,1013.84,759.46Zm6.14,9.91a2.57,2.57,0,0,0,1.31,2.22,7.3,7.3,0,0,0,2.54.76,3.17,3.17,0,0,0-1.18-2.37,9.07,9.07,0,0,0-2.45-1.23C1020.12,769,1020.05,769.16,1020,769.37Zm27,9c-.74-.1-1,.4-.94,1.48s.53,1.66,1.28,1.77,1-.4.94-1.48S1047.68,778.43,1046.94,778.34Zm7.67,50.48c-.41-.27-.57-.08-.51.57s.26.9.62.73q.57.07.51-.57A.71.71,0,0,0,1054.61,828.82Zm1.24-16.54c.23.47.94,1.58,2.13,3.36a26.67,26.67,0,0,0,3.32,4.18c.41-.58.82-1.17,1.22-1.76a14.8,14.8,0,0,0-3-5.26,35.46,35.46,0,0,0-4.6-4.51l-1.25-1.46a6.53,6.53,0,0,1-1-1.42,16.48,16.48,0,0,0,0,2.9,8.09,8.09,0,0,0-.06,2.24l.09,1Zm-1.21-12.38,1.4.19c-.06-.54-.11-1.09-.16-1.63l-1.4-.19C1054.53,798.81,1054.59,799.35,1054.64,799.9Zm5.44-.85c-.94-.14-1.34.4-1.22,1.6s.65,1.85,1.58,2c.75.1,1.06-.44.94-1.64S1060.82,799.15,1060.08,799.05Zm2.31,35.42c.53.61,1,1.23,1.57,1.84a5.61,5.61,0,0,1,1.44-1.07,3.09,3.09,0,0,0,1.35-2l-.06-.65-.09-1c-.19,0-.45-.28-.77-.77a1.69,1.69,0,0,0-1.06-.8c-.37-.06-.85.3-1.43,1.07s-1,1.26-1.13,1.45c0,.32.06.65.09,1S1062.36,834.14,1062.39,834.47Zm5.74,7.64c-.56-.09-.81.36-.72,1.34s.42,1.52,1,1.6c.94.15,1.38-.27,1.29-1.25A1.69,1.69,0,0,0,1068.13,842.11Zm2.45,8.45c-.95-.15-1.38.26-1.29,1.25a1.7,1.7,0,0,0,1.55,1.7c.76.12,1.1-.32,1-1.3S1071.34,850.69,1070.58,850.56Zm8.06,8.41c.23,2.63,1.49,4.13,3.78,4.52a9.28,9.28,0,0,0-.9-3.72C1081.08,859.05,1080.12,858.79,1078.64,859Zm2.35,14,2.58.44,4.37-.06c1.78,0,2.66-.13,2.64-.34,0-.56-.09-1.1-.14-1.65-1.19-.64-2.37-1.27-3.55-1.92a32.93,32.93,0,0,0-3.11-1.66c-1.08-.52-1.91-.92-2.5-1.24l.69,1.41a.94.94,0,0,0,.18.52.9.9,0,0,1,.19.52l0,.33a1.39,1.39,0,0,1-.89-.48,4.83,4.83,0,0,0-.92-.8C1080.71,869.67,1080.85,871.31,1081,873Z"/></svg>
