<svg id="score" xmlns="http://www.w3.org/2000/svg" viewBox="0 0 1014 697.59"><defs><style>.cls-1{fill:#f15a24;}</style></defs><title>score</title><path class="cls-1" d="M379.27,693.83c.53-1.45.33-4.41-.6-8.91s-2.4-7.4-4.39-8.66q-2-.93-8.72-2a68.1,68.1,0,0,0-7.71-1,10.8,10.8,0,0,1-3.92-1.28,8.37,8.37,0,0,1-4.08-3.38,94.83,94.83,0,0,1-9.08-5.6,86,86,0,0,1-9.2-6.63,37.89,37.89,0,0,1-6.34-1c-3.61-.74-7.36-1.47-11.29-2.17s-7.54-1.41-10.83-2.15-5.3-1.42-6-2.06c-9.29-2.61-17-6.39-23-11.4A146.49,146.49,0,0,0,252.46,623l-1.93.22q-4.87.55-5.87,8.62a76.58,76.58,0,0,1-1.73,10.25c-5.93-.7-9.62-2.89-11.05-6.61s-4.25-6.71-8.47-9c-.56.78-1.12,1.55-1.67,2.33s-1.12,1.55-1.67,2.33c-1.12,1.57-1.36,4.77-.74,9.63s1.64,7.92,3.11,9.14A13.57,13.57,0,0,1,217,649c-2.38-.75-4-1.77-4.79-3.09a13.18,13.18,0,0,1-.88-10.49c1.15-3.67-.6-5.92-5.3-6.73a1.92,1.92,0,0,0-1.38.72,1.86,1.86,0,0,1-1.38.71,3.81,3.81,0,0,1-2.76,1.43q1.88,14.06,3.76,28.13a23,23,0,0,0-10.32,9.89q-3.9,6.91-10.38,8.89-11.86,1.7-23.72,3.5a10.07,10.07,0,0,1-.71,4.89,20.83,20.83,0,0,1-1.81,4l-6.61,1a137.26,137.26,0,0,1-15.28,1.37c-5.79.22-10.06-.13-12.8-1.09-.76-.59-2.2-2.46-4.36-5.66a30.71,30.71,0,0,0-5.49-6.54,75.38,75.38,0,0,1-15-32.62Q94,628.76,91.17,612.18a209.82,209.82,0,0,1-2.68-29.94,354.83,354.83,0,0,1,.89-36.42q1.41-18.9,4.12-37a173.18,173.18,0,0,1,7-30.45,29.69,29.69,0,0,1,13.24-15.95,30.5,30.5,0,0,0,13.41-15.89c1.27-.89,2.64-4.66,4.14-11.25s2.5-10.64,3-12.14c.68-.1,1.83-2,3.41-5.81a3,3,0,0,0,2.25.74c1.39-.2,2-.64,1.94-1.35a19.52,19.52,0,0,0,4.56-5.43q2.63-4.08,2.48-5.13c1.2-1.58,1.35-3,.47-4.31a9.11,9.11,0,0,1-1.64-4l3.17-4.16a19.39,19.39,0,0,1,4.24-4.3c1.08,2.69,1.87,4.51,2.37,5.51s2.49,1.25,6,.77c2.11-.29,4.14-2.32,6.16-6.13a95.52,95.52,0,0,0,5.36-12.37,119.15,119.15,0,0,0,3.75-12.68c.92-4,1.31-6.7,1.13-8.1q4.25-.54,11.15-1.93a84.44,84.44,0,0,0,13.1-3.72,30.39,30.39,0,0,0,10.63-6.54,15.37,15.37,0,0,0,4.77-10.6q11.3-1.28,22.59-2.47a12.5,12.5,0,0,1,1.17-4.36,20.1,20.1,0,0,1,3.23-5.62c1.44-.14,4.51-.28,9.23-.41s7.75-.59,9.13-1.44q14-13,22.19-20t15.3-13.46c4.77-4.25,7.54-6.42,8.28-6.48a22.47,22.47,0,0,0-1.57-5.67c-.93-2.38-.7-4,.72-4.81-.06-.68,1.65-2.24,5.16-4.63s5.95-4,7.38-4.79a11.37,11.37,0,0,0,1.89-4.36,10.92,10.92,0,0,1,1.89-4.36q.93-2.17,4.59-5.61t4.68-4.56q1.9-4.34,6.19-15.18t5.29-13a47.85,47.85,0,0,1,.7-6.37,102.64,102.64,0,0,0,.92-11.65,112.28,112.28,0,0,1,.89-12.17,67,67,0,0,0,.69-6.89c-.05-.69.6-2.15,2-4.35s2.05-3.64,2-4.34a47.12,47.12,0,0,0,4-8.68c1.3-3.58,1.94-5.73,1.89-6.44a3.37,3.37,0,0,1-2.35-.91,6.93,6.93,0,0,0-4.69-1.81c-3.15-1.19-9.75-2.7-19.83-4.46s-16.71-2.82-19.8-3.3q-.45-5.76-.88-11.53-2.33.18-9.61,2.86t-9.59,2.89a92.78,92.78,0,0,1-8.17-7.76c-3.81-3.89-6.15-6.15-7-6.78-4-1-11.27-2.71-22-4.87s-17.64-3.4-20.78-3.79q-6.94.69-13.88,1.42a202.55,202.55,0,0,0-52.84,13.41c-18.23,7.18-31.37,18.48-39.34,33.71.24,1.74.48,3.47.71,5.21q1.29,9.38,6.38,12.92,10.85,3.31,21.61,6.71a143.55,143.55,0,0,1,31.82,16.73,283.1,283.1,0,0,1,27.44,21.73,20,20,0,0,0,1,3.59,21.92,21.92,0,0,1,1,3.6c.24,2.09-1.13,6.83-4.05,14.2s-5.1,11.15-6.56,11.32c-3.69.42-6.52-1.53-8.52-5.9a115.64,115.64,0,0,1-4.73-11.61c-6.92,5-15.88,8.25-27,9.66-.61-4.85,1.29-7.59,5.74-8.14s6.4-2.91,5.89-7.09c-.22-1.74-.43-3.48-.64-5.21A87.4,87.4,0,0,1,162,237.91a82.38,82.38,0,0,1-19.16,4.65l-11.09,1.53c-.87-6.25-3.55-9.22-8.06-9a23.47,23.47,0,0,1-12.92-2.93q-13.32-5.47-19-16.83a47.46,47.46,0,0,0-16-18.28q-2.58-1.71-11.45-3T46.5,192.19c-5.87-.45-11.19-1-15.95-1.59s-7.25-1.6-7.49-3L9,105.77c-2.44-.28-4.49-1.71-6.13-4.27A18.49,18.49,0,0,1,0,95.59q12.81-2.24,17.93-11.08t9.65-18.12c2.35-.39,5.85-1.12,10.5-2.24s9.86-2.46,15.64-4.07,11-3.11,15.6-4.52A83.57,83.57,0,0,0,79.63,51.9c.77-.11,2.77-1.64,6-4.59s5.57-4.52,7.17-4.75c7.38-4.58,13.08-7.15,17-7.69s8.31-3.95,13.13-10.26q22-2.92,44.06-5.54-1-8.34.61-10.13c1.07-1.18-1.06-3.93-6.44-8.23l2.4-.28,3.6-.43a271.69,271.69,0,0,1,44.16,10.42Q232,17.25,243.55,38.36L247.1,38q5.91-.56,6.38-8.52c.29-5.3,3.24-8.21,8.79-8.71a10.4,10.4,0,0,1,3.67.73,9.92,9.92,0,0,0,3.66.73c.78-.07,4,.18,9.64.76s9.26,1.18,10.92,1.74l8.32-.67L311,23.13a32.34,32.34,0,0,1,12,1.24,10,10,0,0,1,7,6.88c.87,1.36,2.16,5.49,3.81,12.39a106.62,106.62,0,0,1,2.69,13.51q10.8,2.45,28.5,13c11.76,7,18.55,14.07,20.48,21a59.59,59.59,0,0,1-.72,8.46,57.65,57.65,0,0,0-.71,8.46,28.16,28.16,0,0,0,11.47-2.7,24.91,24.91,0,0,1,10.32-2.59,5.64,5.64,0,0,1,2.35.41,5.37,5.37,0,0,0,2.34.43c2.35.6,5.28,1.34,8.8,2.25a35.25,35.25,0,0,0,6.43,1.31c.79.68.88,3.12.29,7.36s-.51,6.69.29,7.35c.81,1.38,3.44,4.25,7.83,8.64s7,7.63,7.81,9.71c2.44,4.12,4,10.21,4.63,18.25s1.07,14.87,1.26,20.47a145.31,145.31,0,0,1-1.4,25.29,147.92,147.92,0,0,0-1.32,26.34q.44,12.6.79,22.59a61.19,61.19,0,0,0,5.13,21.39c-1.42,1.46-5.17,4.21-11.21,8.28s-9.76,6.53-11.19,7.28c-.7.74-4-.89-10-4.83s-9.77-5.86-11.22-5.79a30.11,30.11,0,0,0,1.34,5.2c.86,2.77,1.73,5.7,2.61,8.82s1.74,6.23,2.62,9.35a42.59,42.59,0,0,1,1.35,5.72c.07,1.42.85,3.12,2.4,5.15s2.32,3.42,2.35,4.11c.13,2.8.25,5.6.38,8.4.25,5.61-.46,10.2-2.07,13.77s-4.95,5.49-9.93,5.74c-5.71.28-9.2-1.81-10.52-6.31s-3.76-6.65-7.34-6.45l-1.07.06a30.32,30.32,0,0,1-3.38,16.51c-2.59,4.72-5.35,9.25-8.29,13.64s-5.85,9-8.74,13.71a34.39,34.39,0,0,0-4.76,16.63c-.09-1.39-1-3.79-2.59-7.2s-2.84-5.43-3.59-6.09l-2.18-.9a15.09,15.09,0,0,0-8.31,2.68c-2,1.56-5.84,2.53-11.47,2.95q.9,12,1.81,24.11c.05.7-.93,1.65-2.95,2.85a12.39,12.39,0,0,1-5.1,2c-1.35.81-4.47,1.24-9.36,1.27s-8.06.14-9.45.26q-3.39,3.45-6.76,6.91a7.44,7.44,0,0,1-6.82-5.73,16.76,16.76,0,0,0,2.77-4.47,16,16,0,0,1,2.77-4.47l-.18-2.09-.18-2.1c-2.81.25-5.06-1.3-6.77-4.68l-2.19-.85a3.07,3.07,0,0,0-2,1.23,16.19,16.19,0,0,1-3.77,5.1,16,16,0,0,0-3.75,5.1c.06.7.13,1.4.2,2.09s.13,1.4.19,2.1.92,2.39,2.58,5,2.51,4.36,2.57,5q-8.7,8.2-16.47,14.25-6.74,6-12,10.72c-3.5,3.18-5.6,4.81-6.27,4.88l5.59,3.64q-4.12,10.47-8.16,20.95c-1.9,1.62-4.89,6-8.88,13.13s-6.56,11.86-7.66,14.09c1.67,2.64,5,2.43,10.18-.61s8.72-4.66,10.75-4.88l3-.32q1.9-1.25,2.55-5c.41-2.51.93-4.15,1.54-4.92-.07-.68,1-.63,3.11.21a12.07,12.07,0,0,0,4.23,1.15q.65-3.76,1.3-7.53l3.06-.3c2.71-.27,4.45-.08,5.2.54s.88.28.41-1.1-.68-1.68-.61-1c3.26,5.32,8.1,7.66,14.55,7.06s11.42-.32,15,.77a15.59,15.59,0,0,0,3.41,3.93l4.42,3.84c6.56,5.08,13.33,7.17,20.39,6.26s14-1.58,20.72-2.05a17.93,17.93,0,0,0,1.37,5.18l.3,4.19a3,3,0,0,0,1.15,2q-1.89,2.25-9.74,5.43t-9.71,5.47q1.89,24.63,3.77,49.26c.26,3.51,1.7,5.15,4.34,5,1.3-.1,2-3.48,2.21-10.18s.63-13.92,1.41-21.71a102.72,102.72,0,0,1,4-20.85q2.88-9.14,10-8.59,6.64,8.52,13.2,17.06a47.52,47.52,0,0,0,1.52,8.33c.87,3.47,3,5.08,6.3,4.88a13.63,13.63,0,0,0,7.85-2.56,11.77,11.77,0,0,1,6.86-2.48c4.65-.26,7.88.81,9.66,3.17a44.28,44.28,0,0,1,4.93,8.7q10.43-.51,20.86-.94c-1.34.06-3.7-.9-7.1-2.85s-5.48-3.6-6.21-5l-1.09-2.06.9-2.15a12,12,0,0,0,1.85-3.24c.6-1.42,1.24-2.16,1.91-2.19A97.44,97.44,0,0,0,444,539.86a109.78,109.78,0,0,1,12.12,3.75c1.35.66,5.83.68,13.47.09s12.1-.86,13.44-.9a10.38,10.38,0,0,0,4,2,39.93,39.93,0,0,1,5,2,38.48,38.48,0,0,0,1.66,7.85q1.6,5.76,2.62,6.78,2,2.07,5.92-1.17c2.6-2.15,4.23-3.22,4.9-3.24,0-1.39.3-1.74,1-1.06s.67,1,0,1c0-1.4-.72-3.31-2.08-5.75s-2.05-4-2.07-4.7l-1-2.08c0-.7,0-1.4,0-2.1l5-.09,7.51,2.52a25.73,25.73,0,0,0,5.5,1.51l1,2.1q.13,12.62-6.24,17.94a56.78,56.78,0,0,0-11.14,12.79l.09,5.25q-1.83,8.46-5.67,11.15a14.62,14.62,0,0,1-8.25,2.8,62.14,62.14,0,0,1-8.32-.32,50.87,50.87,0,0,0-6.85-.34q4.59,6.7,9.14,13.42c.65.7.52,1.56-.42,2.64a4.52,4.52,0,0,1-3.36,1.67c-4.53.12-7.48-1.19-8.86-4a27.9,27.9,0,0,1-2.7-8.86,75.49,75.49,0,0,0-1.74-8.88c-.75-2.77-2.75-4.12-6-4-2,.06-2.53,2.54-1.71,7.42a41.78,41.78,0,0,1,0,14.2,11.24,11.24,0,0,1-7.44,9.21c-4.15,1.56-11.82-1-23.14-7.46q-.66-14.18-1.31-28.35a2.72,2.72,0,0,1-2-1l-2.06-2c-.59,1.45-1.33,3.22-2.21,5.37a13.35,13.35,0,0,0-1.26,4.27q-.78,4.26,1.41,18.88t2.42,19.88l2,2c.57-1.43,1.3-3.22,2.17-5.37a13.25,13.25,0,0,0,1.21-5.32,49.85,49.85,0,0,1,9.14,9.6c2.73,3.74,4.17,7.37,4.31,10.86s-.41,5.8-1.63,6.91-1.76,3.76-1.58,8c.12,2.79.3,3.49.56,2.08s.64-3.71,1.15-6.89a40,40,0,0,1,2.5-9c1.17-2.84,3-4.33,5.6-4.43q5.64-3.9,11.29-7.77a49.57,49.57,0,0,1,7.56-5.51c5.06-3,7.63-3.73,7.67-2.33q-3.11,26.9-6.06,53.82c-13.27.41-23.75,3.81-31.35,10.11s-17,9.73-28.3,10.34q-9.4.52-15.55.38C391,697.45,385.73,696.2,379.27,693.83ZM108.79,503.71l2-.33a77.17,77.17,0,0,1-.4-9q-.08-6.9,4.72-9.8l-2.37-1.75-2.38-1.76-3.23-.55-1.88,1.37Zm13.85-38.36c-2.75.42-3.87,2.19-3.39,5.31s2.08,4.46,4.83,4q3.08-.46,2.36-5.15T122.64,465.35Zm15,15.8c-2.73.41-3.85,2.18-3.38,5.29s2,4.48,4.77,4.07,3.85-2.16,3.39-5.28S140.34,480.75,137.62,481.15Zm1.89-22.59,4.13-.61-4.74-3.55C139.11,455.78,139.31,457.17,139.51,458.56Zm.79-23.49c5,.69,9.75,1.43,14.1,2.22a42.81,42.81,0,0,0,13.78.22c-.66-4.85-2.45-7.63-5.37-8.29a29.79,29.79,0,0,0-10.62-.11l-6.77,1C142.29,430.52,140.58,432.2,140.3,435.07Zm30.88,184.6c-2,.28-2.69,2-2.24,5.1s1.65,4.54,3.59,4.26,2.68-2,2.23-5.1S173.12,619.39,171.18,619.67ZM113.52,155.35c-2.29.32-3.25,1.7-2.91,4.13s1.66,3.48,3.94,3.16c3-.43,4.39-1.85,4-4.29S116.55,154.92,113.52,155.35ZM189.77,513.1a39.26,39.26,0,0,0,5.65,15.7c3,4.91,7.18,7,12.53,6.34l2-.26a2.88,2.88,0,0,0,1.87-1.29,30.07,30.07,0,0,0,2.12-3.44c.83-1.51,2.61-4.91,5.38-10.19l.63-3.26a3.12,3.12,0,0,0-1.26-2q-7.32-1.22-14.08-2A62.36,62.36,0,0,0,189.77,513.1Zm-2.49-116.28c.09.7.92,1.66,2.51,2.86l1.18.91c.18,1.41.53,4.17,1.05,8.35s1.26,8.67,2.24,13.49,1.68,9.16,2.16,13,.81,6.44,1,7.82c2.07-.26,3-1.07,2.85-2.47,1.29-.86,2.07-3.07,2.33-6.65a32,32,0,0,1,1.19-7.56l3.91-2.59q1.95-1.31,3.92-2.59-.51-4.19-1-8.35c-.17-1.39.3-4.81,1.43-10.23s1.66-8.49,1.58-9.19a5.76,5.76,0,0,0-4.37-5.3,29.69,29.69,0,0,0-8.17-1.13,21.41,21.41,0,0,1-8.25-1.63c-2.65-1.08-4.17-3.35-4.62-6.84-1.33.88-2.29,3.12-2.91,6.73a30.09,30.09,0,0,0-.64,7.5Zm35,220.22c1.12-1.54.38-2.16-2.2-1.84s-3.16,1.11-1.68,2.33c.89,2,1.85,3,2.82,2.83S222.5,619.13,222.24,617ZM199.7,358.2c-2.85.35-4.1,1.92-3.76,4.69.09.7.18,1.4.26,2.09s.17,1.39.26,2.09l3.75-4.7c-.05-.34-.09-.69-.13-1C200,360.29,199.82,359.24,199.7,358.2ZM158.61,29.61q.76,6.27,6.29,7.18a40.39,40.39,0,0,0,11.44.24l-1.83-15.66a38.36,38.36,0,0,0-8.14,2.54c-3.86,1.52-6.12,2.69-6.82,3.47C159.23,28.12,158.92,28.87,158.61,29.61Zm71.87,582.18c.8,1.33,2.41,3.6,4.77,6.84s4.21,5.16,5.59,5.69a17.13,17.13,0,0,0,1.87-5,17.87,17.87,0,0,0,.91-4.86l-.24-2.09c-.08-.7-.17-1.4-.25-2.09a13,13,0,0,0-2.07-5c-1.22-2-2.17-2.92-2.81-2.85l-1,.12a2.74,2.74,0,0,1-2.08-.81L233.37,603c-2.61.32-3.74,1.88-3.4,4.65l-.72,2.21Zm-7.37-94.41c2.27-3.79,3.44-6.76,3.55-8.89a55.38,55.38,0,0,0-.48-8.41q-.24-2.07-.74-6.26c-.33-2.77-2.27-4.67-5.83-5.66q-1.67,3.38-3.32,6.75Q219.73,506.15,223.11,517.38Zm-4.2-78.9c-2.77.33-4,2.06-3.59,5.19s1.93,4.54,4.7,4.21q3.1-.36,2.55-5.06C222.2,439.68,221,438.24,218.91,438.48Zm4.8,40.72c3.24-1.79,4.59-5.12,4-10l-5.12.6C223,472.94,223.34,476.07,223.71,479.2ZM280.41,509c-4,.4-6.57,2.42-7.55,6a26.55,26.55,0,0,0-1.06,9.62q7-.72,8.08-5.57A32.84,32.84,0,0,0,280.41,509Zm18.37,127.07q.92,9.42,9.6,9.12c5.79-.17,11.24-.5,16.37-.94-.48-5.58-3.81-8.47-10-8.62A140,140,0,0,0,298.78,636.08Zm-2-137.08c-.78,6.4-1.32,11.57-1.63,15.46s-.62,8-.88,12.22a72.71,72.71,0,0,1-1.11,9.61l.39,4.18c.14,1.4.27,2.8.4,4.19.65-.06,2.15,1.38,4.43,4.34a38,38,0,0,0,7.19,7.25c2.5,1.88,4.31,1.72,5.46-.49s1.19-9.24.14-21.12c-.06-.69.5-1.79,1.72-3.32l1.83-2.27c-.06-.68-.4-2.6-1-5.71s-1.4-6.38-2.37-9.82-1.78-6.7-2.39-9.82-.95-5-1-5.71Q302.39,498.49,296.82,499ZM295.1,339.77c.3,3.5,2.32,6.12,6.08,7.91l-.72-8.38Zm31.16,253.71c1.49-1.88,3-3.76,4.47-5.64l-5.26-3.78Zm32.7-11c.25,3.51,1.2,5.36,2.87,5.59s3.81.62,6.48,1.13a15.84,15.84,0,0,1,7.66,4.23q3.66,3.45,6.29,13.81c-.09-1.39.39-3.88,1.48-7.47s2.25-5.75,3.52-6.54c0-.69.61-.56,2,.41a5.87,5.87,0,0,0,3,1.4q.32,5.25.53,8.92c.15,2.45,2.81,3.51,8,3.22-.27-4.89-1-11.88-2.17-20.94s-4.46-14.49-9.85-16.27a15.77,15.77,0,0,0-3.88,1.29,15.5,15.5,0,0,1-4.87,1.36q-.53-8.4-1.07-16.79-9.64,12.74-19.11,25.53ZM360.84,339q2.55,6.15,5.09,12.31l3.34,1.9,3.07-2.3a7.85,7.85,0,0,1,.87-3.21c1.26-2.87,1.86-4.67,1.82-5.38l2.22-17c-.16-2.79-2.48-2.12-6.9,2s-8.07,6.3-10.93,6.49Zm32,216q-2,.12-1.8,3.27c.12,2.1.84,3.11,2.17,3Q396.84,554.77,392.88,555Zm5.32,6c-2.64.16-3.89,1.64-3.72,4.43s1.56,4.12,4.2,4q3-.17,2.73-4.36C401.25,562.25,400.18,560.89,398.2,561Zm4.19,4q-3,.16-2.7,4.89t3.23,4.56q2-.12,1.71-4.83T402.39,565Zm3.71,13.48,4.7-4.46-4.93.27C406,575.67,406,577.07,406.1,578.46Zm-4.6-330.29q-2.22.11-4.73,5a48.53,48.53,0,0,0-3.88,10.2,53.42,53.42,0,0,0-1.67,10.09c-.2,3.17.42,4.72,1.9,4.64s3-1.74,4.68-5a50.64,50.64,0,0,0,3.89-10.2,55.65,55.65,0,0,0,1.71-10.08Q403.7,248.05,401.5,248.17Zm35.88,346.67c1.24-1.46,2.49-2.91,3.74-4.37l-3.92.17Z"/><path class="cls-1" d="M745.93,645.94c-7-.53-14.43,1.42-22.08,5.82s-15.22,5.34-22.75,2.8q-4.73-1.3-3.38-8.09a107.36,107.36,0,0,0,1.79-14.64A43.83,43.83,0,0,0,697.92,617c-1.37-4.63-5.3-7.14-11.78-7.47l-1.94-.1c-5.38,3.25-8.72,9.05-10.08,17.4s-2.06,13.24-2.13,14.64c-3.74-2.28-6.6-3.27-8.53-3a9.49,9.49,0,0,0-5.42,2.92c-1.68,1.69-3.19,3.21-4.51,4.56s-3.28,1.63-5.8.83q-9.59-.36-15.49-11a90.06,90.06,0,0,1-9-23.92,187.26,187.26,0,0,1-4.18-26.93c-.74-9.12-1.08-15.8-1-20A107.19,107.19,0,0,1,624,548.19a64.8,64.8,0,0,0,5-17.74q18.5,1.59,37,3.42a69.1,69.1,0,0,0,10.49,11.51A29.36,29.36,0,0,0,691,552.94c7.28.38,14.67-1.48,22.26-5.6s15-5.55,22.29-4.37c5.32.37,8.36,2.35,9.1,5.91s3.75,5.53,9.06,5.93,9.33-.15,12.12-1.7,6.06-5,9.86-10.27c-4-.33-6.51-2.28-7.56-5.89q-.84-2.18,5.68-8c4.36-3.86,6.93-6.44,7.73-7.79q1.06-12.58,1.26-33.13t.45-42.68q.27-22.14,1.94-42.56t5.81-31.7a50.59,50.59,0,0,1,2.34-8.77c1.44-4.45,3.12-9.57,5.06-15.4s3.67-11.45,5.23-17,2.83-9.59,3.79-12.33q3.25-12.37,1.29-21a57.64,57.64,0,0,1-1.19-18q.18-2.08,2.14-11.95t3.62-16q5.15-20.65,11-41.77a148,148,0,0,0,5.51-42.26q.09-1-4-6.68t-6.38-5.84c1.7-2,3.19-5.87,4.48-11.75s2.4-9.81,3.36-11.84l-2.3-.2-2.3-.2-1.15-.1a16.74,16.74,0,0,1-3.81,3.89c-1.66,1.28-2.5,2.26-2.56,3a70.06,70.06,0,0,0-13.74,5.72,78.55,78.55,0,0,0-10.26,6,33.3,33.3,0,0,0-6.41,1.09c-3.5.79-7.2,1.57-11.07,2.35s-7.39,1.58-10.49,2.42-4.7,1.62-4.74,2.31a110.8,110.8,0,0,0-25.28,11.58q-13.59,8.16-28.09,15.31A177.54,177.54,0,0,1,676.33,195a44.3,44.3,0,0,1-27.58-.48c3.25-8.32,4.83-15.62,4.67-21.94a56.19,56.19,0,0,0-3.4-18,126,126,0,0,0-8.6-18.14c-3.65-6.42-7.65-13.89-12.06-22.41a39.74,39.74,0,0,1,.7-4.72,39.9,39.9,0,0,0,.69-4.71,64.37,64.37,0,0,1,4.28-8.3c2-3.45,5.72-3.7,11.06-.74a25.2,25.2,0,0,1,3.33,5.36,24,24,0,0,0,4.43,6.45l1.15,0q3.43,1.17,10.51-2.26a144.89,144.89,0,0,0,14.84-8.37A103.18,103.18,0,0,0,694.2,86.31q6.09-5.49,6.25-8.65c2.53-4.09,3.3-7.74,2.28-11s-.66-7.21,1.16-12q7,1.9,14,3.85c5.35-12.35,9.73-20,13.07-23s6.56-4,9.69-3.13,6.8,2.17,11.06,3.83,10.07.29,17.51-4.13c3.3-1.88,5.41-3.66,6.33-5.36s1.6-3.05,2.08-4.07a2.3,2.3,0,0,1,2.49-1.4c1.18.08,4.1,1,8.76,2.74q5.94.45,9.27,3.86-2.31-1.21-9.14,2.47t-8.16,5.74c-1.64.59-2.6,3.15-2.92,7.69s-1,7.84-1.88,9.88c4.6,1.74,8.2,1.11,10.78-1.86s5.6-6.26,9.05-9.86a37,37,0,0,1,12.57-8.51q7.41-3.09,20.1,2.2,6.78-16.3,13.66-32.57c.91-1.33,3-2,6.22-2.08s5.56.69,7,2.24c9.9,5.86,20.91,14.68,32.88,26.5S907.77,50.85,911,57.56q.93,2.23,5.17,6.94t6.31,7.08q9.21,12.74,6.67,33.6a327,327,0,0,1-7.94,41.93q-5.43,21.06-8.69,39.2t3.84,25.34a122.28,122.28,0,0,1-2.69,12.91q-2.17,8.74-5,18.46t-6.09,18.33c-2.18,5.75-3.78,10-4.83,12.67l-2.92,6c-1.95,4-2.55,6.06-1.81,6.14.55,1.48,2.91,3.51,7,6.11s6.45,4.65,7,6.13q1.15,8.63-3.56,25t-11.2,34.66q-6.49,18.29-12.68,35t-8.28,26q.91,1.17,2,10.28a100.33,100.33,0,0,1,.94,10.16q-2.6,13.46-4.33,19.6a71.44,71.44,0,0,0-2.34,11.38,82.59,82.59,0,0,0-.35,12.12A165.32,165.32,0,0,0,870,503.62l-.24,2.09c-.08.7-.3,1-.63,1s-.54.3-.62,1l-.24,2.09a13.66,13.66,0,0,0-3.1.18,12.94,12.94,0,0,1-3.09.17l-1.24,2-.36,3.13,9.32-1.05q-3.39,2.79-7.72,13.93t-2.79,15.55q.27,6.39,6.45,9.74a78.63,78.63,0,0,0,14.9,6,165.78,165.78,0,0,0,18.58,4.46c6.56,1.21,12.11,2.49,16.64,3.8,3.2,1.15,5.69,1.31,7.49.5s4.67-3.41,8.68-7.81q-1.53,7.21-3,14.44a44.89,44.89,0,0,1,7.78-1.55,32.58,32.58,0,0,1,7.64-.48.9.9,0,0,0,.83,1.18l2,.29q3,.45,3.64,2.67t5.29,5.05c1.3.2,3.38-.18,6.23-1.18s4.43-2.5,4.75-4.58c.11-.69.21-1.39.32-2.08a68.76,68.76,0,0,1-5.79-5.14c-2.65-2.54-4.65-3.9-6-4.1.65.1,1.64-.82,3-2.74s2.28-2.85,3-2.74c.06-.35.11-.7.16-1l1.83,1.34,2,.3c11.71,7.49,21.26,12.24,28.73,14.17s12.76,4.65,15.91,8,4.34,9.12,3.61,17.16-3.46,21.64-8.1,40.74c-.72,4.14-2.29,11.17-4.65,21.06s-5.95,17.29-10.69,22.16q-1.36-3.42-2.74-6.86,4.11-18.5,8.25-37a21.26,21.26,0,0,0-4.42-.21A21.21,21.21,0,0,1,987,639a3.11,3.11,0,0,1-2.55-2.56c-.42-1.48,0-3.9,1.2-7.26q-5.55,3.36-10.17,10.59t-9.8,14.92c-3.45,5.14-6.44,9.62-9,13.48s-4.83,6-6.84,6.38c.1-.68-.4-1.66-1.51-2.89s-1.61-2.19-1.5-2.89l-2.86-.44L942.4,666a33.71,33.71,0,0,1-6.43,3.82c-2.81,1.36-4.62,2.69-5.45,4q1-6.76,2-13.52a44.62,44.62,0,0,0-12.34,7.77,138.14,138.14,0,0,0-10.79,11.22,24.07,24.07,0,0,1-2.94-6.78,28,28,0,0,0-3.77-7.94c.8,3.65.18,5.85-1.87,6.64a11.93,11.93,0,0,1-5.92.8c-2.54-.34-4-1.42-4.41-3.24a29.33,29.33,0,0,1-.68-5.92,31.73,31.73,0,0,0-.69-5.92c-.42-1.81-1.9-2.9-4.45-3.23l-2.87-.36a2.7,2.7,0,0,0-2,.8,26.29,26.29,0,0,1-8.68,19q-8.17,7.46-16.93,8.54l1.36-11.48c-3.18-.38-5.67.23-7.44,1.78a58.27,58.27,0,0,0-6,6.19,45.82,45.82,0,0,1-7,6.62c-2.45,1.85-5.55,2.57-9.33,2.16l-.94-.1-4.29-4.68a9.73,9.73,0,0,0-7.9,2.35c-1.88-6.53-3.86-10.79-5.9-12.74s-5.58-3.55-10.58-4.72c-8.07-2.88-15.17,1.06-21.19,11.79a32.08,32.08,0,0,0-3.3-6.08,18.18,18.18,0,0,0-4.35-5.12l-4.76-.39c-2.54-.21-3.78-.67-3.73-1.36a28.24,28.24,0,0,1-3.23-7.64,52.49,52.49,0,0,1-1-5.88,8.34,8.34,0,0,0-1.59-4.34Q751.7,646.38,745.93,645.94Zm14.7-592.27c-1.54-.79-3,.33-4.36,3.4s-.93,5.39,1.32,6.94c2.3.85,3.75-.45,4.39-3.93S762.15,54.48,760.63,53.67Zm1.59,11.69a85.13,85.13,0,0,1-2.49,10.9c-1.56,5.88-.47,10,3.29,12.34q7.05-.57,10.15-3a26.44,26.44,0,0,0,5.74-6.44c1.8-3.38,1-6.07-2.36-8.07a44.46,44.46,0,0,0-9.71-4.36,5.5,5.5,0,0,1-2.31-.69A6.16,6.16,0,0,0,762.22,65.36ZM821.05,621a3.06,3.06,0,0,0,.76,2.19l1.72,2.29,1.18-2-.75-2.19q.43-4.17-2.48-4.49l-1.08,1C820.62,618.79,820.84,619.87,821.05,621Zm20.48-16.86c-2.69.42-4.19,2.19-4.53,5.32s.82,4.5,3.5,4.08c1.86.92,3-.2,3.32-3.33S843.4,605,841.53,604.09Zm-1.79,51.63c-2.72,1.12-4.19,2.89-4.46,5.32a23.54,23.54,0,0,1-1.7,6.69l4.53,2.62Q838.92,663,839.74,655.72Zm5-27,4.83.54c.48-1.35,1-2.71,1.45-4.07Zm2.33,14c-2.57-.29-4,1.31-4.43,4.79s.69,5.37,3.24,5.66q2.76,1.38,3.36-3.85T847,642.78Zm12.71,7.83c-1.2-.84-1.91-.23-2.16,1.86s.26,3.2,1.55,3.36C862.3,656.21,862.51,654.48,859.73,650.61Zm12.79-49.29a13.18,13.18,0,0,0-6.13,9.85c-.17,1.39-.34,2.78-.5,4.17a7.85,7.85,0,0,0,4-4.81,36,36,0,0,0,1.12-5.15C871.76,604.77,872.26,603.41,872.52,601.32ZM885.89,621c-3.51,1.67-5.88,4.92-7.12,9.7a93.57,93.57,0,0,0-2.14,9.27l5.91-.32Q884.22,630.31,885.89,621Z"/></svg>
