<svg id="settings" xmlns="http://www.w3.org/2000/svg" viewBox="0 0 1809 969"><defs><style>.cls-1{fill:#f15a24;}.cls-2{fill:#050505;}</style></defs><title>settings</title><path class="cls-1" d="M1677.75,877Q1158,812.54,656.6,832.41,391.05,842.91,131,877C192.9,599.26,196.54,326,131,58c499.79,159.4,1016.14,152,1546.75,0C1609.94,333,1614.62,605.87,1677.75,877Z"/><path class="cls-2" d="M336.51,682.19a31.13,31.13,0,0,1-2.66-8.45c-.4-2.43-.16-4.1.74-5s1.16-2.45.81-4.57a12.75,12.75,0,0,0-1.79-5.08l-2.94-4.42.31,0c.19,0,.29-.13.27-.28s.06-.25.27-.28l.92-.15c1.63-.28,2.58.35,2.83,1.86s.89,2.19,1.91,2l.92-.16a44.82,44.82,0,0,1-1.1-11.5q.25-5.18.86-10.19c.41-3.34.75-6.74,1-10.21a48.46,48.46,0,0,0-.61-11.59,1.53,1.53,0,0,1,1.77,1.12,1.71,1.71,0,0,0,2.09,1.06,25.21,25.21,0,0,0,8.72-3.26,70.34,70.34,0,0,0,8.07-5.48l4.62,13.29a5.16,5.16,0,0,0,.88-2.48,32,32,0,0,0,.45-4.26,36,36,0,0,0,0-4.43,8.35,8.35,0,0,0-.62-2.94q2.55-4.12,4.67-7a8.16,8.16,0,0,1,5.55-3.41,5.16,5.16,0,0,1,1.13.07,4.41,4.41,0,0,0,1.13.06c-.73,1.51-1.47,3-2.19,4.53q1,2.19,2,5c.71,1.92,1.27,2.84,1.69,2.78,1.45-.22,2.46-1.22,3.05-3a36.67,36.67,0,0,0,1.33-6c.31-2.22.6-4.52.89-6.89a17.79,17.79,0,0,1,1.41-5.57,6.91,6.91,0,0,1,2.45-2.93c1-.61,1.85-1.2,2.62-1.78a7.53,7.53,0,0,0,1.93-2.15,6.15,6.15,0,0,0,.38-4,8.73,8.73,0,0,0-3.25-5.82,6.9,6.9,0,0,0-5.25-1.8,2,2,0,0,0-1.88,1.45,1.56,1.56,0,0,1-1.24,1.35l-.63.09c-1-3.89-2-7.86-3.06-11.9s-2.14-7.84-3.32-11.4l-.63.1-.64.09a3,3,0,0,0-1.48.92,5.64,5.64,0,0,0-1.09,1.34l-.63.09-.64.1c-.14-.92-.6-2.94-1.4-6.09s-1.46-5-2-5.53c-1.62-3.49-3.46-4.61-5.55-3.35a16.85,16.85,0,0,1-6,2.32c.17,1.06.33,2.12.49,3.19q-4.12.63-8.75-4a23.23,23.23,0,0,1-6.22-10.46,9.88,9.88,0,0,1-1.05,1.57,2.67,2.67,0,0,1-1.45,1.17l-.78-.81a2.83,2.83,0,0,1-.86-1.27,19.46,19.46,0,0,1-2.77-6.09,38.34,38.34,0,0,1-.69-7.37q-1.62,2.13-2.88,3.5a5.79,5.79,0,0,1-3.49,1.73c-2.35.38-3.57-1.13-3.69-4.54a70.43,70.43,0,0,0-.69-8.3,12.87,12.87,0,0,1-3.68-.33c-1.82-.33-2.44,1.18-1.89,4.51a6.52,6.52,0,0,0,1.92,2.73,6.46,6.46,0,0,1,1.93,2.72,11.45,11.45,0,0,1-.67,2.91,26.46,26.46,0,0,1-1.24,3.48l-.64.1-.63.11a7.72,7.72,0,0,1-1.49-3,8.66,8.66,0,0,0-1.09-2.63,4,4,0,0,0-2.07-.59,7.62,7.62,0,0,1-2.39-.54,21.59,21.59,0,0,1-7.6-8.08A45.53,45.53,0,0,1,297,497.54a74,74,0,0,1-1.89-9.26c-.33-2.59-.6-3.88-.82-3.84l-4,1.62-.57.56a8.51,8.51,0,0,0-.45,2.19,9,9,0,0,1-.46,2.18c.05.31,0,.47-.25.51-.16.34-.35.53-.56.56q-1-5.9-2.81-8.64a26.18,26.18,0,0,0-4.17-4.9l-4.74-4.32a21.2,21.2,0,0,1-4.55-6.94c-.1-.6-.48-2.41-1.11-5.42s-1-4.81-1.12-5.42Q267.21,443.24,269,434a148.68,148.68,0,0,1,4.31-17.13q2.54-7.91,4.72-15.07a35.2,35.2,0,0,0,.66-16.25c3.53-.59,7.07-1.19,10.61-1.77a18.53,18.53,0,0,0-.86-3.13,20.37,20.37,0,0,1-.93-3.59,7.32,7.32,0,0,1,.13-3.29,2.71,2.71,0,0,1,2.44-1.81c1.33-.22,2.87,1.17,4.61,4.15s3.94,4.26,6.59,3.83c.25,1.52.5,3,.74,4.56a3.73,3.73,0,0,1,1.7-.05c.24.13.46-.61.66-2.21q-1.58-9.78-3.16-19.57a5.5,5.5,0,0,1,.3-2.39,14.93,14.93,0,0,1,.71-2,5.12,5.12,0,0,1,4.87,1.55,19.25,19.25,0,0,1,3.18,4.87,52.43,52.43,0,0,1,2.34,6.16,21.36,21.36,0,0,0,2.8,5.86q1.94-.76,1.35-4.41c-.38-2.43-.6-3.8-.64-4.1q-1.23-7.74-4-8.95a80.63,80.63,0,0,1-9.24-5.29l-.3-1.82,11.72-1.87c.89-.14,1.71.36,2.46,1.48a15.22,15.22,0,0,1,1.81,3.92c.46,1.49.87,3,1.22,4.48s.59,2.71.73,3.62l4.67-.73c.48-3.5,1-7,1.46-10.49l9.59,4.6c.43-3.17,1.65-4.92,3.66-5.22q2.67-.4,3.09,2.33c.27,1.83,1,3,2.21,3.4.31.58.74.36,1.27-.65a.92.92,0,0,1,.6-.56c-.38-2.58-.77-5.17-1.15-7.75a1.15,1.15,0,0,0,1.07.3,1.3,1.3,0,0,1,.7.13,1.09,1.09,0,0,0,.71.13c1.2.45,1.94,1.58,2.21,3.4a7.12,7.12,0,0,1-.3,3.78,6.89,6.89,0,0,0-.29,3.77c0,.3.09.61.13.91l1.61,1.63.66-.1q2.67-.39,2.17-5c-.34-3.05-.57-5-.7-5.95,1.55-.23,3.42.51,5.61,2.2a23.37,23.37,0,0,1,5,5.11l1.21-2.27a26.67,26.67,0,0,1,2.08-3.33c.75-1,1.47-2,2.15-2.87s1.11-1.32,1.34-1.36q2.67-.37,4.43,2.4a24.62,24.62,0,0,1,2.81,6.6,60.46,60.46,0,0,1,1.55,7.46,25.75,25.75,0,0,0,1,5,11.83,11.83,0,0,0,2.58,2.67,12.19,12.19,0,0,1,2.57,2.66c0,.31.08.61.13.92a1.52,1.52,0,0,0,.46.87,5.66,5.66,0,0,1,0,1.16,5.11,5.11,0,0,0,0,1.17,35.8,35.8,0,0,1,.08,4.18,29.82,29.82,0,0,1-.26,4.22l-.66.09a2.09,2.09,0,0,1-2.31-.84q-.66-1.06-1.35-2.37a6.06,6.06,0,0,0-2.18-2.25q-1.48-1-5.13-.44a6.25,6.25,0,0,1-.47,1.46c-.32,1-.33,1.61-.07,1.88a4.42,4.42,0,0,0,2.28.6,4.5,4.5,0,0,1,2.28.61,4,4,0,0,1,2,2.28c.37,1,.74,2.07,1.12,3.1a8.73,8.73,0,0,0,1.37,2.6,2.8,2.8,0,0,0,2.81.77,4.53,4.53,0,0,1-.88,3.39,28,28,0,0,1-2.75,3.18A18.11,18.11,0,0,0,380,406a6.65,6.65,0,0,0-.7,4.52c.35,2.44,1.13,4,2.36,4.79s2,2.36,2.35,4.79a4.88,4.88,0,0,0-.14,1.42c.09.61.18,1.22.26,1.83a7,7,0,0,0-2.22-2.72c-1.14-.92-2.39-1.91-3.77-3a21.37,21.37,0,0,0-4-2.45,6,6,0,0,0-3-.74,1.81,1.81,0,0,0-1.64,1.4,1.81,1.81,0,0,1-1.64,1.4l-.66.1a9,9,0,0,1-2.11-1.79l-3.16-3.26c-1.19-1.23-2.25-2.31-3.17-3.27a10.8,10.8,0,0,1-1.86-2.29,6,6,0,0,1-1.59-2.79c-.27-1-.55-2.17-.84-3.37a7.23,7.23,0,0,0-1.07-2.64,2.22,2.22,0,0,0-2.28-.59,45.15,45.15,0,0,0-5.84,1.57q-4.19,1.33-8.87,2.75c-3.13.95-6.08,1.8-8.9,2.55a44.09,44.09,0,0,0-5.79,1.84c-3,.79-5.18,1.84-6.43,3.12a9.17,9.17,0,0,0-2.4,5.06,63.87,63.87,0,0,0-.71,7.12,45.54,45.54,0,0,1-1.43,8.87c-1.63-.36-2.21-.88-1.77-1.58a2.75,2.75,0,0,0,.53-2,17.38,17.38,0,0,1-4.17.21,7.09,7.09,0,0,0-3,.25c-.74.28-1.17,1.13-1.27,2.55a35,35,0,0,0,.67,7.13c.55,3.34,1.81,4.84,3.77,4.52q2.28-.37,1.89-3.81c-.27-2.29.26-3.55,1.57-3.76.29,1.82.87,4.3,1.71,7.43a66.93,66.93,0,0,0,3.14,9.07,32.54,32.54,0,0,0,4.38,7.47c1.67,2.07,3.36,3,5.1,2.68l-.33.06a4.29,4.29,0,0,0-.83,1.06,1.63,1.63,0,0,0-.17,1c0,.31,0,.48-.26.51l.3,1.82a3.61,3.61,0,0,0,2.69,3.31q2.25.58,4.53,1.38a10,10,0,0,1,4.11,2.85c1.21,1.37,1.61,3.64,1.23,6.81a2.8,2.8,0,0,1,2.63-2.28,3.33,3.33,0,0,1,3.78,2,40.69,40.69,0,0,1,2.11,5,27.36,27.36,0,0,0,2.26,5,3.56,3.56,0,0,0,3.93,2l1.29-.19A9.66,9.66,0,0,1,348,486c-.39-1.8-.69-3.46-.93-5a10.08,10.08,0,0,0-1.64-4.19,7.66,7.66,0,0,0-4.41-2.81,2.51,2.51,0,0,1,1.39-.68l1.13-.18a6.9,6.9,0,0,1,5.21,1.53c1.74,1.3,3.5,2.73,5.29,4.33s3.5,3.2,5.18,4.81a10.46,10.46,0,0,0,5.22,2.95c1.38.42,3.22.92,5.5,1.51s3.44,1.05,3.49,1.35q5,9.29,9.93,18.59a15,15,0,0,1,.05-3,30.76,30.76,0,0,1,.37-3.09c.08-.16.17-.33.25-.5l.33,0,.32-.05.38.41a68,68,0,0,1,6.52,13.51c.74-.89,1.49-1.77,2.23-2.65a24.89,24.89,0,0,0,.76,9.91,41.26,41.26,0,0,0,3.78,9.47,28.45,28.45,0,0,0,5.73,7.35,12.88,12.88,0,0,0,6.64,3.5,82.58,82.58,0,0,1,5.34,8.34,26.59,26.59,0,0,1,3.25,9.56c.25,1.83-.41,4.48-2,7.95s-3.23,4.87-5,4.19a26.6,26.6,0,0,1,4.16,11.53,71.1,71.1,0,0,1,.39,8.56c0,3.88-1,6-3.11,6.25l-.62.09a3.39,3.39,0,0,0-1.38-.74,3.94,3.94,0,0,1-1.75-1.15c.06.46.13.91.19,1.37,0,.3.09.61.13.91.37,1.19.94,3,1.71,5.35a39.57,39.57,0,0,1,1.26,4.48l1.5,1.65a21.65,21.65,0,0,0-1.14,3.19c-.42,1.46-.71,2.51-.82,3.14-.61,3.19-1.17,5.14-1.71,5.83a21.22,21.22,0,0,0-2.13,5c.83,1.44,1.87,2.07,3.1,1.89l.84,5.94q-2.76.39-5.27-2.74c-1.67-2.1-3.23-3-4.66-2.83l-.56.55q.19,11.14.41,22.31a2.52,2.52,0,0,1-1,2l-.61.09a1.73,1.73,0,0,1-1.89-1.12,13,13,0,0,1-1-2.65,26,26,0,0,0-.87-2.67,1.52,1.52,0,0,0-1.74-1.14q-2.76.4-2.87,3.92c-.08,2.34,0,4.74.13,7.21l-1.54.23q-2.46.36-4.57-3.29t-3.38-5.78a1.85,1.85,0,0,0-1.26,2.06c.14.91.3,2,.48,3.19.23,1.51.64,2.47,1.22,2.84s1,1.33,1.21,2.85a40.2,40.2,0,0,1,.42,4.84c.05,1.7-.65,2.66-2.07,2.88a1.07,1.07,0,0,1-.65-.14,1.56,1.56,0,0,0-.95-.09c.32-.67.12-2-.59-3.87a13,13,0,0,0-1.81-3.69l-.92.14-.62.09c-.2,0-.33-.11-.37-.41a23.8,23.8,0,0,0-3.19.73c-1.1.32-1.51,1.4-1.22,3.22,0,.3.09.61.14.91a4.89,4.89,0,0,0,1.55.93,5,5,0,0,1,1.55.92c.13.14.25.28.38.41,0,.3.17.44.37.41-2,.32-3.21.8-3.53,1.48a2.87,2.87,0,0,0,0,2.33,26.27,26.27,0,0,1,1,3.34,8,8,0,0,1-.4,4.5c-.16.33-.92.76-2.3,1.29a8.2,8.2,0,0,0-2.6,1.34c-.4.06-.62.71-.62,2a7.89,7.89,0,0,1-.25,2.38c0,.3,0,.47-.24.5l-.91.14a3.39,3.39,0,0,1-3.74-2c-.87-1.58-2.33-2.2-4.36-1.88a11.46,11.46,0,0,0-1.79.52,12.12,12.12,0,0,1-1.49.47c-.2,0-.49.78-.88,2.25s-.79,2.23-1.19,2.29-1.18-.51-2.31-1.73-1.91-1.79-2.31-1.72a11.37,11.37,0,0,0-2.47-.77,23.33,23.33,0,0,1-3.8-1.25,23.65,23.65,0,0,0-3.81-1.24C338.1,682.62,337.17,682.38,336.51,682.19Zm-61.82-258c-.87.15-1.21.83-1,2s.75,1.75,1.63,1.6c.65-.12.88-.78.67-2S275.34,424.05,274.69,424.16ZM287,456.69c.26,1.52.91,2.41,2,2.7a7.21,7.21,0,0,0,3.2.16,5.2,5.2,0,0,0,3.55-1.76q.94-1.32.34-5-.15-.9-.69-3.15t-2.25-2.43a4.5,4.5,0,0,1,.81,3.84A6.37,6.37,0,0,1,292,454a13.32,13.32,0,0,1-2.7,1.86A9,9,0,0,1,287,456.69ZM292.21,468c.91,1.41,2,2,3.31,1.78l-.39-2.27Zm4.76-5.48c2.16-.36,3.69,1.11,4.56,4.39s1.45,5.68,1.7,7.19c2-2.81,2.74-6.53,2.32-11.13s-.91-8.57-1.46-11.91c-.1-.61-.19-1.14-.27-1.6s-.7-.89-1.89-1.32c1,3.27.89,6.09-.27,8.46a8.23,8.23,0,0,1-4.92,4.56C296.81,461.57,296.89,462,297,462.48Zm10.18,35.24c-.64.11-.85.85-.62,2.21s.66,2,1.3,1.89c.85-.14,1.18-.9.95-2.26S308,497.58,307.15,497.72Zm-1-5.91c-.48-.23-.64.11-.49,1s.44,1.32.87,1.25a1.57,1.57,0,0,0,.42-1.47C306.87,492,306.6,491.74,306.17,491.81Zm33.33,183.8,1.53-.25-.3-1.82-1.53.25Zm-42.8-286a7.32,7.32,0,0,0-1,4.37l1.66-.27C297.14,392.34,296.92,391,296.7,389.6Zm45.69,269.18c.11-.64-.15-.91-.76-.81a.82.82,0,0,0-.77,1.06c.3.57.66.83,1.07.76S342.49,659.38,342.39,658.78ZM316.21,498.57l1.28-.21c-.12-.76-.24-1.52-.37-2.28Zm33,169.38c-2.45.39-3.88,1.25-4.29,2.56a3.85,3.85,0,0,0,.94,3.82,11.82,11.82,0,0,0,5.05,3.15,15.76,15.76,0,0,0,8.08.57c.2,0-.1-.61-.9-1.72a26.6,26.6,0,0,0-3.07-3.48c-1.24-1.2-2.46-2.33-3.68-3.38S349.43,667.91,349.23,668Zm-45.35-251c.5,3,1.83,4.37,4,4-.24-1.51-.49-3-.74-4.55Zm44.23,261.47c-.61.1-.8.83-.58,2.2s.63,2,1.24,1.89c.82-.13,1.11-.88.89-2.24S348.92,678.28,348.11,678.41ZM306.2,410.48l2.64-.42-.3-1.82-2.63.42C306,409.27,306.1,409.88,306.2,410.48Zm-1.26-16.14c-.66.1-.88.84-.66,2.21s.66,2,1.32,1.88.89-.84.67-2.21S305.61,394.23,304.94,394.34ZM325.81,505a15.13,15.13,0,0,0,1,2.89c.54,1.31,1,2.26,1.27,2.83q1.45-1.17,1.27-4.41c-.13-2.15-.24-3.54-.34-4.15a7,7,0,0,0-2.17.82A1.79,1.79,0,0,0,325.81,505ZM351,661.58q.51,3.18,1.89,3.9a5.27,5.27,0,0,1,0-1.16,6,6,0,0,0,0-1.16c-.29-1.82-1-3-2.12-3.4C350.84,660.37,350.94,661,351,661.58ZM324.9,491.09c-.65.1-.87.76-.67,2s.61,1.77,1.25,1.67.88-.76.68-2S325.54,491,324.9,491.09ZM354,620.48a44.2,44.2,0,0,1-3.07,4.69c-1.73,2.46-2.51,4.14-2.37,5.05l10.24,2.58Q356.38,626.64,354,620.48ZM313,389.31c-.49-.23-.67,0-.55.79s.4,1.1.84,1a1.35,1.35,0,0,0,.48-1.24A.6.6,0,0,0,313,389.31Zm25.29,131.87,1.91-.3a5.21,5.21,0,0,0-2.49-3.34C337.86,518.75,338.05,520,338.25,521.18Zm9.34-13.6c-.48-.23-.64.1-.5,1s.42,1.34.85,1.27C348.77,508.18,348.65,507.42,347.59,507.58ZM332.07,363.45a3,3,0,0,0-2.61,3,18.47,18.47,0,0,0,.07,4.89c.16,1.06.33,2.12.49,3.19a24.37,24.37,0,0,0,3-3.73,7.23,7.23,0,0,0,1.4-5.35c-.18-1.21-.73-1.75-1.61-1.62Zm19.68,143.49,1.28-.2c-.09-.61-.18-1.21-.28-1.82l-1.28.2C351.56,505.72,351.66,506.33,351.75,506.94Zm1.18-20.24c-.65.09-.88.76-.69,2s.6,1.77,1.24,1.67.88-.75.69-2S353.57,486.6,352.93,486.7ZM358,524.18a3.24,3.24,0,0,0,2.55,2.87,8.88,8.88,0,0,0,2.85.5,4.7,4.7,0,0,0,1-2,3.06,3.06,0,0,0,0-2.33Zm18.86,119.35c.3-.82.59-1.65.89-2.47l-1.24.19C376.63,642,376.75,642.77,376.86,643.53Zm-21.74-151.1,1.61-.25c-.65-.68-1.3-1.36-2-2C354.89,490.91,355,491.67,355.12,492.43Zm5.21,23.46c.33-.67.67-1.34,1-2l-2.88.44Zm-.8-13.87c-.64.1-.86.76-.68,2s.6,1.77,1.24,1.68c.85-.13,1.19-.8,1-2S360.38,501.89,359.53,502Zm5.74,27.12a6.85,6.85,0,0,0-1.29,4.39l1.91-.29C365.68,531.87,365.48,530.51,365.27,529.14Zm20.8,110.66a2.73,2.73,0,0,0-2.43,2.7l4-.6C387.43,640.38,386.89,639.68,386.07,639.8ZM366,516.9l2.23-.34a19.71,19.71,0,0,0-.79-3.14,3.84,3.84,0,0,0-2.33-2.45Q365.59,513.93,366,516.9ZM366,492.19c-.65.1-1,.79-1.18,2.05a34.35,34.35,0,0,0-.19,4.22,33.2,33.2,0,0,0,.33,4.38c.2,1.37.33,2.21.38,2.51a4.7,4.7,0,0,0,3.25-2.35,6.73,6.73,0,0,0,.93-4.8,23,23,0,0,0-1.06-3.81C367.84,492.77,367,492,366,492.19Zm5.35,40.24,1.27-.19-2.16-5.74C370.71,528.48,371,530.45,371.3,532.43ZM346.88,359.81c-.67.1-.91.77-.73,2s.6,1.77,1.27,1.67c.89-.13,1.25-.8,1.06-2S347.77,359.68,346.88,359.81Zm26.17,136c-.52-.54-.64.1-.37,1.92s.59,2.56,1,2.19Q374.47,496.54,373.05,495.8Zm7.28,51.61a30.32,30.32,0,0,0,2.25,7.59c1.14,2.63,2.87,3.77,5.18,3.44l1.27-.19a16.3,16.3,0,0,1,3.5-1.44,9.8,9.8,0,0,0,3.18-1.39,1.61,1.61,0,0,0,.19-1c-.18-1.21-.59-1.85-1.24-1.91l-2-.19a4.23,4.23,0,0,1-2.06-.86c-.72-.52-1.21-1.69-1.48-3.52-1.26,1.74-2.16,2.57-2.71,2.49a15.23,15.23,0,0,0-3.35.26,14.31,14.31,0,0,1,0-5.59c.35-1.29-.76-2.53-3.3-3.71.09.61.18,1.6.27,3S380.24,546.8,380.33,547.41Zm8.56,47.22c-.46-.24-.63.09-.49,1s.41,1.34.83,1.28a1.62,1.62,0,0,0,.42-1.46C389.56,594.84,389.31,594.57,388.89,594.63ZM379.37,521c.12-.64-.08-.92-.61-.84s-.75.42-.67,1c.31.58.62.84.94.79S379.46,521.59,379.37,521ZM389,586.69c-.62.09-.84.82-.63,2.19s.61,2,1.24,1.91c.83-.12,1.15-.86.95-2.23S389.83,586.56,389,586.69Zm-7.17-60a8.25,8.25,0,0,0,3.48,6q-.76-5.24-1.52-10.49Q381.23,522.58,381.83,526.68ZM359.43,364c-.67.09-.91.75-.74,2s.6,1.77,1.27,1.68.91-.75.73-2S360.09,363.93,359.43,364Zm21.95,150.6q1.37,2.6,3.27,2.32l-.39-2.74ZM394,530a10.68,10.68,0,0,0-6.06,3c-1.71,1.65-2.3,4.29-1.77,8q2.54-.37,5.51-3.36A8.43,8.43,0,0,0,394,530ZM367.66,381l2-.29a4.68,4.68,0,0,0-2.58-3.82C367.27,378.27,367.46,379.64,367.66,381Zm22.46,144.47,1.27-.19-1.53-1.64C389.94,524.26,390,524.87,390.12,525.48Zm8.15,47.75,1.57-.23c-.2-1.37-.39-2.74-.59-4.11l-1.57.23C397.87,570.49,398.07,571.86,398.27,573.23Zm14.17,9.64a4.29,4.29,0,0,0-2.79,1.78,21.11,21.11,0,0,0-2.21,3.58l1.88-.27Q413.09,587.43,412.44,582.87Zm-4.17-9.2a4.62,4.62,0,0,0,1.06-3.87l-1.57.22Zm-1.81-22.1c-.47-.24-.64.09-.51,1s.4,1.34.83,1.28a1.6,1.6,0,0,0,.44-1.45C407.13,551.79,406.88,551.51,406.46,551.57Zm2.41,8c-.63.08-.86.74-.69,2s.57,1.78,1.2,1.69c.84-.12,1.18-.78,1-2S409.71,559.5,408.87,559.62Z"/><path class="cls-2" d="M533.1,640.49a9,9,0,0,0-.76,3.09,16.84,16.84,0,0,0-.19,2.57c-.13-1.22-.51-1.8-1.12-1.73-.42,0-1.43.22-3,.56s-2.66.36-3.1.11a19.7,19.7,0,0,1-3.23-1c-1.95-.72-3.47-1.32-4.56-1.82a1.91,1.91,0,0,1-1-.35l-1.33-.78-.62.07-.62.07-.51,1c-.18.33-.36.51-.56.53l-.57.53-.35-.43a7.47,7.47,0,0,0-.7-3.4,12.12,12.12,0,0,0-1.62-3.29,6.56,6.56,0,0,0-3.14-1.5,11.39,11.39,0,0,0-3-.58l-.48-4.13-4.35,5.62c0,.3-.32,0-1.06-1a14.57,14.57,0,0,1-1.53-2.38c-.49-.56-.68-1.77-.59-3.64s-.39-2.89-1.45-3.08a2.68,2.68,0,0,0-1.28,2.47c.11.92.22,1.83.32,2.75a5.24,5.24,0,0,1-.32,2.59c-.32.82-1.3,1.32-2.95,1.51-3.7.44-6.16,0-7.37-1.43a9.62,9.62,0,0,1-2.21-5.31c-.26-2.13-.47-4.2-.6-6.2s-1-3.2-2.49-3.64a10.53,10.53,0,0,0-3.53-.5,29.79,29.79,0,0,0-4.09,0c.35-1.43.7-2.87,1-4.31a8.94,8.94,0,0,1-5.62-2.08,20.67,20.67,0,0,1-4.45-5.25c-1.33-2.16-2.63-4.47-3.9-7s-2.45-4.72-3.56-6.75a30.38,30.38,0,0,1-2-3q-1.62-2.58-2.41-3.87-5-6.78-6.63-11.7t-4.14-12l-.75-.83-.75-.83c-.37-1.19-1-3.6-1.76-7.21s-1.26-5.89-1.38-6.8l-.42-3.2a26.23,26.23,0,0,1-.16-6,27.9,27.9,0,0,0-.21-6.48l-.3-2.29a5.81,5.81,0,0,0-.88-1.74,5.85,5.85,0,0,1-.87-1.75l-1.09-8.23c-.17-1.21-.35-3.44-.56-6.67s-.34-6.62-.37-10.18a48.16,48.16,0,0,1,.72-9.4q.78-4,2.71-4.31a10.7,10.7,0,0,1-.13,4,9,9,0,0,0-.2,3.51,25,25,0,0,1,3.92,0,2.92,2.92,0,0,0,3.3-2.29c.13-.63.3-1.9.49-3.78a25.36,25.36,0,0,0,.24-3.29l1-.12c.18,1.37.36,2.74.53,4.12a4.77,4.77,0,0,1,2,.43c.92.35,1.46.36,1.64,0l.53-1c.17-.33.35-.66.53-1a12.25,12.25,0,0,0,2.65-1,6.06,6.06,0,0,0,2.27-1.44c-.1-.77-.19-1.53-.29-2.29a27,27,0,0,0-2.79-9.18,28.31,28.31,0,0,1-2.86-9.63,7.2,7.2,0,0,1,3.69.46,7.11,7.11,0,0,0,3.67.47,2.06,2.06,0,0,0,2.05-2.11c-.63-1.47-1.42-2.15-2.39-2a4.64,4.64,0,0,1-2.88-.57c-.14-.29-.29-.58-.44-.87a13,13,0,0,1,.7-5,22.63,22.63,0,0,0,1-5,13.92,13.92,0,0,0,1.76-.45,17.26,17.26,0,0,1,2.09-.49c.44-.05,1.81-.06,4.13,0s3.59,1,3.8,2.79a5.66,5.66,0,0,1-.42,1.91,5.55,5.55,0,0,0-.43,1.91c.05.46.11.92.16,1.37a25.57,25.57,0,0,0,6.07-1.65,7.79,7.79,0,0,0,4.71-4.74c.36-.66.53-2.46.52-5.41s.51-4.47,1.61-4.6c.36,3.06,1.73,4.44,4.12,4.17a16.77,16.77,0,0,0,2.42-.52,2.69,2.69,0,0,0,1.93-1.84,5.85,5.85,0,0,0-.32-2.75c-.28-.59-.57-1.17-.86-1.76l-4.57.53c.43-.05.72-.47.85-1.26a7.87,7.87,0,0,0,.14-1.64,25.24,25.24,0,0,0-.68-2.94c-.37-1.35-.78-2-1.22-1.95.22,0,.42-.2.6-.53l.71.38c.22,0,.87.36,2,1.17a22.15,22.15,0,0,0,2.34,1.58,12.38,12.38,0,0,0,3.4.77,4.33,4.33,0,0,1,3.55,2.15q1.06,3.6,1.81,7.23a13.91,13.91,0,0,0,3.38,6.58,1.16,1.16,0,0,0,.62-.3,1.17,1.17,0,0,1,.63-.31c-.14-1.22-.28-2.44-.41-3.66l.7.38.32,0,1.7,1.9c.88,1,1.42,1.46,1.64,1.44l.33,0,.65-.07a15.44,15.44,0,0,0,3.34-1.06,12.53,12.53,0,0,0,3-1.49l-.1-.91a2.87,2.87,0,0,0-2.44-2.75,5.52,5.52,0,0,1-2.95-1.3l-.38-.43a1.57,1.57,0,0,1,.23-.95,23.22,23.22,0,0,1,.86-2.65c.43-1.12.75-1.7,1-1.73.44,0,1.38.48,2.81,1.55a29.12,29.12,0,0,0,2.86,2l.33,0a3.88,3.88,0,0,0,3.87-3.89,10.85,10.85,0,0,1,2.34-6.05,29.74,29.74,0,0,1,2.35,3.46,28.32,28.32,0,0,0,2.34,3.47c.22,0,.48.41.8,1.3a6,6,0,0,0,.84,1.77l.7.39c.1-.16.19-.33.28-.49s.51-.36.89-1c.18-.32.38-.5.6-.53q-.76-7.33-1.52-14.68l2.15-1.61a38.51,38.51,0,0,0,1.25,10.54,66.06,66.06,0,0,0,3.53,10.3l1.82-1.58q-.87-8.49-1.73-17a.91.91,0,0,0,.71.39,1.14,1.14,0,0,1,.67.16,1,1,0,0,0,.68.16c.66-.06,1,.36,1.12,1.28q.75.86,1.68,5.16c.62,2.88,1,4.77,1.07,5.69l.32,0,1-.1c.19-.32.56-1,1.12-2a9.79,9.79,0,0,0,1.08-2.42l11.12-1.09a14.27,14.27,0,0,0-1.1,4.05,19.79,19.79,0,0,0-.44,4c-.19.33-.08.86.32,1.59a9.48,9.48,0,0,0,1,1.53c.49.57,1.58.93,3.23,1.08a22.24,22.24,0,0,0,3.47.13c-.13.94-.58,1.45-1.34,1.52a14.42,14.42,0,0,0-2.42.46,8,8,0,0,0-2.66,1.41q-1.36,1.06-1.67,4.8a30.38,30.38,0,0,0-1.12-4.76,37,37,0,0,0-1.4-4.26,18.42,18.42,0,0,0-.59-2.73,21.12,21.12,0,0,0-.92-2.69c-.81-1.46-1.35-2-1.63-1.46s-1,.79-2.06.9q.65,6.43,2.26,9.51a25.52,25.52,0,0,1,2.2,9.05l-2.27.22c-.16.64-.31,1.27-.47,1.9l4.43,5.13c.25.29.41.27.49-.05s.23-.48.44-.51c0-.45-.09-.91-.13-1.37-.28-.59-.55-1.18-.83-1.78a5.27,5.27,0,0,1-.5-1.8,1.65,1.65,0,0,1,.23-.95l.56-1,1-.1q2.27-.21,3.25,3.16a12.78,12.78,0,0,1,.55,5.74c.36-3.12,1-5,2.07-5.76a11.16,11.16,0,0,1,5.1-1.41c.28,2.91.55,5.82.83,8.73a15.37,15.37,0,0,0,4.65-.9c.73-.37,2.13.11,4.22,1.46a3,3,0,0,0-1.09.56,15.67,15.67,0,0,0-1.37,1.06l.12,1.37q.35,3.69,3.66,4.3a19.49,19.49,0,0,0,4.93.48c0,.31-.07.47-.28.49-.17.63-.36,1.42-.6,2.37s-.47,1.43-.69,1.45a2.26,2.26,0,0,1-1.33-.34,5.55,5.55,0,0,0-1.35-.58,1.89,1.89,0,0,1-1-.6l-1.38-.8-1.38-.79a3.19,3.19,0,0,0-1.22.8,5.78,5.78,0,0,0-1.19,1.27,54.38,54.38,0,0,1,7.47,10.43q-1.73,2.47-3.23,1.92a8.68,8.68,0,0,0-3.77-.35,4.92,4.92,0,0,0-.19,1.41l.09.92c.27.59.73,1.48,1.38,2.65a15.38,15.38,0,0,0,1.34,2.19,11.42,11.42,0,0,0,2.36,2.79c1.3,1.27,2,2.06,2,2.36a13.69,13.69,0,0,1-.58,4.23c-.47,1.89-.91,3-1.3,3.36a2.36,2.36,0,0,0-2.77-2.06,3.83,3.83,0,0,0-1.26.35c-.42.2-.67.92-.77,2.16.88.22,1.38.95,1.5,2.17s.21,2.3.3,3.22c.2,2.14,0,3.63-.55,4.45a5.08,5.08,0,0,1-2.24,1.83,11.26,11.26,0,0,1-3.31.78,12.91,12.91,0,0,0-3.46.79c-1.21.74-1.47,2-.76,3.78s.45,3-.76,3.78c-.81-1.77-1.5-2.78-2.06-3a5,5,0,0,0-2.43-.23c-2.34.23-3.69,1.14-4.07,2.72a5.32,5.32,0,0,1-2.38,3.49l-2.73-1.58a13.84,13.84,0,0,1-2.09-1.65,17,17,0,0,0-2.1-1.64c-.25.65-.51,1.29-.77,1.94l1.15,1.73a17.57,17.57,0,0,0-1,5.44c0,1.71-.09,3.34-.14,4.88a20.43,20.43,0,0,1-.66,4.48,7.09,7.09,0,0,1-2.65,3.75,10.38,10.38,0,0,0-.65-6.19c-.84-1.92-2.1-2.8-3.79-2.62a2.54,2.54,0,0,0-2.21,1.85,22.13,22.13,0,0,0-1,4,8.13,8.13,0,0,0-.31-1.36,8.25,8.25,0,0,1-.3-1.36,6.77,6.77,0,0,1,0-1.62,5.19,5.19,0,0,0,0-1.16,13.72,13.72,0,0,1,.37-2.59,13.62,13.62,0,0,0,.37-2.59c-.13-1.22-.62-1.79-1.47-1.7l-1.9.2a8.7,8.7,0,0,0-4.09,2.3c-1.67,1.42-2.41,2.89-2.25,4.41a1.54,1.54,0,0,0,.41.89,5,5,0,0,0,2.13,1.85,5.22,5.22,0,0,1,2.12,1.86c.24.29.43,2,.54,5.05a22,22,0,0,0,.59,5.5,4.47,4.47,0,0,0,.47,1.34l.82,1.77c0,.15,0,.3,0,.46a1.6,1.6,0,0,0,.42.88q-2.28,2.57-3.7,4.11a21,21,0,0,1-2.9,2.63,6.75,6.75,0,0,1-1.79,1.13,8.3,8.3,0,0,1,1-5.68q1.38-2,1-5.67c-.27-2.44-.77-3.63-1.51-3.55l-3.31.37a13.87,13.87,0,0,0,.59,2.48,13.29,13.29,0,0,1,.59,2.49c-.07,1.25-.37,3.45-.87,6.59a21.59,21.59,0,0,0-.48,4.23l-.63.07a36.51,36.51,0,0,0-1-4.53c-.56-2.1-1.54-2.77-2.94-2a20.59,20.59,0,0,0-4.75,1.69,28.59,28.59,0,0,0-5,2.65,3.59,3.59,0,0,1-.84,1L495.55,569l-1.89.22a12.93,12.93,0,0,0-4.16-8.34q.06.47-1.2.6l1,8.71c-1.47.17-2.51-.94-3.11-3.35s-1.64-3.52-3.11-3.35c.11.92.17,2.38.2,4.39s.1,3.47.21,4.39a14.8,14.8,0,0,0,1.37,3.55c.85,1.76,1.5,2.77,1.95,3l2,.69a7.39,7.39,0,0,0,2.93.59c3,.57,5.9,1.1,8.6,1.56a49,49,0,0,1,8,2.11,24.67,24.67,0,0,0,7.63,1.7,19.3,19.3,0,0,1,7.68,2.18c.66.24,1.66.68,3,1.31s2,1.1,2,1.4a9,9,0,0,1,.92,2.69,8.76,8.76,0,0,0,.92,2.68,10.34,10.34,0,0,1,2.28.69,7.23,7.23,0,0,0,2.9.62L537,597a5.82,5.82,0,0,0,3.18-1.26,6,6,0,0,1,3.18-1.25,14.19,14.19,0,0,1,6,.55,15,15,0,0,0,6.35.52c.25,2.45.8,3.86,1.68,4.24a5.69,5.69,0,0,0,2.87.41c1.66-.16,2.61-.64,2.85-1.43a2,2,0,0,1,1.91-1.35,1.46,1.46,0,0,1,1.65.77,6.64,6.64,0,0,1,.51,2,6.23,6.23,0,0,0,.51,2,1.45,1.45,0,0,0,1.64.77q2.17-.21,1.43-3.15t1.43-3.15a2,2,0,0,1,.81.16,1.88,1.88,0,0,0,.8.16,2.6,2.6,0,0,0,1.6.31,4.3,4.3,0,0,1,1.91.28,6.92,6.92,0,0,0,2.54.23,3.82,3.82,0,0,1,1.54,3.1c.14,1.54.83,2.24,2.07,2.13l.32,0,5.44-9.29,10.93-1-.78,1.92c.81,2.09,2.2,3.13,4.19,3.11s3.59,1,4.81,3.07l-2.61,2.53a52.11,52.11,0,0,1,.19,6c-.07,1.56-.08,3.33,0,5.33s.15,3.61.25,4.83a6,6,0,0,1-.4,2.58,4.14,4.14,0,0,1-1.84.39c.06.77.13,1.53.19,2.3l3.41-.29c.25,3.06.51,6.13.77,9.19l-.31,0c-.42,0-.62-.11-.65-.41-.21,0-.44-.19-.68-.64s-.47-.65-.67-.63a10.85,10.85,0,0,0-2.67-2.09l-2.63-1.63-.58.52a6.84,6.84,0,0,0,.55,2.73.93.93,0,0,0,.81.39,1.21,1.21,0,0,1,.79.16q.33.21.45,1.59a6.86,6.86,0,0,1-.74,4,3.14,3.14,0,0,1-2.48,1.84l-1.54.13c-.24-.29-1.39-.5-3.47-.62a10.93,10.93,0,0,1-3.77-.59l-.62.06-.62,0-.53,1a1.69,1.69,0,0,0-.23,1,5.67,5.67,0,0,0-1.8.62,6.22,6.22,0,0,1-1.8.63c-.2-2.14-.4-4.29-.59-6.43a18.94,18.94,0,0,0-10.27,6.51l-.78-8.26c-.24-.29-.46-.42-.66-.4l-.62.06a9.85,9.85,0,0,0-.53,2.6,15.25,15.25,0,0,0-.18,3l-5.85.57-1.23,3.36a4.64,4.64,0,0,0-1.1-1.75,7.45,7.45,0,0,1-2.55-.67,6.28,6.28,0,0,0-2.2-.25c-.48-.57-.46-1.42,0-2.55a5.73,5.73,0,0,0,.68-2.62c-.21,0-.84,0-1.88,0s-1.67-.06-1.87,0l-.52,1-.53,1a21.27,21.27,0,0,0-2.44.48c-1.21.27-2,.43-2.44.48-.16-1.53-.31-3.06-.47-4.59a5.43,5.43,0,0,0-.48,1.44c-.14.63-.32,1-.52,1l-.62.06-.3,0c-.21,0-.55-.25-1-.82a2.91,2.91,0,0,1-.76-1.31l-.31,0-.93.09a7.45,7.45,0,0,0-1.75,4.13c-.24,1.72-.42,3.44-.55,5.15a24.43,24.43,0,0,1-.65,4.24c-.3,1.12-.76,1.71-1.37,1.77a1.68,1.68,0,0,1-2-1.18,25,25,0,0,1-.8-3.16,23.71,23.71,0,0,0-.8-3.16c-.3-.9-1.06-1.28-2.3-1.15Zm-103-144.71c-.65.08-.9.66-.76,1.73s.53,1.55,1.18,1.47c.42-.06.57-.61.43-1.69S430.47,495.72,430.05,495.78Zm13.29,14.55c-.64.08-.89.66-.75,1.72s.53,1.56,1.16,1.48c.43,0,.58-.61.44-1.68S443.77,510.28,443.34,510.33Zm-.21-9.27a5.84,5.84,0,0,0-.75,4.28c1.28-.16,2.14-1,2.59-2.66Zm3.92,30.65c.13-.64-.07-.92-.59-.86s-.65.4-.36,1,.54.86.75.83S447.13,532.32,447.05,531.71Zm0-43.7c-1.08.14-1.69,1.31-1.85,3.49a29.34,29.34,0,0,0-.12,4.2c.43-.06,1.31-.79,2.66-2.2s2-2.41,1.91-3l-.12-.91a5.62,5.62,0,0,0-1.46-1.21A2,2,0,0,0,447,488Zm1.83,6.74c-.47-.24-.6.47-.38,2.14s.51,2.34.9,2a3.56,3.56,0,0,0,.38-2.14A3.61,3.61,0,0,0,448.86,494.75Zm15,53a4.06,4.06,0,0,1-.25,1.89,2.25,2.25,0,0,0,.07,1.85c.21,0,.63.39,1.27,1.24a6,6,0,0,0,1.65,1.65c.8-.4,1.09-1.6.84-3.59s-.4-3.27-.47-3.89a14.78,14.78,0,0,0-1.44-5.16,14.84,14.84,0,0,1-1.44-5.17,8.73,8.73,0,0,1,.31-4,2.57,2.57,0,0,1,2.19-1.89l.64-.08a5.49,5.49,0,0,0,1.36,1.92c.87,1,1.41,1.46,1.63,1.43l.63-.08.64-.07a3.88,3.88,0,0,1,.84-1l1.16-1.07a6.65,6.65,0,0,1,2.62-1c1.36-.32,2.11-.79,2.25-1.43a12.11,12.11,0,0,0,.23-3.51,11.73,11.73,0,0,1,.23-3.51,8.75,8.75,0,0,0,2-1.16,6.68,6.68,0,0,1,2.61-1.24l.95-.11.32,0a7.36,7.36,0,0,1,2,.7,6.81,6.81,0,0,0,2,.69q2.24-.25,4.9-3.81a24.31,24.31,0,0,1,4.16-4.65,26.44,26.44,0,0,0,2.11,5.79c.66,1.17,1.85,1.65,3.55,1.46.42,0,1.32-.22,2.69-.53a3,3,0,0,0,2.48-2.36q.33-7.23.68-14.46c1-.72,2.47-1.66,4.4-2.79a12.65,12.65,0,0,1,4.51-1.88l.64-.07a26.15,26.15,0,0,1,2.28,1.62,16.9,16.9,0,0,1,2,1.65l.65-.07.64-.07c.21,0,.44-.35.7-1a3.4,3.4,0,0,0,.34-1.43,35.55,35.55,0,0,0,.27-5.13c0-2.78,0-4.63-.09-5.55a30.51,30.51,0,0,0,4.27-1.14,23.72,23.72,0,0,0,4.23-1.59,12.94,12.94,0,0,0,3.77-1.31,7.88,7.88,0,0,1,2.54-.72l-1.47-14.68c.12,1.23.51,1.8,1.15,1.74a24.48,24.48,0,0,0,3.6,3.35,5.34,5.34,0,0,0,2.11,1.64c.38-.65.75-1.3,1.12-2a59.06,59.06,0,0,1-4.58-10q-1.4-4.26-6.12-8.89c-1.21-1.11-3.17-2.69-5.9-4.73s-4.74-3-6-2.86a8.62,8.62,0,0,0-5.92,3.17c-1.56,1.87-3.1,3.88-4.62,6.05a46.39,46.39,0,0,1-5.08,6.11,11.74,11.74,0,0,1-7.34,3.36l-1,.1a7.06,7.06,0,0,1-2.93-1.29,15.09,15.09,0,0,1-2.66-1.8l-.65.08-.65.07a16.18,16.18,0,0,1-.2,2.58c-.17,1.41-.33,2.43-.47,3.07l-2.18,4a3.88,3.88,0,0,1-.86,1,1.14,1.14,0,0,1-.92.57l-.32,0c-.19.33-.53,1.07-1.06,2.21s-.88,1.88-1.05,2.21c-.44,0-1.3.07-2.61.06a4.19,4.19,0,0,0-2.56.53c-.21,0-.39.83-.54,2.39a26.55,26.55,0,0,0-.16,2.8,1.31,1.31,0,0,1-.37,1,5.42,5.42,0,0,0-.7,1l-1.18-1.72q-8.32,9.8-8.46,24.69-2.15-1.59-3.09,1.3c-.63,1.94-1.11,3.39-1.42,4.36a20.36,20.36,0,0,1-.19,3.74,21.32,21.32,0,0,0-.19,3.74l-2.23.27-3.63-8.38c0,.31.06.92.07,1.85a23.08,23.08,0,0,0,.12,2.31,18.8,18.8,0,0,0,1.54,5.85,19.1,19.1,0,0,1,1.53,5.85,2.72,2.72,0,0,1-.05.94,2.67,2.67,0,0,0,0,.93c0,.46.11.92.17,1.37a3.22,3.22,0,0,1-1.71,1.84c-1,.59-1.73.76-2.2.51q.78,6.18,1.54,12.35l-3.16.4c.09.76.19,1.52.29,2.29a6,6,0,0,0,3.2-1.33A6.62,6.62,0,0,1,463.89,547.72Zm-2.17,11c.13-.64-.07-.92-.59-.86s-.65.39-.36,1,.54.86.75.83S461.79,559.29,461.72,558.68Zm-11.86-87.29a1.25,1.25,0,0,0,.6.85,1.29,1.29,0,0,1,.59.86,17.43,17.43,0,0,1,2.81.11,15.52,15.52,0,0,0,2.8.12c-.37-3-1.2-4.5-2.5-4.34l-.65.08a5,5,0,0,0-1.86.93A19.57,19.57,0,0,0,449.86,471.39Zm4.56,5c-.65.08-.91.65-.77,1.72s.52,1.56,1.16,1.48q.65-.08.45-1.68C455.13,476.85,454.85,476.34,454.42,476.4Zm-2.58-26.17q.45,3.67,2.63,5.25a5.8,5.8,0,0,0,4.12,1.35q-.61-5-2.06-6C455.57,450.16,454,450,451.84,450.23Zm17.48,118.2c-.42.05-.55.69-.4,1.9s.43,1.81.85,1.76q.94-.12.72-2T469.32,568.43Zm-.11-21.83c-.63.08-.86.8-.69,2.18s.56,2,1.2,1.94.86-.8.69-2.17S469.84,546.52,469.21,546.6ZM459,462.83c.15,1.22.65,1.77,1.52,1.67.82-.41,1.2-1.31,1.15-2.7s-.12-2.38-.2-3a3.37,3.37,0,0,0-1.86.92,3,3,0,0,0-.67,2.64Zm3.52,28.84c.11.91.6,1.32,1.45,1.21,0-.3-.07-.61-.11-.91l-.06-.46a1.89,1.89,0,0,0-.78-1.07,1.89,1.89,0,0,1-.78-1.06c0,.46.11.91.17,1.37S462.47,491.36,462.51,491.67Zm20.6,127.58q-1.25.15-1,2c0,.3.08.61.11.91s.08.61.11.92a25.56,25.56,0,0,1,3.06-2c1.08-.59,1.5-1.95,1.24-4.09,0-.3-.1-.45-.21-.44s-.17-.13-.21-.44c0-.15,0-.31-.05-.46a12.35,12.35,0,0,0-2.6-2c-1.26-.78-2.1-1.29-2.55-1.55l-1,2c-.06.32-.13.64-.19,1l.11.92q.06.47.36.42a4.8,4.8,0,0,0,1.16,1.72C482.13,618.9,482.69,619.3,483.11,619.25Zm-.35,7.47c-.62.08-.86.65-.74,1.72s.51,1.56,1.13,1.49.86-.65.73-1.72S483.38,626.65,482.76,626.72ZM464.43,475.17l1.29-.15-.66-5.5-1.29.16Zm9,63.95c.14-.63-.06-.92-.59-.86s-.75.4-.68,1,.27.9.59.86S473.31,539.76,473.45,539.12Zm10.93,90.66c-.42.05-.57.46-.48,1.22s.34,1.12.76,1.07C485.61,631.33,485.52,630.57,484.38,629.78Zm-19-165.87c.14-.63-.06-.92-.6-.86s-.67.4-.37,1,.54.86.76.84S465.44,464.53,465.37,463.91Zm16.42,144.35L484,608c0-.45-.11-.91-.16-1.37l-2.18.26C481.68,607.34,481.73,607.8,481.79,608.26Zm6.26,23.4c.14-.63-.06-.92-.57-.86s-.74.4-.66,1a.9.9,0,0,0,.83.36A.4.4,0,0,0,488.05,631.66Zm.31-7.93c-.62.07-.84.79-.68,2.17s.56,2,1.17,2,.85-.8.69-2.17S489,623.65,488.36,623.73Zm-5.07-42.59,1.25-.15c-.07-.61-.14-1.22-.22-1.83l-1.25.15C483.14,579.92,483.21,580.53,483.29,581.14Zm-14-128.38c-.65.08-.9.73-.76,1.95s.55,1.79,1.2,1.71.9-.72.75-1.95S470,452.68,469.3,452.76Zm1.52,1.68c-.65.07-.9.73-.76,1.94s.54,1.8,1.19,1.72.9-.72.76-2S471.47,454.36,470.82,454.44Zm4,22.74q-1,.12-.75,1.95c.15,1.22.54,1.79,1.19,1.72s.88-.73.75-2S475.47,477.11,474.82,477.18Zm16.45,139.23,2.48-.29-.73-.84a.86.86,0,0,0-.67-.39l-.68-.38c-.21,0-.4.21-.57.53C491.16,615.5,491.21,616,491.27,616.41ZM474.5,452.14a5,5,0,0,0,.49,2.73c.46,1.19.84,2.07,1.13,2.66l.65-.08.65-.08,3.68-2.28c0-.31-.07-.61-.1-.92a11.81,11.81,0,0,0-1.7-4.68,7.24,7.24,0,0,0-3.16-3.11,24.51,24.51,0,0,1-1,2.9A6.82,6.82,0,0,0,474.5,452.14ZM499.59,615a4,4,0,0,0-2.53,1.22,4,4,0,0,0-.71,3.33l3.72-.43Zm2.38-1.2c.07.61.15,1.3.23,2.06a6.37,6.37,0,0,0,.55,2c.31.9.63,1.79.94,2.68l1.55-.18q-.66-5.72-1.31-11.45C502.27,609.1,501.62,610.73,502,613.78ZM484.26,451c-.44.05-.59.69-.44,1.91s.42,1.81.86,1.76c.86-.1,1.23-.76,1.09-2S485.12,450.91,484.26,451Zm2.25,19.7c-.43.05-.58.62-.46,1.68s.4,1.58.83,1.53c.86-.1,1.23-.68,1.11-1.75S487.38,470.62,486.51,470.71Zm-.75-29.62c-1.09.13-1.85,1.14-2.29,3.05l2.6-.3C486,442.93,485.86,442,485.76,441.09Zm2.16,27.61c.22-1.89.38-3.45.45-4.7a27.86,27.86,0,0,0-.2-4.62c-.07-.6-.17-1.52-.31-2.75s-.66-1.93-1.56-2.14Zm13.73,86.63.79-1.49-2.53.29Zm8.5,44.52c-.62.07-.86.72-.72,1.94s.51,1.8,1.14,1.73.86-.72.72-1.94S510.78,599.78,510.15,599.85Zm-4.53-51.93c.14-.63-.05-.92-.58-.87s-.76.4-.69,1Q505.3,550.75,505.62,547.92ZM515,631.79c.14-.63-.05-.92-.56-.86s-.73.39-.67,1Q514.68,634.62,515,631.79Zm-19.7-176.45c1.07,1.73,2,3.25,2.8,4.55a3.35,3.35,0,0,0,3.47,1.71l1.95-.21c.65-.08,1-.73,1.1-2-.22,0-.47-.25-.75-.85s-.54-.87-.75-.84a7.13,7.13,0,0,1-1.86-.49,5.27,5.27,0,0,1-1.92-1c-.22,0-.49-.48-.82-1.54s-.62-1.55-.83-1.53l-.65.07-1,.11c-.19.33-.37.66-.55,1A1.51,1.51,0,0,0,495.28,455.34Zm21.61,151.19c.14-.64-.26-.9-1.19-.8s-1.27.45-1,1a1.22,1.22,0,0,0,1.34.78A.83.83,0,0,0,516.89,606.53Zm3.93,1.42c.83-.09,1.59-.79,2.29-2.1l-2.49.27C520.69,606.73,520.75,607.34,520.82,608Zm-6.13-91.65,1.27-.14c-.06-.61-.13-1.22-.2-1.83l-1.27.14C514.55,515.08,514.62,515.69,514.69,516.3Zm3.88,12.11c-.07-.62-.13-1.23-.2-1.84l-1.27.14Zm-3.72-25.58a34.21,34.21,0,0,0,.74,3.86,40.57,40.57,0,0,0,1.5,4.94,25.5,25.5,0,0,0,2.09,4.42c.79,1.31,1.71,1.9,2.77,1.79l.27-.49.54-1,.54-1a18.8,18.8,0,0,0-.16-4.62c-.26-2.44-.42-4-.49-4.59a3.6,3.6,0,0,0-2.68,2.14,21.19,21.19,0,0,0-2-3.95A3.11,3.11,0,0,0,514.85,502.83Zm-1.12-62.49c.06.61.22,1.6.48,3s.83,2.16,1.73,2.37c.86-.09,1.24-.75,1.11-2,0-.31-.07-.62-.1-.92-.13-1.22-.53-1.95-1.22-2.19A4.68,4.68,0,0,0,513.73,440.34Zm9.07,82.51,1.28-.13-.24-2.3-1.28.14Zm11.34,83.21a15.64,15.64,0,0,1,5.24,5,1.06,1.06,0,0,0,.89-.55l.52-1c-.06-.61-.15-1.92-.25-3.92s-.18-3.3-.24-3.91a5.31,5.31,0,0,0-3.13,1.71A27.54,27.54,0,0,1,534.14,606.06Zm3.24,30.73,1.54-.17a4.67,4.67,0,0,0-1.93-3.5Zm1.09-22.38a47.74,47.74,0,0,0,.84,5q.59,2.72,2.76,2.49l.93-.09a43.5,43.5,0,0,0-1.47-5.18C540.93,615,539.92,614.26,538.47,614.41ZM530,523.49c.06.62.24,1.91.56,3.88s1,3.07,2.11,3.26c1-.41,1.44-1.61,1.23-3.6s-.34-3.28-.4-3.9ZM533.39,538c-.13-1.22-.26-2.44-.38-3.67-.48.52-1,1-1.45,1.54Zm-5.07-45.84a1.56,1.56,0,0,0,.42.89,1.58,1.58,0,0,0,.41.88l.74.85c.17-2.49,1.1-4,2.79-4.46a7.42,7.42,0,0,1,4.55,0c-.56-1.18-1.27-1.73-2.12-1.64l-1.93.19c-.43,0-1.39.22-2.87.53A2.27,2.27,0,0,0,528.32,492.13Zm10.24,1.74q-.6.53-1.65,1.32a2.26,2.26,0,0,0-.91,2.18l4.49-.45Zm-7.13-47.95,2.28-.23c-.07-.61-.13-1.23-.19-1.84l-2.28.23C531.3,444.69,531.37,445.31,531.43,445.92Zm21.14,187c-.42.05-.55.75-.41,2.13s.41,2.05.82,2c.82-.08,1.16-.81,1-2.18S553.38,632.82,552.57,632.9Zm-7.14-109.13,1.41-2-2.55.25Zm-2.15-21.57c-.43,0-.58.68-.46,1.9s.4,1.82.83,1.77c.85-.08,1.21-.73,1.1-2S544.13,502.12,543.28,502.2Zm.92-7c-.06-.61-.36-.89-.89-.84s-.78.39-.71,1c.27.59.57.87.89.84S544.05,495.8,544.2,495.16Zm.55,21.73,1.59-.16-.18-1.84-1.6.16C544.62,515.66,544.68,516.28,544.75,516.89Zm5.6,4.54c-.06-.61-.37-.89-.89-.84s-.66.38-.39,1,.57.87.89.84S550.41,522.05,550.35,521.43ZM548,511l1.28-.13-.18-1.83Zm-1.51-28.58c-.64.06-.92.63-.81,1.7s.48,1.57,1.12,1.51.92-.62.81-1.7S547.16,482.35,546.52,482.42Zm1.59,6.33a17.11,17.11,0,0,0,2.39,7.87,29.27,29.27,0,0,1,3.26,6.87,4.45,4.45,0,0,0,.74-2.39c0-.15,0-.3,0-.46l-.09-.91a14.47,14.47,0,0,0-.76-2.94,16.8,16.8,0,0,1-.73-2.48c-.64-2.1-1.06-3.61-1.25-4.51S550.25,488.54,548.11,488.75Zm6.67,25.3c-.64.06-.91.63-.8,1.7s.47,1.57,1.11,1.51c.43,0,.59-.59.48-1.67S555.2,514,554.78,514.05ZM551.4,469c-.44,0-.58.75-.45,2.13s.4,1.89.8,1.54a2.94,2.94,0,0,0-.35-3.67Zm.63-7c-.65.06-.91.71-.79,1.93s.5,1.8,1.14,1.74.91-.7.8-1.93S552.68,461.9,552,462Zm8.23,31.64-.18-1.83-3.85.36Zm12.55,112.77c-2.28.22-3.31,1.55-3.07,4,1.45-.14,2.68-1.48,3.69-4ZM559,466.39c-.66.06-.91.78-.78,2.16s.52,2,1.17,2,.9-.78.77-2.15S559.63,466.33,559,466.39Zm1.46,1.72c-.65.06-.91.7-.79,1.92s.49,1.81,1.14,1.75.91-.7.8-1.93S561.1,468.05,560.45,468.11Zm18.41,146a2.83,2.83,0,0,0,.75,1.32l.7.86q.93-.09,1.89-1.56c.64-1,1.14-1.8,1.5-2.46l-1.41-1.72-.62.06-.62.05a3.19,3.19,0,0,1-1.16,1,3.27,3.27,0,0,0-1.16,1l.09.92C578.83,613.84,578.85,614,578.86,614.15Zm4,15.84c0-.46-.09-.92-.13-1.38l-1.23.12Zm-1-24.45c-.62.05-.89.62-.79,1.69s.46,1.58,1.08,1.52.88-.61.79-1.69S582.45,605.48,581.83,605.54Zm3.85,1c-.82.07-1.19.73-1.07,1.95s.58,1.8,1.41,1.72q.62-.06.45-1.89C586.36,607.14,586.1,606.54,585.68,606.58ZM596.3,631.1c-1.44.12-2.22.81-2.31,2l.62,0,.62-.06a3.14,3.14,0,0,1,1.15-1c.59-.36.87-.69.85-1Z"/><path class="cls-2" d="M669.14,619.93a29.54,29.54,0,0,0-2.32,2.46,32.22,32.22,0,0,1-2.32,2.47c-1.81.74-4-.12-6.55-2.55s-4.87-3.59-6.93-3.44a2.42,2.42,0,0,0-2.1,1.07,11.33,11.33,0,0,0-.93,2.15,6.23,6.23,0,0,1-1.24,2.17,4.85,4.85,0,0,1-3.33,1.17q-.3-3.9-.58-7.82a3.8,3.8,0,0,1-.86,1,4.79,4.79,0,0,1-1.48,1c-.65-.26-1.46-1.35-2.43-3.29s-2-3.93-3-6-1.88-4.09-2.65-6a18,18,0,0,1-1.24-3.84,23.25,23.25,0,0,1-.05-2.77,3.1,3.1,0,0,1,1.53-2.43,11.93,11.93,0,0,1-5.07-.76,16.58,16.58,0,0,1-4.26-2.22q-2.62-13.2-4.62-24.38t-3.07-24.51l-1.32-16.55a86.12,86.12,0,0,1,.27-16.67,20,20,0,0,1,1.21-5,19.91,19.91,0,0,0,1.22-4.95c-.05-.61-.1-1.23-.14-1.84a41.72,41.72,0,0,0-1.5-8.67,44.89,44.89,0,0,1-1.53-9.13l-.54-6.9c-.25-3.06-.38-6.14-.41-9.22s.06-6,.28-8.81a20.45,20.45,0,0,1,1.16-6.11L604.25,320.38c1.6-2.59,2.34-4.81,2.19-6.65a8.42,8.42,0,0,0-1.74-5,7.54,7.54,0,0,1-1.71-4.5q-.18-2.29,3.21-4.64t4.75-2.45a2.08,2.08,0,0,1,2.55,2.12c.11,1.54.84,2.25,2.2,2.15q2.7-.21,2.57-4.35c-.1-2.77-.19-4.92-.31-6.46a13.16,13.16,0,0,1,6.24,1.4c2.35,1.06,3.64,3.28,3.89,6.65a9.6,9.6,0,0,1-.53,4.43,32.43,32.43,0,0,1-2.26,4.1,3.88,3.88,0,0,0,.64,1.8,1.63,1.63,0,0,0,1.59.81c.22,0,.65-.35,1.28-1a2.54,2.54,0,0,0,.88-1.91l.27,3.68a27.3,27.3,0,0,1,3.89,0c1,.09,1.46-1.09,1.28-3.55,0-.77-.1-1.54-.16-2.3-.29-.91-.6-2.11-.93-3.64s-.67-3-1-4.55-.68-3.19-1-5l-3.55-2.06a7.07,7.07,0,0,1,2.21-2.47l.68,0c3.17-.22,5.1,1.49,5.82,5.14a57.05,57.05,0,0,1,1.07,10.56c2.24-.15,3.73-.79,4.45-1.92a13.92,13.92,0,0,0,1.63-3.58c.37-1.25.74-2.43,1.12-3.54a2.66,2.66,0,0,1,2.61-1.79c.22,0,.86,1,1.91,3.11s2.1,4.41,3.17,7,2,5.11,2.87,7.67a26.74,26.74,0,0,1,1.36,5.22,46.87,46.87,0,0,1-1,11.62,88.9,88.9,0,0,0-1.54,12.58c-.15,1.24-.38,1.95-.7,2.12a1.16,1.16,0,0,1-1,.07q-.51-.19-1.2-.39t-1.29.78a13.09,13.09,0,0,0-2.08,4.07,45.5,45.5,0,0,0-1.89,6.83,64.82,64.82,0,0,0-1,7,15.91,15.91,0,0,0,.18,5.08,14.8,14.8,0,0,0,1.38,3.14,9.11,9.11,0,0,0,2,3.1c0,.46.07.92.1,1.38l.06.92a12.92,12.92,0,0,0-1,4.46,32.25,32.25,0,0,0-.37,4.41,7.06,7.06,0,0,0,1.21,3.16,31.44,31.44,0,0,0,1.21,3.15,15.68,15.68,0,0,0-1.17,4.7,27.36,27.36,0,0,1-1.15,5.17,5.56,5.56,0,0,0,2.17,2.62,33.47,33.47,0,0,1,2.77,1.9,9.54,9.54,0,0,1,2.53,3.29,18.65,18.65,0,0,1,1.45,6.84,16.73,16.73,0,0,1-.46,5.58,16.72,16.72,0,0,0-.45,5.57,26.15,26.15,0,0,0,.39,3.44,27.78,27.78,0,0,0,1.05,3.4A22.53,22.53,0,0,1,661,431c1.65.2,3.3.32,4.94.37s3.23.19,4.78.39A18.36,18.36,0,0,0,674,432l1.63-.1a3.76,3.76,0,0,0,2.41-.84c.51-.49.7-2,.55-4.42l3.6-.22c2.17-.13,3.52.34,4,1.38a2.29,2.29,0,0,0,2.38,1.48l.65,0c.21,0,.32-.17.3-.48a8.5,8.5,0,0,1,1.16-2.61c.79-1.43,1.41-2.16,1.85-2.18l.65,0a3.54,3.54,0,0,1,3.37,1.43l2.13,3.12c.71,1,1.48,2.07,2.3,3.1a3.93,3.93,0,0,0,3.52,1.43c1.52-.08,2.47-.66,2.85-1.77a17.75,17.75,0,0,0,.81-3.27,10.25,10.25,0,0,1,1.14-3.29q.9-1.67,4.5-1.85c.23,4.61.11,7.69-.35,9.26a11.08,11.08,0,0,1-1.62,3.54,15.23,15.23,0,0,1-1.7,1.93c-.52.49-.72,1.82-.61,4l.21,4.15a16.41,16.41,0,0,0,1.31,3.16,8.85,8.85,0,0,0,1.95,3.13,18.09,18.09,0,0,1-.32,3.25c-.25,1.56-.54,3.19-.89,4.9a13.23,13.23,0,0,1-1.71,4.47c-.8,1.28-1.65,1.63-2.54,1.06q-.66,0-1.89-2c-.83-1.34-1.36-2.15-1.59-2.45l-1,.05-.65,0a2,2,0,0,1-.59,1.18,1.91,1.91,0,0,0-.58,1.19c0,.61.07,1.23.1,1.84,0,.15,0,.31,0,.46a41,41,0,0,0,.9,4.57q.85,3.66.87,4.11l.15,2.76.1,1.85a12.28,12.28,0,0,0-2.48-1,10.64,10.64,0,0,0-2.13-.58l-1,0a2.82,2.82,0,0,0-2.62,2.23,39,39,0,0,0-1.19,4.69,20.22,20.22,0,0,1-1.51,4.7,3.62,3.62,0,0,1-3.25,2.27,10.77,10.77,0,0,1-6.72-1.91,11.64,11.64,0,0,0-7.37-1.86,5.9,5.9,0,0,0-1.91.35,6.29,6.29,0,0,0-1.83,1.73,20.75,20.75,0,0,0,.42-3.49,8.41,8.41,0,0,1,.75-3.51c.35-1.26.71-2.51,1.06-3.77a14,14,0,0,0-2.4-4.7c-1-1.32-2.11-2.56-3.15-3.73a16.66,16.66,0,0,1-2.71-4.21,17.58,17.58,0,0,1-1.37-6.15,40.34,40.34,0,0,1,.51-7.2c.44-3.26,1.31-4.94,2.61-5l1.36.84a4.1,4.1,0,0,0,2,.8l.59-1c.2-.32.4-.64.59-1a15.12,15.12,0,0,0-2.75-7.45q-2.54-3.76-5.14-3.6l-2.61.17c.45.28,1.37.91,2.74,1.9a15.26,15.26,0,0,1,2.77,2.37l.06.92c.06.92-1,2.76-3.24,5.52a24.69,24.69,0,0,0-4.4,7.45c-.6,4.05-1.39,6.87-2.37,8.48a41.57,41.57,0,0,1-2.81,4.12,15.72,15.72,0,0,0-2.3,4.31q-1,2.63-.54,8.59l.32,0a24.21,24.21,0,0,0-4.78-1.29,5,5,0,0,1-2.15-.54,4.65,4.65,0,0,1-1.42-1.75c-.5-.89-1.37-2.51-2.62-4.9l-.32,0a.87.87,0,0,1-.68-.42c-1.94.14-2.78,1.9-2.54,5.27a10,10,0,0,0,1.61,4.28,39.72,39.72,0,0,0,3.42,4.84,11.84,11.84,0,0,0,4.12,3.41,3.6,3.6,0,0,0,3.71,0c-.78,4.37-2.39,7.33-4.86,8.89a12.81,12.81,0,0,0-5.28,7.09c.29,1.21.66,1.88,1.1,2a4.8,4.8,0,0,0,1.62.11,4.5,4.5,0,0,1,2,.32,5.45,5.45,0,0,1,2,1.71,12.58,12.58,0,0,0,.64,2.26,13.06,13.06,0,0,1,.64,2.27,1.23,1.23,0,0,0,1.92-.13,28.23,28.23,0,0,1,2.07,11.41,105.51,105.51,0,0,0,.27,12.92l2.85-.19c.06.92.08,2.07.08,3.46a5.65,5.65,0,0,1-1.19,3.55q.69,9.89,1.37,19.78a5.57,5.57,0,0,0-2.68,2.27,5.08,5.08,0,0,0-.45,2.57,15.61,15.61,0,0,0,.52,3,19,19,0,0,1,.56,3.43,7.48,7.48,0,0,0,4.14-1.68q1.94-1.51,3.73-3c.68,4,2.75,7.9,6.14,11.83s6.48,6.28,9.25,7a4.42,4.42,0,0,0,1.36-.78c.7-.51,1.24-.93,1.65-1.26.62,0,1.78,0,3.45,0s3.46.18,5.35.37,3.73.32,5.51.37,3.08.05,3.91,0a14.79,14.79,0,0,0,5.92-.57c1.64-.55,2.56.86,2.74,4.24a14.35,14.35,0,0,0,5.71-1.47,15.38,15.38,0,0,1,6-1.47c.41,0,1.41,0,3,.08a2.3,2.3,0,0,1,2.47,2.42,11.39,11.39,0,0,1-.51,2.33c-.18.62-.36,1.25-.53,1.87a28.92,28.92,0,0,0,.15,6c.25,3.07.4,4.91.43,5.52-.29.47-.57,1-.86,1.43-.2.32-.4.48-.6.49s-.3.17-.28.48c-.41.33-1.61,1.08-3.62,2.26a14.8,14.8,0,0,0-3.3,2.25,13.17,13.17,0,0,0-3,4.32c-.45,1.25-.86,2.28-1.23,3.07a4.4,4.4,0,0,1-2.07,2c-1,.52-2.95.86-5.83,1a14.24,14.24,0,0,1-2.33-.1,16.36,16.36,0,0,0-1.71-.13l-1.68-2.21-3.16,4.34c.67.73,1.33,1.46,2,2.2a4.68,4.68,0,0,0-2.09,1.27A5,5,0,0,1,691,632l-.93,0-.61,0a21.47,21.47,0,0,1-3.81-1.39c-1.48-.68-3-1.28-4.45-1.8s-2.85-1.05-4.13-1.58a9,9,0,0,0-2.22-.78c-.23-.3-1-1.33-2.22-3.1s-2.11-2.93-2.56-3.52l-.62,0Zm-45.71-79.47,1.9-.15-.36-4.6C624.46,537.3,623.94,538.88,623.43,540.46ZM609.14,331.1c.34,1.52,1.52,2.19,3.54,2a6.4,6.4,0,0,0,3.6-1.43,7.65,7.65,0,0,1,4.28-1.48q-.3-3.9-.58-7.82a7.87,7.87,0,0,0-6,3.46A26.19,26.19,0,0,1,609.14,331.1Zm19,204.37a33.34,33.34,0,0,0,.44,3.67,16.26,16.26,0,0,0,1,3.16c2,.47,3-.3,3.17-2.33a30.8,30.8,0,0,0,.15-4.4c-.07-.92-.31-2.67-.72-5.27s-1.24-3.83-2.52-3.74c-1.49.12-2.13,1.32-2,3.62S628.05,534.25,628.14,535.47Zm-8.45-230.61a8,8,0,0,0-5.53,3.19,10,10,0,0,0-2.14,7.56c2.91-.22,5-1,6.26-2.32S620,309.16,619.69,304.86Zm1.69,36.41a3.81,3.81,0,0,0-1.86,2.22,9.22,9.22,0,0,0-.14,2.55l.81,1.79,2.36-4.33Zm4,84.8a12.75,12.75,0,0,0,2.1,6.08,5,5,0,0,0,4.79,2.66,13.22,13.22,0,0,0-2.07-5.86Q628.32,425.85,625.37,426.07Zm9.74,100.09.78-2.37c-.37-.75-.75-1.49-1.12-2.23-.48.8-.95,1.61-1.42,2.42ZM624.69,385.88c-.47-.27-.66.05-.59,1s.32,1.37.76,1.33C625.85,386.57,625.8,385.8,624.69,385.88Zm15,164q-3.48.25-3.06,5.78Q640.14,555.39,639.73,549.86ZM627,416.7c.28-.64.56-1.28.85-1.92l-1,.08C626.89,415.47,626.93,416.08,627,416.7Zm7.79,91.91c.33-1.25.23-1.87-.3-1.83s-.75.68-.66,1.9c.26.6.5.89.71.87S634.82,509.23,634.77,508.61Zm.85,24.45,1-.07-.17-2.3-.95.07C635.51,531.52,635.57,532.29,635.62,533.06Zm5.52,61.56,1.87-.14q-.63-8.51-1.25-17l-1.75,2Q640.58,587,641.14,594.62ZM621.32,299.19q-1.7.13-1.53,2.43c.12,1.54.73,2.26,1.87,2.17.67-.05,1-.83.84-2.37S622,299.14,621.32,299.19Zm3.17,34,.74.87a12.64,12.64,0,0,1,4.85,6.58,10.54,10.54,0,0,0,4.81,6.13l2.72-4.35,3.63,3.91,3.91-6.74c-.37-2.13-1.66-2.81-3.84-2.05s-3.4,1.16-3.62,1.18a9.56,9.56,0,0,1,.68-4.67c.59-1.27,1.22-2.55,1.93-3.83a39.93,39.93,0,0,0,1.91-4.06,12.06,12.06,0,0,0,.65-5.36,10.53,10.53,0,0,0-5.93,2.25,10.5,10.5,0,0,1-5.92,2.27q-2,.15-2.52-2.13a15.43,15.43,0,0,0-3.08,4.15q-1.8,3.15-1.66,5Zm2.08,19.27c-.27-.6-.36-.36-.28.71s.22,1.61.45,1.59a2.45,2.45,0,0,0,.88-1.68C627.59,352.61,627.24,352.4,626.57,352.45Zm3,13.19,1.83-2.44-4,.29Zm12.29,195.63,5.36-.39a3.75,3.75,0,0,0-.62-2l-1.22-1.53Q643.58,559.29,641.83,561.27Zm.92-207.66a21.42,21.42,0,0,0-4.45,3.55,30.92,30.92,0,0,0-4.45,5.63,42,42,0,0,0-3.36,6.71,15.49,15.49,0,0,0-1.18,6.79c.22,0,1.09-1.15,2.59-3.42s3.11-4.69,4.82-7.28,3.26-5.08,4.66-7.49,2.09-3.76,2.07-4.07Zm-11.61,34.11,2-.14L631,385.42C631,386.19,631.09,387,631.14,387.72Zm12.72,148.9c.15,2.15.73,3.64,1.75,4.49a4.31,4.31,0,0,0,3.11,1.17c-.07-.92-.31-2.82-.72-5.73s-1.37-4.29-2.85-4.19l-.32,0a3.37,3.37,0,0,0-.81,2.14A15.19,15.19,0,0,0,643.86,536.62Zm-9.74-153.74,1-.07c0-.61-.09-1.22-.13-1.84ZM638,422.83a10.73,10.73,0,0,1,4.1,2.26c1.63,1.27,2.87,1.87,3.75,1.81L647,425c.39-.64.84-1.36,1.33-2.17a17.4,17.4,0,0,0,1.3-2.63c1-1.91,2.22-4.31,3.8-7.19a8.15,8.15,0,0,0-1.39-5.91q-1.83-2.65-3.48-2.54a34.28,34.28,0,0,0-3.44.46,21.86,21.86,0,0,0-4.21,1.22,9.52,9.52,0,0,0-3.47,2.33,4.76,4.76,0,0,0-1.21,3.78c.11,1.54.39,2.52.87,2.95a6,6,0,0,0,1.56,1c.56.27,1.07.55,1.54.82s.72,1,.81,2.25c0,.46.07.92.1,1.38l-1.24,1A4,4,0,0,1,638,422.83ZM639.9,450a4.77,4.77,0,0,1,1.22,1.07,1.4,1.4,0,0,0,1.19.61l.68.42.29-.49a1.05,1.05,0,0,0,.93-.75,2.88,2.88,0,0,1,.89-1.22c0-.62-.08-1.23-.13-1.84l0-.46c-.75-1.49-1.46-2.21-2.11-2.17l-.36-.43c-.22,0-.43.19-.62.5-.87.06-1.57.89-2.11,2.46l0,.46C639.82,448.75,639.86,449.36,639.9,450Zm2.9,8.58a2.2,2.2,0,0,0,.56,1.12,2.16,2.16,0,0,1,.57,1.11l1-.06,1-.07c-1.19-1.46-1.9-2.18-2.11-2.17l-.36-.43C643.19,458.06,643,458.24,642.8,458.55ZM656.46,612c-1,.07-1.51.8-1.41,2.18s.66,2,1.7,2,1.5-.8,1.4-2.18S657.49,611.94,656.46,612Zm-9.81-140.32c-.46-.27-.64.12-.57,1.2s.3,1.29.7.64a1.34,1.34,0,0,0,.56-1.2C647.31,471.87,647.08,471.66,646.65,471.69Zm6,85.11q-.71-.87-.6.51c.06.92.3,1.36.73,1.33a1.39,1.39,0,0,0,.55-1.19C653.25,557,653,556.77,652.6,556.8Zm-9.89-169.9c-1.1.08-1.61.81-1.51,2.19s.7,2,1.8,2c.66,0,.94-.76.85-2.14S643.37,386.85,642.71,386.9Zm1.87-6.6c.4-.64-.06-.92-1.38-.83s-1.64.42-.93,1c0,.62.39.9,1.05.85A1.29,1.29,0,0,0,644.58,380.3Zm5,86.56c-.1-1.38-.19-2.76-.29-4.14l-1.16,1.93C648.59,465.39,649.07,466.13,649.56,466.86Zm-8.13-117.78q-1,.07-.84,2.37c.11,1.54.49,2.28,1.16,2.23q.66,0,.51-2.34C642.15,349.8,641.88,349.05,641.43,349.08Zm7,86.89a20.82,20.82,0,0,0,1.49,5c.92,2.41,2,3.56,3.34,3.47,1.52-.1,2.33-1,2.44-2.7a38.3,38.3,0,0,0,0-4.39,15.81,15.81,0,0,0-1-5q-.78-1.8-3.39-1.62Q648.06,430.92,648.41,436Zm10.37,150.91,2.19-.15-.12-1.84ZM651.14,452c.07.92.31,1.37.74,1.34q.81,2.26,1.85,5.65c.69,2.27,1.26,3.38,1.7,3.35l2.26-.15a27.14,27.14,0,0,0-1.64-7.51c-.94-2.56-2.59-3.76-5-3.6Zm15,150.61c-.62,0-.88.75-.79,2.13s.45,2,1.07,2c1-.07,1.51-.8,1.42-2.18S667.15,602.5,666.11,602.57ZM653.3,315c-.86.68-2.08,1.76-3.68,3.25a7.06,7.06,0,0,0-2.14,5.92l.12,1.84a49.63,49.63,0,0,0,3.54-5.32A17.38,17.38,0,0,0,653.3,315Zm23.26,280c-.83,0-1.2.77-1.11,2.15s.54,2,1.38,2,1.2-.77,1.11-2.15S677.39,594.9,676.56,595Zm-1.3-143.17q.32,5.07,3.55,4.87c0-.92-.11-1.84-.16-2.76a24.05,24.05,0,0,0-1-3.18,20.37,20.37,0,0,1-1-3.17Q675,448.11,675.26,451.78Zm2.83,19.7,1.94-.12c-.13-2.14-.86-3.49-2.19-4C677.92,468.72,678,470.1,678.09,471.48Zm6.34-24.41c-1.08.07-1.58.79-1.5,2.17s.66,2,1.75,2c.86-.05,1.25-.77,1.17-2.15S685.29,447,684.43,447.07ZM698.88,613q-3.11.18-2.8,5.25l.64.42c1-.06,1.67-.71,1.91-2A15,15,0,0,0,698.88,613Zm-1.27-22.1c-.83.05-1.2.92-1.1,2.61s.56,2.5,1.39,2.46c.62,0,.89-.9.79-2.59S698.23,590.86,697.61,590.9Zm-6.37-133.14,1-.05.33,0a2.87,2.87,0,0,1,.61-.73,2.86,2.86,0,0,0,.61-.72c.2-.32.4-.64.59-1a16.75,16.75,0,0,0-.84-3.42,11.73,11.73,0,0,0-1.5-3.38Q691.64,453.13,691.24,457.76Zm5.68,8.46,1.16-2.37c-.47-.75-1-1.49-1.42-2.23C696.74,463.15,696.83,464.69,696.92,466.22Zm4.84-18.28.68.43.65,0c.21,0,.32-.17.3-.48l.3-.48a1.36,1.36,0,0,0,.29-.7,1.36,1.36,0,0,1,.29-.71,24.16,24.16,0,0,1,.85-2.36l-4.88.27C700.75,445.22,701.26,446.58,701.76,447.94Z"/><path class="cls-2" d="M785.61,614.18a31.68,31.68,0,0,0-2.4,2.38,32.58,32.58,0,0,1-2.4,2.39c-1.83.68-4-.25-6.45-2.77s-4.74-3.76-6.81-3.68a2.42,2.42,0,0,0-2.13,1,11.45,11.45,0,0,0-1,2.11,6.09,6.09,0,0,1-1.31,2.13,4.86,4.86,0,0,1-3.37,1.06q-.16-3.93-.31-7.84a4,4,0,0,1-.9,1,4.66,4.66,0,0,1-1.51,1c-.63-.28-1.41-1.4-2.31-3.37s-1.83-4-2.75-6.12-1.73-4.15-2.44-6.13a16.83,16.83,0,0,1-1.1-3.87,23.28,23.28,0,0,1,0-2.77,3.08,3.08,0,0,1,1.62-2.38,11.79,11.79,0,0,1-5-.94,16.64,16.64,0,0,1-4.18-2.35q-2.18-13.29-3.79-24.53t-2.23-24.59q-.39-8.29-.77-16.59a87.2,87.2,0,0,1,.84-16.66,19.49,19.49,0,0,1,1.38-4.91,19.75,19.75,0,0,0,1.38-4.91c0-.61,0-1.23-.08-1.84a42,42,0,0,0-1.19-8.72,44.18,44.18,0,0,1-1.23-9.18q-.1-2.3-.31-6.91c-.13-3.06-.17-6.14-.09-9.23s.27-6,.58-8.79a20.39,20.39,0,0,1,1.36-6.07q-2.88-64.72-5.75-129.46c1.68-2.54,2.5-4.73,2.42-6.57a8.43,8.43,0,0,0-1.58-5,7.59,7.59,0,0,1-1.56-4.55c-.06-1.53,1.06-3.05,3.37-4.53s3.92-2.25,4.83-2.28a2.07,2.07,0,0,1,2.47,2.2c.06,1.54.78,2.28,2.13,2.22,1.8-.07,2.71-1.49,2.71-4.26s0-4.92-.09-6.46a13.11,13.11,0,0,1,6.19,1.6c2.31,1.14,3.53,3.41,3.66,6.78a9.5,9.5,0,0,1-.69,4.41,32,32,0,0,1-2.38,4A3.73,3.73,0,0,0,753,302a1.64,1.64,0,0,0,1.56.87c.22,0,.67-.33,1.32-1a2.56,2.56,0,0,0,.94-1.88c.05,1.23.1,2.46.14,3.69a26.08,26.08,0,0,1,3.9.09c1,.12,1.48-1,1.39-3.52,0-.76,0-1.53-.08-2.3a37.18,37.18,0,0,1-.81-3.66c-.28-1.53-.57-3.05-.84-4.59s-.58-3.21-.87-5l-3.48-2.18a7,7,0,0,1,2.29-2.39l.68,0c3.18-.11,5,1.67,5.64,5.34a57,57,0,0,1,.71,10.59q3.38-.12,4.52-1.77a14.46,14.46,0,0,0,1.75-3.52c.4-1.24.82-2.41,1.24-3.51a2.67,2.67,0,0,1,2.66-1.7q.35,0,1.8,3.18c1,2.12,1.95,4.48,2.94,7.06s1.85,5.17,2.61,7.76a26.81,26.81,0,0,1,1.17,5.27,46.36,46.36,0,0,1-1.33,11.57,86.79,86.79,0,0,0-2,12.52c-.19,1.24-.45,1.94-.77,2.1a1.16,1.16,0,0,1-1,0c-.34-.14-.74-.28-1.19-.43s-.89.11-1.32.74a13.06,13.06,0,0,0-2.21,4,46,46,0,0,0-2.12,6.76,63,63,0,0,0-1.27,7,11.36,11.36,0,0,0,1.28,8.26,9.07,9.07,0,0,0,1.94,3.17c0,.46,0,.92,0,1.38l0,.92a13,13,0,0,0-1.18,4.42,32.05,32.05,0,0,0-.52,4.4,7,7,0,0,0,1.1,3.2,31.54,31.54,0,0,0,1.1,3.19,15.61,15.61,0,0,0-1.33,4.66,28.36,28.36,0,0,1-1.31,5.12,5.4,5.4,0,0,0,2.07,2.7,32.67,32.67,0,0,1,2.7,2,9.26,9.26,0,0,1,2.42,3.38,18.25,18.25,0,0,1,1.21,6.88,16.74,16.74,0,0,1-.64,5.56,16.26,16.26,0,0,0-.64,5.56,25.8,25.8,0,0,0,.27,3.45,27.5,27.5,0,0,0,.93,3.43,22.54,22.54,0,0,1,3.45.35c1.65.26,3.28.44,4.92.54a47.89,47.89,0,0,1,4.77.56,20.42,20.42,0,0,0,3.28.37l1.63,0a3.72,3.72,0,0,0,2.44-.76c.52-.47.76-1.93.7-4.4l3.6-.09c2.18-.06,3.5.45,4,1.52a2.31,2.31,0,0,0,2.33,1.55h.66c.21,0,.32-.16.31-.47a8.57,8.57,0,0,1,1.25-2.57c.84-1.4,1.48-2.1,1.92-2.11l.66,0a3.55,3.55,0,0,1,3.31,1.54l2,3.19q1,1.61,2.19,3.18a3.91,3.91,0,0,0,3.46,1.55c1.52,0,2.49-.58,2.91-1.67a17.9,17.9,0,0,0,.92-3.24,10.36,10.36,0,0,1,1.25-3.26c.64-1.08,2.15-1.65,4.56-1.69.08,4.61-.15,7.69-.66,9.24a11.16,11.16,0,0,1-1.74,3.49,16.5,16.5,0,0,1-1.76,1.87c-.54.47-.79,1.79-.75,3.94,0,1.38.05,2.76.08,4.15a15.92,15.92,0,0,0,1.19,3.2c.79,1.84,1.41,2.91,1.85,3.2a18.54,18.54,0,0,1-.44,3.24q-.43,2.31-1,4.86a13.37,13.37,0,0,1-1.86,4.41c-.84,1.25-1.7,1.58-2.58,1-.43,0-1-.67-1.82-2s-1.29-2.2-1.5-2.5h-1l-.64,0a2,2,0,0,1-.63,1.16,1.93,1.93,0,0,0-.62,1.17l0,1.84c0,.16,0,.31,0,.46a38.86,38.86,0,0,0,.75,4.6c.48,2.46.72,3.84.73,4.14,0,.92,0,1.84,0,2.77,0,.61,0,1.23,0,1.84a12.69,12.69,0,0,0-2.44-1.1,10.72,10.72,0,0,0-2.12-.65l-1,0a2.82,2.82,0,0,0-2.7,2.14,36.84,36.84,0,0,0-1.34,4.64,20.27,20.27,0,0,1-1.67,4.65,3.64,3.64,0,0,1-3.32,2.16,10.73,10.73,0,0,1-6.65-2.14,11.71,11.71,0,0,0-7.31-2.11,5.81,5.81,0,0,0-1.92.29,6.26,6.26,0,0,0-1.88,1.66,20.82,20.82,0,0,0,.54-3.47,8.28,8.28,0,0,1,.87-3.49c.39-1.24.78-2.48,1.18-3.72a13.7,13.7,0,0,0-2.24-4.78c-1-1.36-2-2.63-3-3.83a16.61,16.61,0,0,1-2.56-4.31,17.53,17.53,0,0,1-1.17-6.19,41.37,41.37,0,0,1,.76-7.18c.55-3.24,1.48-4.89,2.78-4.93l1.33.89a4,4,0,0,0,2,.86l.62-.94.63-.94a15.16,15.16,0,0,0-2.5-7.54c-1.6-2.56-3.27-3.83-5-3.77l-2.61.08c.45.29,1.34,1,2.68,2a15.72,15.72,0,0,1,2.68,2.46l0,.92c0,.92-1.12,2.73-3.42,5.41a24.68,24.68,0,0,0-4.65,7.3q-1.12,6-2.65,8.39a41.83,41.83,0,0,1-3,4,16,16,0,0,0-2.45,4.24q-1,2.58-.83,8.56h.32a24.16,24.16,0,0,0-4.73-1.45,5,5,0,0,1-2.13-.61,4.68,4.68,0,0,1-1.36-1.8q-.69-1.35-2.45-5h-.32c-.22,0-.44-.13-.67-.44q-2.91.12-2.71,5.18a9.92,9.92,0,0,0,1.46,4.33,42.1,42.1,0,0,0,3.25,5,11.76,11.76,0,0,0,4,3.54,3.59,3.59,0,0,0,3.71.1q-1.38,6.51-5.15,8.72a12.89,12.89,0,0,0-5.52,6.9c.26,1.23.6,1.9,1,2a4.82,4.82,0,0,0,1.61.17,4.4,4.4,0,0,1,1.94.39,5.25,5.25,0,0,1,2,1.77,13,13,0,0,0,.57,2.29,13.8,13.8,0,0,1,.56,2.28,1.22,1.22,0,0,0,1.92-.07,28.5,28.5,0,0,1,1.69,11.48,105,105,0,0,0-.18,12.93l2.86-.1c0,.92,0,2.07,0,3.46a5.62,5.62,0,0,1-1.31,3.51q.36,9.9.7,19.82a5.5,5.5,0,0,0-2.75,2.17,5.07,5.07,0,0,0-.54,2.56,15.23,15.23,0,0,0,.42,3,17.77,17.77,0,0,1,.44,3.45,7.48,7.48,0,0,0,4.19-1.54c1.33-1,2.6-1.93,3.83-2.9q.84,6,5.74,12c3.27,4.05,6.26,6.5,9,7.34a4.16,4.16,0,0,0,1.39-.74q1.07-.72,1.68-1.2c.63,0,1.77,0,3.45.13s3.45.3,5.33.55,3.71.45,5.49.55,3.08.16,3.92.14a15,15,0,0,0,5.93-.37q2.49-.74,2.6,4.33a14.44,14.44,0,0,0,5.75-1.27,15.1,15.1,0,0,1,6.07-1.27q.63,0,3,.18a2.3,2.3,0,0,1,2.39,2.5,11.62,11.62,0,0,1-.59,2.32c-.2.61-.39,1.23-.59,1.85a30.09,30.09,0,0,0-.06,6c.15,3.07.24,4.92.25,5.53l-.91,1.4c-.2.31-.41.47-.61.47s-.31.16-.31.47c-.41.31-1.64,1-3.69,2.14a14.78,14.78,0,0,0-3.37,2.13,13,13,0,0,0-3.17,4.22c-.5,1.23-.94,2.24-1.34,3a4.35,4.35,0,0,1-2.13,1.89q-1.53.74-5.86.82a14.15,14.15,0,0,1-2.32-.17,12.92,12.92,0,0,0-1.71-.19L812.7,618c-1.11,1.41-2.2,2.82-3.3,4.24l1.91,2.25a4.71,4.71,0,0,0-2.13,1.21,5,5,0,0,1-2.14,1.21l-.92,0-.62,0a21.5,21.5,0,0,1-3.75-1.51c-1.46-.73-2.93-1.38-4.39-2s-2.82-1.15-4.07-1.73a9.46,9.46,0,0,0-2.19-.85c-.22-.31-.93-1.36-2.11-3.17s-2-3-2.45-3.61l-.61,0Zm-43-81,1.9-.08c-.06-1.53-.13-3.07-.19-4.61Zm-7.17-209.72c.28,1.53,1.44,2.24,3.46,2.16a6.39,6.39,0,0,0,3.64-1.31A7.6,7.6,0,0,1,746.9,323c-.11-2.61-.21-5.22-.32-7.83a7.83,7.83,0,0,0-6.11,3.25A26.1,26.1,0,0,1,735.47,323.48Zm12,204.9a33.59,33.59,0,0,0,.32,3.68,14.54,14.54,0,0,0,.93,3.19q2.88.81,3.24-2.21a32.07,32.07,0,0,0,.3-4.4c0-.92-.22-2.68-.54-5.29s-1.11-3.87-2.39-3.82c-1.49.06-2.18,1.25-2.08,3.55S747.47,527.15,747.52,528.38Zm-.63-230.76a8,8,0,0,0-5.64,3,10,10,0,0,0-2.39,7.48q4.38-.18,6.34-2.11C746.5,304.71,747.07,301.92,746.89,297.62Zm.45,36.44a3.77,3.77,0,0,0-1.92,2.16,9,9,0,0,0-.24,2.54l.75,1.82q1.25-2.13,2.51-4.26C748.07,335.57,747.71,334.82,747.34,334.06Zm1.12,84.88a12.85,12.85,0,0,0,1.89,6.16,5,5,0,0,0,4.7,2.81,13.33,13.33,0,0,0-1.88-5.93C752,419.88,750.43,418.86,748.46,418.94Zm6.34,100.37c.28-.78.57-1.56.86-2.34l-1-2.27-1.5,2.37Zm-5.66-140.55c-.46-.28-.66,0-.62.95s.27,1.37.71,1.35C750.27,379.49,750.25,378.72,749.14,378.76Zm9.47,164.4q-3.48.14-3.26,5.67C757.67,548.73,758.75,546.84,758.61,543.16Zm-8.23-133.53c.31-.62.61-1.25.91-1.88l-1,0C750.33,408.41,750.36,409,750.38,409.63Zm4.67,92.13c.38-1.24.3-1.86-.23-1.84s-.78.65-.73,1.88c.24.61.46.9.68.89S755.08,502.38,755.05,501.76Zm0,24.46,1,0-.09-2.3-1,0Zm3.43,61.71,1.87-.07q-.33-8.54-.67-17.05l-1.81,1.91Q758.19,580.32,758.5,587.93ZM748.71,292c-1.14,0-1.67.83-1.61,2.37s.65,2.28,1.79,2.23c.67,0,1-.8.92-2.34S749.38,292,748.71,292Zm2,34.07.71.9a12.52,12.52,0,0,1,4.63,6.74,10.54,10.54,0,0,0,4.59,6.29l2.87-4.26c1.16,1.35,2.33,2.69,3.49,4l4.14-6.6q-.45-3.21-3.77-2.18a33,33,0,0,1-3.66,1.05,9.55,9.55,0,0,1,.84-4.64c.63-1.25,1.31-2.51,2.06-3.77a39.26,39.26,0,0,0,2-4,12.22,12.22,0,0,0,.83-5.33,10.43,10.43,0,0,0-6,2.05,10.57,10.57,0,0,1-6,2.07c-1.35.05-2.16-.69-2.44-2.22a15.29,15.29,0,0,0-3.22,4q-1.9,3.08-1.83,4.92C750.25,325.48,750.49,325.78,750.72,326.08Zm1.43,19.33c-.25-.6-.35-.37-.31.7s.17,1.61.4,1.6a2.45,2.45,0,0,0,.94-1.65C753.16,345.6,752.82,345.38,752.15,345.41Zm2.52,13.29,1.91-2.39-4,.16C753.28,357.21,754,358,754.67,358.7Zm5.65,195.93,5.36-.21a3.58,3.58,0,0,0-.55-2c-.33-.45-.72-1-1.16-1.58Zm7.95-207.51a21.6,21.6,0,0,0-4.56,3.39,31.27,31.27,0,0,0-4.64,5.48,42.22,42.22,0,0,0-3.58,6.6,15.28,15.28,0,0,0-1.41,6.74q.33,0,2.7-3.33l5.07-7.11q2.68-3.79,4.91-7.33c1.46-2.36,2.21-3.69,2.2-4Zm-12.75,33.7,2-.08-2.08-2.23Zm7.66,149.24c.08,2.15.62,3.67,1.6,4.55a4.28,4.28,0,0,0,3.06,1.27c0-.92-.21-2.83-.52-5.75s-1.23-4.34-2.71-4.28h-.32a3.39,3.39,0,0,0-.87,2.11A15.12,15.12,0,0,0,763.18,530.06Zm-4.52-154,1,0c0-.61,0-1.22-.07-1.84C759.28,374.83,759,375.45,758.66,376.08Zm2.49,40.06a10.93,10.93,0,0,1,4,2.39c1.57,1.33,2.8,2,3.67,1.94.42-.63.83-1.26,1.25-1.88l1.4-2.13a16.71,16.71,0,0,0,1.39-2.59c1-1.88,2.37-4.23,4-7.05a8.19,8.19,0,0,0-1.19-6c-1.16-1.81-2.29-2.69-3.38-2.66a34.36,34.36,0,0,0-3.46.35,21.82,21.82,0,0,0-4.24,1.08,9.54,9.54,0,0,0-3.55,2.2,4.82,4.82,0,0,0-1.34,3.75c.06,1.54.31,2.52.77,3a6,6,0,0,0,1.52,1.09c.56.29,1.06.59,1.51.87s.7,1.06.74,2.28c0,.46,0,.92.05,1.38-.42.33-.85.65-1.28,1A4,4,0,0,1,761.15,416.14Zm1,27.19a4.94,4.94,0,0,1,1.18,1.11,1.37,1.37,0,0,0,1.16.65l.67.44c.1-.16.2-.32.31-.48a1,1,0,0,0,1-.72,2.81,2.81,0,0,1,.93-1.19l-.06-1.84c0-.16,0-.31,0-.46-.71-1.52-1.39-2.26-2-2.24l-.34-.45c-.22,0-.43.18-.64.49-.87,0-1.59.83-2.19,2.39,0,.15,0,.3,0,.46C762.12,442.1,762.14,442.72,762.17,443.33Zm2.6,8.67a2.15,2.15,0,0,0,.52,1.14,2.12,2.12,0,0,1,.53,1.13l1,0,1,0c-1.14-1.49-1.82-2.24-2-2.23l-.34-.45Q765.07,451.54,764.77,452Zm8.44,153.83c-1,0-1.53.75-1.48,2.13s.59,2.06,1.63,2,1.53-.75,1.48-2.13S774.25,605.8,773.21,605.83Zm-5-140.57c-.45-.28-.65.1-.61,1.18s.26,1.3.67.67a1.35,1.35,0,0,0,.61-1.18C768.82,465.47,768.6,465.25,768.17,465.26Zm3.06,85.27c-.45-.6-.65-.44-.62.48s.26,1.38.68,1.36a1.36,1.36,0,0,0,.59-1.17C771.87,550.73,771.65,550.51,771.23,550.53Zm-4.12-170.14c-1.11,0-1.63.75-1.58,2.13s.62,2.06,1.72,2c.67,0,1-.73.92-2.11S767.77,380.36,767.11,380.39Zm2.09-6.54c.42-.62,0-.92-1.36-.87s-1.65.37-1,1c0,.61.36.91,1,.88A1.28,1.28,0,0,0,769.2,373.85Zm2,86.69-.15-4.15-1.23,1.89Zm-4.13-118c-.67,0-1,.8-.92,2.34s.41,2.29,1.08,2.27c.45,0,.64-.79.59-2.33S767.55,342.53,767.11,342.55Zm4,87.07a20.11,20.11,0,0,0,1.32,5c.84,2.44,1.91,3.63,3.22,3.59,1.52-.05,2.36-.92,2.52-2.63a35.21,35.21,0,0,0,.18-4.38,15.57,15.57,0,0,0-.82-5.05c-.48-1.21-1.59-1.8-3.33-1.74Q771,424.56,771.14,429.62Zm5.25,151.18,2.19-.07-.06-1.85Zm-3.07-135.1c0,.92.26,1.38.7,1.36q.74,2.29,1.66,5.71c.61,2.29,1.14,3.42,1.57,3.41l2.27-.07a27.36,27.36,0,0,0-1.38-7.57c-.85-2.58-2.46-3.84-4.85-3.76Zm9.86,151c-.62,0-.91.72-.87,2.11s.38,2.06,1,2c1,0,1.54-.74,1.49-2.12S784.21,596.69,783.18,596.72Zm-3.06-287.83q-1.32,1-3.78,3.12a7.06,7.06,0,0,0-2.34,5.85l.06,1.84a50.48,50.48,0,0,0,3.71-5.2A17.43,17.43,0,0,0,780.12,308.89Zm13.76,280.58c-.84,0-1.23.73-1.19,2.11s.48,2.06,1.31,2,1.23-.73,1.19-2.12S794.7,589.44,793.88,589.47Zm3.54-143.13q.15,5.07,3.39,5c0-.92,0-1.84-.07-2.76a23.24,23.24,0,0,0-.9-3.21,20.39,20.39,0,0,1-.9-3.21C797.86,442.48,797.36,443.88,797.42,446.34Zm2.17,19.78,1.94-.05q-.09-3.22-2-4.1C799.51,463.35,799.55,464.73,799.59,466.12Zm7.16-24.18c-1.09,0-1.61.73-1.58,2.12s.6,2.06,1.68,2c.86,0,1.29-.72,1.25-2.11S807.61,441.92,806.75,441.94Zm8.81,166.32q-3.1.07-3,5.15l.63.45c1,0,1.69-.66,2-1.9A14.5,14.5,0,0,0,815.56,608.26ZM815,586.13c-.84,0-1.23.88-1.19,2.57s.48,2.52,1.31,2.51c.62,0,.92-.87.88-2.56S815.67,586.12,815,586.13Zm-1.85-133.27,1,0h.33a2.81,2.81,0,0,1,.63-.71,2.5,2.5,0,0,0,.63-.71l.63-.93a17,17,0,0,0-.72-3.45,12.16,12.16,0,0,0-1.38-3.42Q813.72,448.23,813.19,452.86Zm5.38,8.64,1.25-2.33-1.35-2.28C818.51,458.43,818.54,460,818.57,461.5ZM824,443.4l.66.44h.65c.21,0,.32-.16.31-.47l.32-.46a1.44,1.44,0,0,0,.31-.7,1.38,1.38,0,0,1,.31-.7,23.16,23.16,0,0,1,.93-2.32l-4.88.09C823.11,440.65,823.57,442,824,443.4Z"/><path class="cls-2" d="M916.08,623.5a20.84,20.84,0,0,0-2.44-6.93c-1.23-2.16-2.58-3.09-4-2.79a5.45,5.45,0,0,0-3.57,2.76,5.62,5.62,0,0,1-3.88,2.76c-2.06.61-3.67.3-4.79-.93a9.94,9.94,0,0,1-2.33-4.84,54.32,54.32,0,0,1-.93-7.15c-.22-2.77-.42-5.37-.63-7.84a22.21,22.21,0,0,1-4.51,1.39c-1.56.32-2.23,2.16-2,5.54a25,25,0,0,0-6.1-9.2q-4.54-4.57-8.29-4.1c0-1.54-.29-4.84-.85-9.91a78.79,78.79,0,0,0-1.48-9.9q0-1.85-.36-5.31t-.67-6.45q-.36-3-.7-8.06,0-3.69-.27-13.84t-.33-21.44c-.06-7.53-.08-14.68,0-21.45s.07-11.53,0-14.29a127.94,127.94,0,0,0,.54-13.61,69.17,69.17,0,0,1,.87-12.69c-.22-.61.15-1.62,1.11-3a8.13,8.13,0,0,0,1.45-2.55c.18-3.38.22-6.37.1-9s-.15-5.07,0-7.38a28.83,28.83,0,0,1,1.25-7.16,28.35,28.35,0,0,1,4-7.86v-.46c0-.3,0-.46.16-.46s.16-.16.16-.46l1.31.91c.44,0,.94.54,1.49,1.61s1,1.46,1.47,1.14a5,5,0,0,0,2.95.22c1.53-.15,2.4-.39,2.62-.7q2.48,6.69,4.93,13.37a4,4,0,0,0,1.63.46,2,2,0,0,0,1,.46c.21,0,.43.16.65.46l.33.46a1.47,1.47,0,0,0,.32.92l-.32.46c0,.31-.06,1-.17,2.08s-.16,1.92-.16,2.54a7.91,7.91,0,0,1,4.72-1.39,11.63,11.63,0,0,1,9.59,4.87,12.39,12.39,0,0,1,2.25,6.69,6.25,6.25,0,0,1-1.81,5.07,49.44,49.44,0,0,1-4.87,4.6c-1.84,1.54-3.56,3.07-5.18,4.6s-2.54,2.92-2.75,4.15a4.57,4.57,0,0,0,.48,4.61,16.51,16.51,0,0,0,3.87,3.46,45.06,45.06,0,0,1,4.5,3.47,6,6,0,0,1,2.08,4.62A4.79,4.79,0,0,1,907,490a8.75,8.75,0,0,1-3.06,1.6c-1.07.31-2.25.69-3.53,1.15a5.13,5.13,0,0,0-2.89,3.46A7,7,0,0,0,898,501c.74,1.69,1.55,3.31,2.4,4.84s1.59,3,2.23,4.39a5.59,5.59,0,0,1,.63,3.46q-.64,2.76-1.92,3.45a19.18,19.18,0,0,1-2.55,1.16,4.7,4.7,0,0,0-2.23,1.84c-.63.92-.85,2.62-.63,5.07a9.14,9.14,0,0,0,1.11,4.38c.74,1.39,1.63,2.08,2.7,2.08q2.22-.45,1.59-2.07c-.43-1.08-.21-2.84.64-5.31h.64l.63-.46c.21,0,.42.31.64.93a5.17,5.17,0,0,1,.31,1.38c.21,3.69,0,6.08-.49,7.15a10.86,10.86,0,0,1-1.9,2.76,9.61,9.61,0,0,0-1.91,3c-.52,1.23-.58,3.69-.16,7.38a7.61,7.61,0,0,1,3.79,0c.63.31,1.47-.3,2.53-1.84v.47a31.81,31.81,0,0,1-.66,11.06,29.52,29.52,0,0,0-.65,10.61q.3,4.6,1.24,6.23c.62,1.08,2.19,2.24,4.69,3.47a12.11,12.11,0,0,1,6-3,50.07,50.07,0,0,0,6.75-1.8,20.67,20.67,0,0,0,6-3.18c1.78-1.36,3-3.58,3.68-6.65.41.32,1,.78,1.71,1.41a3.24,3.24,0,0,0,1.72.94h.32a6.49,6.49,0,0,0,3.63-1.57,6,6,0,0,1,2.7-1.58l1.25.48a1,1,0,0,1,.63.24,1.56,1.56,0,0,0,.94.24,2.09,2.09,0,0,0,1.25.48c.2,0,.27-.23.17-.69s1.32-1,4.27-1.55a4.24,4.24,0,0,1-1.9.43l-1.89,0,.33-.45a2.25,2.25,0,0,1,1.4.71c.52.47.88.71,1.09.71.22-.61.61-2,1.17-4.13s.94-3.52,1.17-4.14q.63,0,2.07-1.35c1-.9,1.55-1.35,1.76-1.35a30.46,30.46,0,0,0,.85-3.44,28.73,28.73,0,0,0,.53-3h.63c2.1,0,3.14,1.14,3.1,3.28a1.25,1.25,0,0,1-.17.69,1.3,1.3,0,0,0-.17.69l0,1.38a29.56,29.56,0,0,0-1.47,3c-.77,1.68-1,2.83-.85,3.45,0,.62,0,1.61.1,3s.15,3,.23,4.85.2,3.54.38,5.08.36,2.77.56,3.7q-.68,2.75-2.1,3.42a20.75,20.75,0,0,1-2.84,1.1,6.06,6.06,0,0,0-2.37,1.35c-.64.61-.87,1.83-.69,3.68.18,2.15,1,3.09,2.46,2.8.21,0,.32-.14.32-.45a31.14,31.14,0,0,0,4.6-3.61c2-1.81,3.34-3,4-3.62.3.78.6,1.55.89,2.33-.43.91-1.3,2.82-2.61,5.71s-2.71,6-4.22,9.15-3,6.1-4.35,8.69-2.4,3.88-3,3.87a4.09,4.09,0,0,1-1.87.43c-1.24,0-1.85-.48-1.84-1.41a20,20,0,0,1,.34-2.3,19.24,19.24,0,0,0,.36-2.76c0-.31,0-.61,0-.92a3,3,0,0,0-.14-.93,4.14,4.14,0,0,1-.14-1.38,10.67,10.67,0,0,0-1-4.63,8.61,8.61,0,0,0-2.3-3.26l-3.83,6.87,3.38,3.73a4.57,4.57,0,0,1-2.22,3.43,8.89,8.89,0,0,0-3.15,3.42,46.88,46.88,0,0,0-2.11,7.59c-.33,2-.66,3.6-1,4.83a5.32,5.32,0,0,1-2,3q-1.58,1.14-5.58,1.56a13.62,13.62,0,0,1-5.26.65A22.35,22.35,0,0,1,916.08,623.5ZM888,386.41a5.85,5.85,0,0,0-1.81,1.15,5.44,5.44,0,0,1-1.82,1.16h-1a.82.82,0,0,1-1.15,0,1.25,1.25,0,0,1-.5-.92,131.84,131.84,0,0,1-6.55-18.88,107.2,107.2,0,0,1-3.62-19.34,28.1,28.1,0,0,1,1.3-5.31c.86-2.93,1.91-5.93,3.12-9s2.48-5.93,3.82-8.55,2.33-3.93,3-3.93a26.36,26.36,0,0,1,3,.68q2.68.69,5.89,1.6c2.12.62,4.25,1.15,6.38,1.61a26,26,0,0,0,4.2.7c.44.62.88,1.23,1.33,1.84s.89,1.24,1.34,1.85a14.75,14.75,0,0,0,1.34,2.31c.45-1.53,1.06-2.37,1.85-2.53A10.52,10.52,0,0,0,911,329.7a2.17,2.17,0,0,1,2,1.16,13.57,13.57,0,0,1,1.17,2.77,26.64,26.64,0,0,0,1,2.77,1.82,1.82,0,0,0,1.83,1.16c.22-.3.68-.84,1.35-1.6s1.12-1.15,1.35-1.15a.92.92,0,0,0,.67-.45.59.59,0,0,0,.51-.23.57.57,0,0,1,.5-.23c.42,4.31.17,7.54-.73,9.68l2.68-.44c0,.62-.14,2.23-.37,4.84s-.37,4.38-.37,5.3a35.9,35.9,0,0,0,1.63,4.62,23.89,23.89,0,0,0,2,4.17,39.17,39.17,0,0,0-1,4.14q-.7,3.23-1.71,6.68a50.1,50.1,0,0,1-2.37,6.44c-.9,2-1.89,3-3,3a11.49,11.49,0,0,1-1.48-.24,9.55,9.55,0,0,0-1.82-.24,8.34,8.34,0,0,1-2.64-.94,4.27,4.27,0,0,0-1.66-.46,16.6,16.6,0,0,0-3.81,3c-1,1.08-2,2.15-3,3.22a16.35,16.35,0,0,1-3.31,2.76,12.53,12.53,0,0,1-4.79,1.62q-3,.93-4-2.07T888,386.41Zm-4.14-48.88c-.44.31-.61,1.09-.49,2.31s.39,1.69.84,1.38c.67,0,.95-.61.83-1.85S884.52,337.53,883.85,337.53Zm15.35,94.52c.65,0,1,.7,1.14,2.08s-.17,2.07-.82,2.07q-1.31,0-1.47-2.07C897.94,432.74,898.32,432.05,899.2,432.05Zm16.74-83.88c.45-.61.34-.92-.32-.93s-.9.31-.68.92c0,.92.16,1.39.5,1.39S915.94,349.09,915.94,348.17Zm-1,258.26q-.63,0-.63,1.38c0,.92.2,1.23.62.92A2.28,2.28,0,0,0,914.93,606.43Zm1.69-25.36c0-.92,0-1.84,0-2.77l-1.57.92C915.59,579.84,916.11,580.45,916.62,581.07Zm8.78,36.5c0-.62-.26-.93-.77-.93s-.77.3-.78.92C924.87,619.1,925.38,619.1,925.4,617.57Zm7.38-25.3a8.49,8.49,0,0,0-4.7,2.26,7.29,7.29,0,0,0-2.22,4.36,7.38,7.38,0,0,0,1,4.85,9.59,9.59,0,0,0,4.78,3.74c.2,0,.48-.84.8-2.53a43.54,43.54,0,0,0,.68-5.53,45.56,45.56,0,0,0,.06-5.3C933.14,592.58,933,592,932.78,592.27Zm29.06-53.08c.42-.3.69-.22.79.24a1.45,1.45,0,0,1-.18,1.15c-.44.61-.76.53-1-.25S961.42,539.18,961.84,539.19Z"/><path class="cls-2" d="M1166.77,623c-.64.26-2,.84-4,1.77a18.82,18.82,0,0,0-4.06,2.23c-1.08.53-1.86,1.94-2.34,4.21s-1.24,3.38-2.27,3.3c.49-6.44.21-10.47-.8-12.08a4.62,4.62,0,0,0-4.18-2.39,26.67,26.67,0,0,0-5.65.74c-2,.48-3.87-.27-5.6-2.25a6.11,6.11,0,0,1-1.74-4c0-1.38,0-2.69.12-3.92a8.36,8.36,0,0,0-.26-3c-.26-.78-1.32-1.25-3.19-1.38s-3.25,1.1-4.15,3.65-2.59,3.76-5.07,3.59a9.32,9.32,0,0,1,2.26-5.86,9.2,9.2,0,0,0,2.27-5.85c.12-1.84-.17-3-.86-3.53a4.77,4.77,0,0,0-2.6-.86,21.79,21.79,0,0,0-3.13,0,2.75,2.75,0,0,1-2.45-.85,14.65,14.65,0,0,1-2.12-3.6c-1-2.07-1.74-3.11-2.15-3.14l-.63,0a.49.49,0,0,1-.45-.26.54.54,0,0,0-.46-.26,4,4,0,0,0-3.9,2.3c-.93,1.64-2.14,2.41-3.58,2.32-.21,0-.63-1-1.24-2.84s-1.28-4-2-6.36-1.29-4.62-1.79-6.8a19.45,19.45,0,0,1-.7-4.2c0-.46,0-.92.08-1.38.21,0,.61-.58,1.21-1.78s.79-1.95.6-2.27a18.92,18.92,0,0,0-2.14-3.82c-1.26-1.93-1.88-3-1.86-3.35a9.55,9.55,0,0,1-.9-3.51c-.22-1.7-.41-3-.57-4q-.65-27.53-1.36-55.05a52.84,52.84,0,0,0-1.13-5.6c-.62-2.5-1.2-4.53-1.76-6.1a12.38,12.38,0,0,0-3.11.75,17,17,0,0,0-3.12,1.22,9.36,9.36,0,0,0-1.17,3.86c-.32,2-.7,3-1.12,2.95-.25.6-.83.41-1.74-.56s-1.59-1.46-2-1.49a37.43,37.43,0,0,0,.41,4.64c.29,2.49.32,4,.08,4.62-.23.3-.51.67-.86,1.11s-.62.66-.84.65l-12.79-.63a30.46,30.46,0,0,1-2.59,3.8L1060.8,511c-.22,0-.63-.33-1.24-1a2.66,2.66,0,0,0-1.55-1,31.22,31.22,0,0,1-.57,5.52c-.26.91.2,2.62,1.36,5.14a9.52,9.52,0,0,0-4.24,2.11,10.59,10.59,0,0,0-2.23,3.37,41.65,41.65,0,0,0-1.63,4.54,49.71,49.71,0,0,1-2.15,5.68,9.68,9.68,0,0,0-1.37-1.45c-.72-.64-1.18-1-1.39-1-.2-.31-.25-.31-.16,0s-.07.45-.49.44c-.15,3.38,0,5.31.55,5.79a2.8,2.8,0,0,0,1.87.77,2.29,2.29,0,0,1,1.85,1.24c.49.79.66,3.18.48,7.17a5.91,5.91,0,0,0-4.82,1.64,15.5,15.5,0,0,0-2.88,4.73c-.83,2-1.64,4.08-2.48,6.36a19.18,19.18,0,0,1-3.55,6.08,3,3,0,0,1-2.72,1.28l-3.3-.13a18.19,18.19,0,0,0-3,.12c-1,.12-1.57.95-1.83,2.47a85.36,85.36,0,0,0-1.2,11.49c-.31,5.23-1.22,9-2.76,11.44-3.12-.11-5.54.35-7.23,1.36a13.72,13.72,0,0,0-4.35,4.24,42.38,42.38,0,0,0-3.48,6.58A56.16,56.16,0,0,1,1002,614a13.65,13.65,0,0,1-1.39-5.12c-.16-1.85-.37-3.54-.63-5.09a6.26,6.26,0,0,0-1.61-3.51c-.81-.79-2.46-.91-5-.37a11.63,11.63,0,0,0-1.92,2,9.66,9.66,0,0,0-1.63,2.5l.75,1.17a4.44,4.44,0,0,0,1,1.18l.63,0,.93,0c0-.3.43-.75,1.28-1.34a4.54,4.54,0,0,1,1.58-.88c.2,0,.5.32.9.95a3.09,3.09,0,0,1,.59,1.4c0,.15,0,.31,0,.46a1.67,1.67,0,0,0,.28.93l-.33.91c-.22.31-.76,1-1.61,2a10.11,10.11,0,0,0-1.63,2.49,37.57,37.57,0,0,0-1.73,6.65q-1.08,5.26-1.44,7.11c-1.62-1.28-3.15-5.16-4.64-11.66s-2.8-13.83-4-22-2.06-16-2.72-23.36-.95-12.63-.88-15.7c0-1.08.05-2.15.07-3.23a5.08,5.08,0,0,0,1.4,1.19c.72.47,1.28.88,1.7,1.19l.63,0h.63a8.59,8.59,0,0,0,1.8-2.26c.76-1.21,1.36-2.11,1.8-2.72l0-.93a30.22,30.22,0,0,1-4.65-3.8q-4.35-3.33-5-4.27-.76-7.86-.83-12.24c0-2.92,0-6.54.09-10.84a91.81,91.81,0,0,1,1.08-12.43A95.16,95.16,0,0,0,978.76,492a124.67,124.67,0,0,0-.47-14.32,125.61,125.61,0,0,1-.48-14.77c0-.31,0-.61,0-.92a7.18,7.18,0,0,1,1.35-2.28,10.77,10.77,0,0,1,2-2.26c0-.3,0-.61,0-.92-1-3.4-1.8-6.34-2.39-8.82s-1.14-5.1-1.62-7.88a40.42,40.42,0,0,1-.64-7.85,12.21,12.21,0,0,1,1.1-5.28,11.29,11.29,0,0,0,1.09-4.82c0-.31,0-.62,0-.93a16.63,16.63,0,0,0-.74-3.7,23.22,23.22,0,0,1-.75-3.25c0-1.22.43-1.91,1.2-2s1.65-.26,2.63-.4a6,6,0,0,0,3.17-1.77q1.68-1.57,2.8-7.08c.45-.6.48-2,.1-4.15a26.51,26.51,0,0,1-.55-4.17,12.19,12.19,0,0,1-3.78-.78c-1.42-.49-2.15.49-2.21,2.95,0,.31,0,.61,0,.92l3.5,5.16c0,.3,0,.61,0,.92,0,.46,0,.92,0,1.38a12.94,12.94,0,0,1-2.49,1.1,8.69,8.69,0,0,1-2.48.63q.2-8.29.38-16.6c2.64.06,4.59-1.27,5.87-4a22.86,22.86,0,0,0,2-9.18,9.14,9.14,0,0,1,3.44,1.47,37,37,0,0,1,5.2,3.83,48.88,48.88,0,0,1,5,5,14.43,14.43,0,0,1,2.85,4.47,9.73,9.73,0,0,0-3.9,3.58q-1.89,2.72-3.54,2.67l-1,0a4,4,0,0,1-1.46-1c-.76-.64-1.24-1-1.45-1,0,1.53-.09,3.07-.13,4.61.22,0,1,.1,2.47.29a28.83,28.83,0,0,1,4.58,1,12.54,12.54,0,0,1,4.22,2.2,4,4,0,0,1,1.71,3.28,16.61,16.61,0,0,1-2.9,9.37,16.54,16.54,0,0,0-2.89,9.38,5.14,5.14,0,0,0,1.51,4.19c1.06,1,2.18,1.91,3.35,2.87a20.08,20.08,0,0,1,3.32,3.56,9.19,9.19,0,0,1,1.45,5.81q0,.93-.27,3.45c-.16,1.69-.25,2.69-.26,3a16.59,16.59,0,0,1-.92,3.66,21.1,21.1,0,0,0-.91,3.2c-.11,3.39.74,5.56,2.55,6.54a11.33,11.33,0,0,0,5,1.54c-.11,3.39,0,7.92.2,13.62a74.27,74.27,0,0,0,.93,10.88,32.93,32.93,0,0,1,1.46,4.43q1.14,4,1.44,4.89l0,.92c0,.47,0,.93,0,1.39a17.52,17.52,0,0,1-2.31,2c-1.32,1-2.2,1.71-2.63,2,0,.47,0,.93,0,1.39l0,.92q1.89,10.68,3.07,13.48c.78,1.88,1.6,2.91,2.44,3.09s1.74.37,2.69.55,2.2,2.31,3.75,6.37l1.67-2.25c-.29-9.24,0-15.61,1-19.11s2.3-5.84,3.94-7a52.2,52.2,0,0,1,5.75-3.47q3.27-1.71,6.45-8.51,3.57-8.61,5.77-14.53t8.32-12.56c.16,1.24.41,2.95.74,5.11s1,3.59,2.08,4.25a14.91,14.91,0,0,1,1.58-2.69c.81-1.19,1.42-1.78,1.86-1.76.23-.3.75,0,1.57,1s1.33,1.45,1.55,1.46a22.8,22.8,0,0,0,3.09-.31,24.7,24.7,0,0,1,3.09-.31,22.63,22.63,0,0,0-.6-4.19c-.44-2.17-.53-3.56-.28-4.17,0-.3.53-.74,1.52-1.31a6,6,0,0,1,1.83-.83,11.39,11.39,0,0,1,1-1.1,1.93,1.93,0,0,0,.71-1.12,29.75,29.75,0,0,0-.34-3c-.24-1.7-.53-3.64-.85-5.81s-.6-4.26-.83-6.28a32.46,32.46,0,0,1-.27-4.4,21.53,21.53,0,0,1,2.14-6.82c1.34-3,2.48-4.79,3.38-5.37a2.38,2.38,0,0,1,1.68,2.4,18.92,18.92,0,0,1-.37,4.13,19.71,19.71,0,0,0-.39,4.37,2.5,2.5,0,0,0,1.66,2.62,12.79,12.79,0,0,0,1.09-2,7.23,7.23,0,0,0,.78-2.5q.12-2.3,1.14-9.17c.67-4.59,1-7.49,1.11-8.72a2.24,2.24,0,0,1,.74-1.58,1.89,1.89,0,0,1,1.35-.62,4.42,4.42,0,0,1,1.44.77,6,6,0,0,1,1.72,1.71c0,.31,0,.61-.05.92a7,7,0,0,1-.86,3.65c-.47.6-.78,2.43-1,5.49.22,0,.43.25.62.73s.39.71.62.72c.25-.6.8-1.8,1.67-3.6s1.42-3,1.67-3.61l1,.06a6.89,6.89,0,0,1,4,1.84q2,1.74,4.22,3.7t4.35,4.18a10.79,10.79,0,0,0,3.76,2.77c.42.33,1.29.38,2.62.15s2.08-.17,2.28.14a33.09,33.09,0,0,1,.52,4.88,16.94,16.94,0,0,0,.55,4.43,13.07,13.07,0,0,0,2.59,5.47c1.22,1.46,2.43,2.93,3.64,4.39a21.88,21.88,0,0,1,3.1,5.05,15.9,15.9,0,0,1,1,7.46,11.42,11.42,0,0,1-1.28,4.77,10.33,10.33,0,0,0-1.25,4.31c-.12,1.84.33,3.1,1.37,3.78s1.49,2.11,1.34,4.25c-.06.92-.11,1.84-.18,2.76q-.06.93-1,5.71a48.35,48.35,0,0,1-1.34,5.69l-.06.92a10.29,10.29,0,0,0,.37,4.19,5.23,5.23,0,0,0,1.47,2.17c.61.5,1.27,1,2,1.52a6.38,6.38,0,0,1,1.91,2.67,10.19,10.19,0,0,1-.24,3.68,10,10,0,0,0-.25,3.68c.21,0,.68,1,1.41,2.87a12,12,0,0,1,1,3.76c.15.94.36,2.5.64,4.67s.49,4.51.65,7,.31,4.8.48,7a37,37,0,0,1,.16,4.64l2.43,6.17q.95,11.63,1.86,23.25,3.54,5.56,7.07,11.14,3.45,4.41,6.89,8.83,2.88,3.45,5.75,6.91,2.35,6,4.7,11.93l2,2.92C1167.14,618.38,1167,620.68,1166.77,623ZM986.33,432.7l5.41-7.25c.13-.61.25-1.22.38-1.83l-5.56-.14C986.48,426.55,986.41,429.62,986.33,432.7Zm1.63,0c-.87,0-1.32.66-1.36,2s.38,2.08,1.26,2.11c1.08,0,1.64-.65,1.68-2S989,432.76,988,432.74Zm-2.53,100.5,1.91,0c0-.77,0-1.53.06-2.3Zm2.84,25,1.26,0c0-.61,0-1.23.05-1.84Zm6.6-139.61c.45-.61.3-.92-.46-.94s-1.16.28-1.18.89c.2.63.52.94,1,.95S994.85,419.24,994.87,418.62Zm.24-8.76c-.43-.63-.65-.4-.68.67s.17,1.62.62,1.63a3,3,0,0,0,.7-1.59C995.76,410.1,995.55,409.87,995.11,409.86Zm-1.44,180.81,1.25,0,.06-2.3-1.25,0Zm4.27-61.7a41.81,41.81,0,0,0,1.87,11.82c1.34,4.81,2.2,7.67,2.6,8.61,0,.31.09.46.3.47l.63,0q2.2.06,3.17-5.44a27,27,0,0,1,4.3-10.48l0-.92c0-.46,0-.92,0-1.38a13.4,13.4,0,0,1-.75-1.41c-.29-.62-.55-.94-.76-1Zm2.47-19.31a44.17,44.17,0,0,0,.56,8.09c.44,2.94,1.62,4.43,3.53,4.49a4.66,4.66,0,0,0,3.38-1.28,4.7,4.7,0,0,1,3.39-1.28l.06-1.84-4.78-.15c-.15-1.85-.31-3.7-.46-5.55-.17-1.54-.29-3-.35-4.4s-.19-2.69-.36-3.93c0-.46,0-.92,0-1.38a2.61,2.61,0,0,1,.54-1.83,6.74,6.74,0,0,1,1.31-.88,3.31,3.31,0,0,0,1.32-1.35,7.58,7.58,0,0,0,.59-3.21c0-1.22,0-2.84-.17-4.85s-1-3-2.48-3.07q-.21,6.92-3.07,11.21T1000.41,509.66Zm5.73-30.74,4.83.15c-.38-1.55-.83-2.41-1.37-2.58a6.42,6.42,0,0,0-1.76-.29,2.11,2.11,0,0,0-.81.21,1.86,1.86,0,0,1-.82.2C1006.19,477.38,1006.17,478.15,1006.14,478.92Zm23.38,55.71,1.9.07.09-2.3-1.9-.08Zm29-44.49a28.39,28.39,0,0,0,1-3.42,26.38,26.38,0,0,1,1-3.42,12.84,12.84,0,0,0,1.07-2.26,11,11,0,0,0,.75-2.27,3.81,3.81,0,0,0-1.48-2.84l-.65,0-1,0a4.54,4.54,0,0,1-1,1.57,1.9,1.9,0,0,0-.69,1.12Zm16,3.07c-.86,0-1.32.62-1.39,2s.32,2.09,1.18,2.13,1.32-.62,1.39-2S1075.34,493.25,1074.49,493.21Zm2.76-22.95c1.34-.86,2.07-2.36,2.17-4.51l-1.94-.1C1077.41,467.19,1077.33,468.72,1077.25,470.26Zm4,15.9,1.7-1.75-1.61-.09Zm3.07-28a11.64,11.64,0,0,0,.41,4.64c.37.95,1.44,1.46,3.16,1.56a12.72,12.72,0,0,0-3.38-9.88C1084.49,455.7,1084.42,456.93,1084.36,458.15Zm5.44,13.68c-.09,1.54.29,2.56,1.13,3.07a6.11,6.11,0,0,0,2.86.85,4,4,0,0,0-1-3.29,7.73,7.73,0,0,0-2.67-1.53ZM1120,481.9c-.86,0-1.34.69-1.43,2.23s.28,2.32,1.14,2.38,1.33-.68,1.43-2.22S1120.8,482,1120,481.9ZM1118.67,553c-.4-.33-.63,0-.69.88s.13,1.24.58,1c.41,0,.65-.26.69-.88S1119.09,553,1118.67,553Zm4.7-23.73a47.29,47.29,0,0,0,1.78,4.5,26.31,26.31,0,0,0,3,5.51l1.77-2.65a17.27,17.27,0,0,0-2.4-7.1,32.15,32.15,0,0,0-4.41-5.83l-1.16-1.92a7.32,7.32,0,0,1-.84-1.9,31,31,0,0,0-.58,4.12,14.75,14.75,0,0,0-.52,3.2l-.09,1.38Zm1.12-17.49,1.6.1.15-2.3-1.6-.1Zm6.54-1.89c-1.07-.07-1.65.75-1.76,2.43s.35,2.56,1.43,2.63c.84.06,1.33-.75,1.44-2.44S1131.88,509.94,1131,509.88ZM1126.45,560l1.43,2.4a9.44,9.44,0,0,1,1.85-1.72,6.29,6.29,0,0,0,2-3.11l.06-.92.09-1.38c-.21,0-.45-.33-.72-1s-.63-1-1-1-1,.55-1.85,1.72-1.35,1.92-1.58,2.21l-.09,1.38Zm5,10c-.63,0-1,.63-1.08,2s.18,2.09.8,2.13c1,.07,1.62-.58,1.71-2S1132.51,570.07,1131.47,570Zm1.1,11.63c-1-.07-1.61.58-1.7,2s.38,2.1,1.42,2.17c.83.06,1.3-.6,1.4-2S1133.41,581.69,1132.57,581.63Zm7.43,10.68q-.39,5.52,3.35,5.79a13.87,13.87,0,0,0-.26-5.11C1142.74,592,1141.71,591.82,1140,592.31Zm-.12,19.41,2.8.2,4.89-.8q3-.48,3-.93c.06-.77.12-1.54.17-2.3l-3.59-2.12a25.18,25.18,0,0,0-3.15-1.84c-1.11-.54-2-1-2.56-1.34.16.63.33,1.26.49,1.88a1.17,1.17,0,0,0,.11.7,1.44,1.44,0,0,1,.1.71l0,.46a1,1,0,0,1-.9-.53,4.22,4.22,0,0,0-.87-1Q1140.13,608.27,1139.88,611.72Z"/><path class="cls-2" d="M1220.38,753.64l-3.87-.37c-.3,3.05-.54,5.51-.71,7.34s-1.66,2.62-4.43,2.36q-1.48-.15-5.29-2.59t-7.88-5.59a67,67,0,0,1-7.23-6.44c-2.1-2.2-3.1-4.06-3-5.59a3.08,3.08,0,0,1-1.63,1.48,4.64,4.64,0,0,0-1.6,1l-.3,0-.59-.05c-.15-.64-.38-1.42-.7-2.38a6.36,6.36,0,0,1-.44-1.89,45.46,45.46,0,0,1,2.26-5.13,33.35,33.35,0,0,1,2.51-4.64c1.92-3.53,3.94-5.83,6-6.87s4.13-3.33,6.07-6.86l-.3,0c-.2,0-.39-.19-.56-.51a10.06,10.06,0,0,0-4,1,17.21,17.21,0,0,1,3.38-9A26.88,26.88,0,0,1,1204,703l.3,0,.61.06a6.65,6.65,0,0,1,2.37,2.3c.81,1.16,1.48,2.07,2,2.74,0,.15,0,.3,0,.46s0,.3,0,.46a5.13,5.13,0,0,0-1.34,1.26,5.64,5.64,0,0,0-.73,1.32q-.6,6.43-1.19,12.86l1.67,1.55,2.49-3.94a28.72,28.72,0,0,0,.49,4.45,9.33,9.33,0,0,0,2,4.13,5.57,5.57,0,0,0,1.36-4.74,6.78,6.78,0,0,1,1.4-5.19l2.5-.69c-.33,3.37-.65,6.74-1,10.1.2,0,.39.19.56.52.34.65.62.83.85.54.06-.61.71-1.63,2-3.05s2-2.12,2.18-2.1l2.4.23c1.6.16,2.43.94,2.5,2.34a31.37,31.37,0,0,1-.14,4.39,20.84,20.84,0,0,0,0,4.4c.16,1.41,1.14,2.2,2.93,2.38.21,1.87.43,3.75.64,5.63a18.34,18.34,0,0,0,1.85-4.92,18.46,18.46,0,0,1,1.86-4.91,30,30,0,0,1,.76-2.93,11.73,11.73,0,0,1,1-2.91l.65-.4.55.52a9.38,9.38,0,0,1,.51,2.38,9.83,9.83,0,0,0,.52,2.37l1.19.12c.26-.6.61-1.41,1-2.45a10.86,10.86,0,0,0,.67-2,2.66,2.66,0,0,0,2.46,2.57,19,19,0,0,0,1.33-2.64c.66-1.48,1.09-2.21,1.29-2.18l.35-.43.65-.4a2,2,0,0,1,1.91,2.06,21.34,21.34,0,0,1-.31,4.37c-.28,1.67-.52,3.43-.71,5.26a7.73,7.73,0,0,0,.45,4.22l.9.1c.79.08,1.61-.45,2.44-1.6a44.17,44.17,0,0,0,2.56-4.13,20.5,20.5,0,0,1,2.87-4.09,3.87,3.87,0,0,1,3.34-1.49l.55.52a6.86,6.86,0,0,1,1,3.13,7,7,0,0,0,1,3.13q.5,1,2.43,5.37a32.93,32.93,0,0,0,2.72,5.41q.94-3.13,1.86-5.82a23.72,23.72,0,0,0,1.17-5,37.24,37.24,0,0,0,5.14.12,18.88,18.88,0,0,0,5.89-1.18,14,14,0,0,0,5.1-3.35,10.66,10.66,0,0,0,2.74-6.41l-.39-1.9a7.73,7.73,0,0,1,0-2.33q.71-6,2-14.16a84.48,84.48,0,0,1,3.61-14.9,11.32,11.32,0,0,1,.54,4.48,37.7,37.7,0,0,0,0,4.88,17.44,17.44,0,0,0,.75,4c.36,1.12,1.36,1.79,3,2l.91.11c0-.31.07-.61.11-.92a2.6,2.6,0,0,1,.26-.89,2.79,2.79,0,0,0,.26-.9c0-.31.08-.61.11-.92l.06-.45a21.61,21.61,0,0,0-.11-4.2q-.27-2.82-.55-5.64t-.63-5a12.4,12.4,0,0,1-.25-3,18.94,18.94,0,0,0-.53-3.32c-.38-1.9-.69-2.87-.89-2.89s-.39-.21-.55-.53c-.21,0-.27-.34-.2-.95.19-1.53.78-2.23,1.8-2.11s1.69-1.19,2-3.94a15.22,15.22,0,0,0-.44-2.84q-.48-2.38-1.2-5.48c-.48-2.08-.92-4-1.34-5.73a33.75,33.75,0,0,1-.76-4l6.06-51.3-1.09-.13c-.52-.06-.74-.39-.67-1a17.86,17.86,0,0,1-.31-5.37c.09-2.62.18-4.23.25-4.85a7.17,7.17,0,0,1,.68-1.78c.42-.88.73-1.3.94-1.28.13-1.07.26-2.14.38-3.2a7.5,7.5,0,0,0-.35-3.76c-.42-1-.83-2-1.25-2.93s-.83-2-1.24-2.93a8.6,8.6,0,0,1-.31-4.22c1.68.2,2.43,1.06,2.25,2.59a2,2,0,0,0,1.92,2.54l1.89.23c-.11-.95-.3-2.43-.59-4.49a19.4,19.4,0,0,1-.32-4c0-.31.07-.61.1-.92a51.52,51.52,0,0,1,2.11-9.73q1.5-4.69,6.56-4.1-5.84-2.08-7.62-6a21.62,21.62,0,0,1-1.94-8.12c-.1-2.8-.18-5.28-.25-7.46s-1-3.36-2.65-3.56a31.78,31.78,0,0,0,1.16-8.68q.21-6-.15-12.79t-1-12.41q-.66-5.65-1.74-7.63l-4.18-.47-1.13-1.52a8.42,8.42,0,0,1-1.3-1.54c-.47-.66-.92-1-1.34-1.07l-.65-.07a2.88,2.88,0,0,0-2.38.89,2.89,2.89,0,0,1-2.38.9,12.25,12.25,0,0,1-6.81-3.29,22,22,0,0,0-6.73-4.2c-.82-.39-2.67-.43-5.53-.11a5.59,5.59,0,0,1-6.17-3.42q-1.06.83-4.61,3.7c-2.37,1.93-3.9,3.17-4.61,3.71a4.34,4.34,0,0,1-2.53.91,16.38,16.38,0,0,1-1.79.05q-3.74-1.75-3.15-7.72a14.52,14.52,0,0,1,1.07-4.3,14.68,14.68,0,0,0,1.07-4.29c-1.72-.17-2.77,1-3.13,3.63a26.26,26.26,0,0,1-2.18,7.43c-.8,1.48-1.81,3.54-3,6.2s-2.06,4-2.49,3.93l-1-.09c.33-3.52.67-7,1-10.56-1.08-.11-2.11,1.11-3.11,3.64s-2,5.22-3,8.05-2.08,5.52-3.18,8-2.4,3.72-3.89,3.58a3.14,3.14,0,0,1-2.15-1.12,3.62,3.62,0,0,0-2.49-1.16q-2.3,4-3.46,6.17c-.78,1.48-1.55,2.87-2.31,4.2a9.61,9.61,0,0,0-1.18,2.44c-.38,1.81-.11,4.7.83,8.64s2.11,8.14,3.52,12.58,2.89,8.6,4.45,12.45,2.81,6.29,3.79,7.3a19.91,19.91,0,0,0,6.32,3.85,13.52,13.52,0,0,1,6.18,5.23,13.24,13.24,0,0,0,1.41,3.38c1,2,1.57,2.93,1.78,3l1.57.16a5.8,5.8,0,0,0,3.75-1,6.66,6.66,0,0,1,4.39-1c1.46.15,3.4.43,5.8.83s4,1.42,4.92,3.06c.21,0,.33.89.37,2.59a19.62,19.62,0,0,0,.26,3.5l.63.07a7.59,7.59,0,0,0,4.38-.93,28.37,28.37,0,0,0,4.27-2.79c1.39-1.08,2.71-2,4-2.82a6.2,6.2,0,0,1,4.08-.95c-.06.62-.14,2.31-.24,5.08s-.17,4.47-.24,5.08a9.19,9.19,0,0,0,.54,2.38,9.45,9.45,0,0,1,.53,2.38c0,.15,0,.3,0,.45a10.54,10.54,0,0,1-1.81,4.91,9.59,9.59,0,0,1-2.85,2.93,3.36,3.36,0,0,0-3.62-.16c-1,.67-2.21.46-3.57-.61-.21,0-.26-.57-.14-1.64s.24-2.22.37-3.44.41-2.89.85-5a6.44,6.44,0,0,1,1.06-2.44c.63-1,1.06-1.51,1.27-1.49,0-.3.06-.61.1-.91,0-.46.09-.92.14-1.38q-4.87,5.5-9.73,11c-.21,0-.35.28-.41.89s-.11,1.07-.14,1.37a11.08,11.08,0,0,0,.38,5.38,18.47,18.47,0,0,0,3,4.26c-.42,0-.93.36-1.55,1.23s-1.13,1.27-1.55,1.22c0,.46-.09.92-.14,1.38l-.2,1.83c.42.05.69.47.82,1.25a6.62,6.62,0,0,0,.71,2.16l.69,2.39a20.92,20.92,0,0,1-.76,2.71,26.15,26.15,0,0,0-.76,2.7,47.6,47.6,0,0,1-7.49-6.35,11,11,0,0,1-2.77-5.16,9.63,9.63,0,0,1,.18-4.85q.7-2.24,1.66-5.39l-.94-.1q-4.48,3.72-8.18,4.5a31.2,31.2,0,0,1-9.31.24,9.49,9.49,0,0,1-5.28-2.37,37.8,37.8,0,0,1-4.6-4.61c-1.42-1.67-2.75-3.19-4-4.54a6,6,0,0,0-3.74-2.2,7.17,7.17,0,0,0-2.21,0,9.61,9.61,0,0,0-2.34,1.4l.09-.91c0-.31,0-.62.08-.92a19.58,19.58,0,0,0,1.43-3.58,22.79,22.79,0,0,0,1.16-4.06c.06-.61.12-1.22.17-1.83a7.44,7.44,0,0,0-4.34.76,7,7,0,0,1-4,.79l.45-5.05a22.89,22.89,0,0,1-4,.8,5.12,5.12,0,0,1-2.65-.46c-.82-.38-1.15-1.33-1-2.87l.12-1.38a16.46,16.46,0,0,0,1.32-2.43,14.8,14.8,0,0,1,1.68-2.86c.06-.61,0-.62-.31,0s-.39.74-.36.43c-.42,0-1.17-.63-2.22-1.81s-1.8-1.78-2.23-1.81-.91.77-1.47,2.42-.67,2.8-.3,3.44a32,32,0,0,1-.87-4.7,12.67,12.67,0,0,1,.14-3.46c.19-1.06.4-2.28.63-3.65s.44-3.28.65-5.73l-2.85-.24c-.28,3.37-.57,6.74-.85,10.11a15.64,15.64,0,0,1-4.42-8,52.52,52.52,0,0,1-1.4-10.07l-.31,0-.95-.08-.71.87a.89.89,0,0,1-.68.41l-.63-.06-.32,0c-.21,0-.71-.44-1.49-1.28a5.44,5.44,0,0,1-1.42-2.2c.11-1.22.18-2.91.25-5.07s.13-3.53.18-4.15q.18-2.29.7-8.73t1.56-13.29a88.27,88.27,0,0,1,2.59-12.06c1-3.45,2.22-5.44,3.56-5.95,2.16-.13,3.66.07,4.48.6s1.43-1.5,1.81-6.1a22.67,22.67,0,0,0-.4-3,19.77,19.77,0,0,1-.39-3,9.68,9.68,0,0,1,1.84-2.62l2.53-3,.65.06,1,.08a20.6,20.6,0,0,1,.94,2.39,15.13,15.13,0,0,0,1.21,2.88,4.67,4.67,0,0,1,.3-3.44c.55-1.34,1-2.31,1.22-2.91a10.31,10.31,0,0,1,2.23.66c1,.4,1.71.31,2-.29,1.45-1.73,2.67-4.47,3.65-8.25s2.22-6.52,3.67-8.24a22.87,22.87,0,0,1,2.91-5.06,10.73,10.73,0,0,0,2.27-5.13,23.18,23.18,0,0,0,.08-2.77,6.42,6.42,0,0,0-1.5-3.37q3.66-.6,6-.85c1.55-.16,2.61-2.08,3.16-5.73l8.18.76a24.74,24.74,0,0,1-.75,2.71,17.59,17.59,0,0,0-.79,3.16c0,.16,0,.31,0,.46,0,.31,0,.62-.08.92a7.47,7.47,0,0,0,2.56-2.77q1.17-2,2.37-4.17c.19.32.52.9,1,1.71a3.76,3.76,0,0,1,.61,2.14l1.64.16.65.06a2.71,2.71,0,0,1,1.11-1.28l1.4-.79a6.55,6.55,0,0,1-1.32-1.75,3.65,3.65,0,0,1-.66-1.69l.18-1.83a3.22,3.22,0,0,1,1.71-2.38c1.06-.67,2.05-1.27,3-1.8l-.63,6.43a17.9,17.9,0,0,1-1.17,5.21,16.48,16.48,0,0,0-1.12,4.76,2.87,2.87,0,0,0,3-1.8,19.82,19.82,0,0,0,1.59-4.48,23.08,23.08,0,0,1,1.62-4.7c.69-1.48,1.69-2.15,3-2q3-.63,3.93.39a9.27,9.27,0,0,1,1.55,2.7c.43,1.13.88,2.18,1.33,3.15s1.55,1.55,3.29,1.72l.32,0c.29-.59.56-1.18.85-1.77a5.59,5.59,0,0,1,.79-1.31l.7-.39.61.52.32,0c.47.82.94,1.64,1.4,2.46a17.41,17.41,0,0,1,1,2,12.64,12.64,0,0,0,.68,1.46l.6.53.65.07a.88.88,0,0,0,.7-.39,3.73,3.73,0,0,1,1.31-1.49,2.57,2.57,0,0,1,1.22-.57,1.9,1.9,0,0,0,.84-.14,2.22,2.22,0,0,1,.84-.14l.65.07-.77,7.34.55,1c.55,1,1,.88,1.35-.32l.38-.42.75-.85a5.82,5.82,0,0,0,.8-1.31l.65.07q1.62.18,2.59,3.53a24.64,24.64,0,0,0,1.5,4.34,8,8,0,0,0,2.24-3.94q.8-2.69,2.79-2.94a6.23,6.23,0,0,1,2.58-.88A12.3,12.3,0,0,0,1298,440q.43-.88,1-2a9.77,9.77,0,0,1,1-1.51l.33,0c1.52.17,2.15,1.48,1.87,3.92-.08.76-.17,1.53-.25,2.29l-1.46,1.23a15.52,15.52,0,0,0,.15,3c.18,1.41.33,2.44.48,3.07,0-.3.29-.58.76-.84s.71-.54.75-.84l.65.07.65.07a7.83,7.83,0,0,1,.62,3.32,18.35,18.35,0,0,0,.28,3.28c0,.31.17.48.6.53l.65.08q1.62.18,3.7-2.13a8,8,0,0,0,2.28-4.15c0-.3.06-1,.08-2.08a2.83,2.83,0,0,0-.58-2.15l.65.07q5.54.64,5.5,6.67a40.83,40.83,0,0,1-1.67,11.42q4-6,7.89-5.57l-.27,2.29a5.69,5.69,0,0,0-.81,1.29l-.87,1.76c-.21,1.83-.07,2.93.43,3.3a5.08,5.08,0,0,0,2.38.75,2.68,2.68,0,0,0,2.59-1.09,12.6,12.6,0,0,0,1.68-3.05c.47-1.17.87-2.21,1.2-3.1s.81-1.3,1.46-1.22c.86.1,1.51,1.19,1.91,3.25a37.28,37.28,0,0,1,.62,7c0,2.63-.09,5.18-.27,7.63s-.35,4.14-.46,5a29.58,29.58,0,0,1,7.24-.27c2.8.2,4.76,2.07,5.84,5.62a136.46,136.46,0,0,0,.14,19.54,92.43,92.43,0,0,1-.47,19c-.43,3.36-1.17,5.74-2.21,7.16a12.28,12.28,0,0,0-2,5.78c-.06.46-.12.92-.17,1.38-.08.61-.17,2.15-.27,4.61s-.2,4.16-.32,5.07l1,.12.63.08a4.13,4.13,0,0,1,1.76-1.17,3.11,3.11,0,0,0,1.38-.75l-.29,2.29a9.12,9.12,0,0,1-1.1,3.58,7.52,7.52,0,0,0-1,3.12l4.1.53a33.85,33.85,0,0,1-2.87,9.86,33.22,33.22,0,0,0-2.86,9.86c-.43,3.36-.34,5.53.27,6.54a5.7,5.7,0,0,0,2,2.11,9.12,9.12,0,0,1,2,1.66c.65.71.84,2.13.56,4.26-.35,2.74-1.15,4-2.38,3.64s-2,.45-2.19,2.28.57,4.57,2.42,8.22a21.7,21.7,0,0,1,1.81,12.79q-.84,6.4-2.93,9.15a18.07,18.07,0,0,1-4.49,4.3,45,45,0,0,0-4.33,3.16q-1.94,1.62-2.46,5.73a8.61,8.61,0,0,0,.11,2.81c.2,1,1,1.52,2.44,1.7a8.93,8.93,0,0,0-1.87,4.88l-.3,2.29c-.07.6-.2,1.9-.34,3.9s-.26,4-.3,6-.15,3.93-.28,5.78-.24,3.06-.32,3.68c-.24.27-.78.82-1.61,1.65s-1.36,1.37-1.6,1.65l-.18,1.38c-.06.45-.12.91-.17,1.37l.37,1.91c.09.94.33,1.43.74,1.48l-.18,1.38q-.93,7.3-2.64,18.26c-1.15,7.29-2.24,13.5-3.31,18.64q-.78,1.29-3.73,6.49a59.62,59.62,0,0,0-3.42,6.54,17.91,17.91,0,0,1-3.76,7,26,26,0,0,0-3.94,6c-1.27,2-2.44,2.56-3.54,1.66s-2.28-.36-3.54,1.65c-.2,0-.75,1.15-1.64,3.52a19.3,19.3,0,0,1-2,4.4,1,1,0,0,0-1,.35c-.67.53-1,.95-1.06,1.26a2,2,0,0,1-.83.6,3.16,3.16,0,0,0-1.17,1,17.19,17.19,0,0,1-1.66,1.19c-.88-1-1.37-2.8-1.48-5.28-.4-.05-1.07.56-2,1.85l-3,4c-1.07,1.42-2.12,2.68-3.15,3.8a7.85,7.85,0,0,1-2.5,2,41.19,41.19,0,0,1-3.94,1.63,36.16,36.16,0,0,0-3.94,1.63,6.65,6.65,0,0,0-.83,2,6.67,6.67,0,0,1-.83,2,8.11,8.11,0,0,1-2.6,1.8c-1.27.62-2.59,1.33-4,2.1a42,42,0,0,1-3.81,1.9,7.31,7.31,0,0,1-2,.7l-1.18-.13a5.37,5.37,0,0,1-.21-2.11,12.16,12.16,0,0,0-.17-2.57c-.86,2.38-1.75,3.67-2.67,3.89a8.74,8.74,0,0,1-2.85.15c-2.17-.23-4.91-.61-8.25-1.11a21.86,21.86,0,0,1-7.81-2.44,9.86,9.86,0,0,1-3.51-3.6q-1-2-2-4.14a10.13,10.13,0,0,0-2.91-3.77q-2-1.59-6.39-2Zm-28.29-243.82c-.86-.07-1.34.58-1.45,2s.25,2.11,1.1,2.18c.64,0,1-.61,1.13-2S1192.73,509.87,1192.09,509.82ZM1173.32,735a17.45,17.45,0,0,1,1.22-5.68,27.14,27.14,0,0,1,3.3-5.05q2.88,1.63,4.88-.51a24.42,24.42,0,0,0,3.63-5.24q1.64-3.1,3.23-5.74c1.07-1.75,2.4-2.56,4-2.42a1.63,1.63,0,0,0-.38.89l-.12,1.38a18.72,18.72,0,0,1-2.75,5.31c-1.26,1.74-2.58,3.48-3.94,5.22s-2.65,3.24-3.86,4.52-2.16,2.2-2.81,2.77c.2,0,.47.27.84.77a1.93,1.93,0,0,1,.5,1.2c0,.61-.1,1.22-.16,1.83a7.92,7.92,0,0,1-1.71,4.25,4,4,0,0,1-3.62,1.78,2.07,2.07,0,0,1-2.12-1.57A11.94,11.94,0,0,1,1173.32,735Zm21.24,1.84a27,27,0,0,0,.67,9.32,16.45,16.45,0,0,0,1.4-2.19,6.24,6.24,0,0,0,.76-1.78l.64-.41c.16-1.83-.22-3.11-1.16-3.81A5.05,5.05,0,0,0,1194.56,736.86Zm30.24-250.1a8.76,8.76,0,0,0,.31,3.74c.34.95.68,1.91,1,2.87.42,0,.79-.39,1.09-1.29a10.74,10.74,0,0,0,.54-2.26Q1228,487.06,1224.8,486.76Zm8.4-23.77c.26.65.53,1.29.8,1.93l.6.52a1.08,1.08,0,0,0,.67-.17,1.13,1.13,0,0,1,.67-.16,29,29,0,0,0,3.68-11.24q-1.95-.18-4,2.41a9.42,9.42,0,0,0-2.26,4.88C1233.31,461.77,1233.25,462.38,1233.2,463Zm-9.63,119.54c-.42,0-.68.55-.79,1.77s0,1.86.45,1.9c1,.1,1.62-.46,1.74-1.69S1224.61,582.63,1223.57,582.53Zm14.17-139.95q2.61.24,4.53,4.13a26.19,26.19,0,0,1,2.5,8.12,5.35,5.35,0,0,0,1.55-2.4,11.69,11.69,0,0,0,.94-2.92q-.57-1-2.58-5.58t-4-4.78c-.43,0-1,.37-1.76,1.22A4.43,4.43,0,0,0,1237.74,442.58ZM1213.83,753c1.19.11,1.93-.28,2.22-1.18s.57-1.8.86-2.69a10.11,10.11,0,0,1,1.31-2.66c.58-.87,1.67-1.22,3.27-1.07a6.22,6.22,0,0,0-.71-3.54c-.6-1.15-1.19-1.74-1.79-1.8a3.18,3.18,0,0,0-2.54,1.38,17.88,17.88,0,0,0-2.45,3.47c-.72,1.32-1.71,3.15-2.93,5.51A2.81,2.81,0,0,0,1213.83,753Zm38.44-304.4a2.79,2.79,0,0,0-2.41,1.16l2.27.22C1252.18,449.53,1252.22,449.07,1252.27,448.61Zm-29.88,302.92a7.85,7.85,0,0,0,1,5.19c.17-1.68.33-3.36.5-5.05Zm34-318.26c-.06.61-.16,1.6-.3,3a3.19,3.19,0,0,0,1.34,3.15l.36-3.68c.1-.91.26-2.06.51-3.42s-.17-2.1-1.26-2.21a2.42,2.42,0,0,0-.47,1.34Zm-9.32,151.09a2.66,2.66,0,0,0-3,1.55l2.81.28C1247,585.58,1247,585,1247.1,584.36Zm19.81-137.52c-1.74-.18-2.85,1-3.33,3.6s-.8,4.64-1,6.16a8.68,8.68,0,0,0,0,1.4,9.57,9.57,0,0,1,0,1.39,14.68,14.68,0,0,0,2.86-5.5A40,40,0,0,0,1266.91,446.84Zm-1.46,11c-.65-.07-1,.59-1.18,2s.11,2.1.76,2.17c.86.09,1.37-.56,1.51-1.93S1266.31,457.91,1265.45,457.82Zm-5.24,119.08q-1.56-.17-1.8,2.13t1.32,2.46c.63.06,1-.67,1.18-2.2S1260.84,577,1260.21,576.9Zm14-112.14q-3.86,2.37-4.42,7.88a4.21,4.21,0,0,0,3.58-1.48,6.45,6.45,0,0,0,1.89-4C1275.45,465.66,1275.09,464.85,1274.23,464.76Zm-.65-12.59a13.51,13.51,0,0,0,.34,4.67c.37,1.59,1.12,2.29,2.24,2.09a3.91,3.91,0,0,0,1.35-1.94,9,9,0,0,1,1-2l.24-2.29Zm-9.64,140.42c2.9,2.48,5.91,2.72,9.08.75a22.78,22.78,0,0,1,8.29-3.5,4.56,4.56,0,0,1,2.66,1.69c0,.31-.07.61-.1.92a7,7,0,0,1-3.43,5.18,16.19,16.19,0,0,0-4.55,4.14c-.07.62-.3,1.75-.69,3.4a10.59,10.59,0,0,1-1,2.92,5.92,5.92,0,0,1-3.65,1.69c-1.71.27-2.75.24-3.13-.11a47.45,47.45,0,0,1-2.07-8.57Q1264.32,595,1263.94,592.59Zm15-117.12c.17-1.53.33-3.06.49-4.59l-1.91,2.58Zm2.25-11.82.24-2.3-1-.1C1280.74,462.05,1281,462.85,1281.23,463.65Zm-32,290.63.89.09q.3-2.75.59-5.5l-.89-.09C1249.58,750.61,1249.39,752.44,1249.19,754.28ZM1285.66,453q-.56-1-.78,1.08c-.15,1.37,0,1.93.48,1.67a1.59,1.59,0,0,0,.8-1.3A1.61,1.61,0,0,0,1285.66,453Zm1.32,9c-.19-.33-.32,0-.42.88s0,1.39.17,1.41c.44.05.68-.16.73-.62A2.92,2.92,0,0,0,1287,462Zm7.51.36a3.05,3.05,0,0,0-3.33,1.95,13.8,13.8,0,0,0-1.32,4.5Q1293.73,469.18,1294.49,462.31Zm1.62,9a13.38,13.38,0,0,0-3.55,4,13.07,13.07,0,0,0-2.09,5.57,6.09,6.09,0,0,0,3.91-1.43,5.41,5.41,0,0,0,2.56-3.89C1297.18,473.44,1296.9,472,1296.11,471.3ZM1295,448.45a11.4,11.4,0,0,0,.27,3.51c.28,1.42,1,2.19,2,2.31l.65.08C1298,450.63,1297,448.66,1295,448.45Zm12.68,15.81c-.54.87-1,1.59-1.39,2.16a3.89,3.89,0,0,0-.7,1.78l1.62.19C1307.41,467,1307.56,465.64,1307.72,464.26ZM1304.38,482a18.72,18.72,0,0,0,1.92,4.63c1,1.82,2.12,2.8,3.41,2.95a35.58,35.58,0,0,0-.63-8.66q-1-5.91-2.46-7a30,30,0,0,0-1.18,3.12,21.87,21.87,0,0,0-.79,2.69c-.06.46-.11.92-.16,1.38C1304.45,481.37,1304.42,481.68,1304.38,482Zm12.31-10.18c-.15-.63-.28-.42-.41.65s-.06,1.47.19,1.18a1.35,1.35,0,0,0,.78-1.07A.6.6,0,0,0,1316.69,471.8Zm-2,17.41,1.28.15c.13-1.07.25-2.14.38-3.21L1315,486C1314.9,487.07,1314.77,488.14,1314.65,489.21Zm-2.93,60.49,1.27.15.21-1.84-1.26-.15C1311.86,548.47,1311.79,549.09,1311.72,549.7Zm-7.28,72c-.62-.08-1,.5-1.15,1.72s.09,1.87.72,1.94c.82.1,1.3-.46,1.45-1.68S1305.26,621.84,1304.44,621.75Zm13.72-115.41a3.05,3.05,0,0,0,.68,2.4,2.82,2.82,0,0,0,1.81,1.15c.26-2.14.51-4.28.77-6.41a3.27,3.27,0,0,0-2,.45A2.92,2.92,0,0,0,1318.16,506.34Zm5.23-19.35c-.64-.07-1,.42-1.16,1.49s.14,1.64.78,1.72c.42.05.7-.45.83-1.53S1323.82,487,1323.39,487ZM1299.6,721.5a9,9,0,0,0-3.7,1.64q-1.2,1-1.63,4.68c.6.07,1.32-.46,2.17-1.6a7.5,7.5,0,0,1,2.89-2.44c0-.3.07-.61.11-.91C1299.49,722.41,1299.55,722,1299.6,721.5Zm10.6-103.25c.08-.6-.15-.94-.66-1s-.82.21-.89.82.15.95.67,1S1310.13,618.87,1310.2,618.25Zm25.1-129.81,1.29.16c.11-.92.22-1.83.34-2.75C1336.39,486.71,1335.84,487.57,1335.3,488.44Zm-3.49,28.38,1.28.15-1-2C1332,515.6,1331.89,516.21,1331.81,516.82Zm9.68-23c-.64-.08-1.06.65-1.25,2.17s0,2.33.68,2.41c1.06.13,1.7-.56,1.89-2.09S1342.56,494,1341.49,493.85Zm-15,140.34c-.41-.05-.69.46-.82,1.53s0,1.63.42,1.68c.81.1,1.3-.38,1.43-1.45S1327.28,634.3,1326.46,634.19Zm.75-5.94,1.54.19c.08-.61.16-1.22.23-1.83Zm8.27-38c-.12.92-.22,2.53-.3,4.85s-.14,3.63-.18,3.93a3.19,3.19,0,0,0,.39,1.9,3.69,3.69,0,0,0,.82,1c.08-.61.16-1.22.23-1.83a4.7,4.7,0,0,1,.33-1.35,2.94,2.94,0,0,0,.28-.9,26.69,26.69,0,0,0,.14-4.86,6.65,6.65,0,0,0-1.54-4.15l-.06.46C1335.55,589.63,1335.52,589.94,1335.48,590.24Zm1.08,16.41a2.41,2.41,0,0,0,.14,1.41,14.5,14.5,0,0,0,.21,3.29,12.25,12.25,0,0,0,.58,2.86c.66-.22,1.66-.64,3-1.24a4.58,4.58,0,0,0,2.62-3.15,8.55,8.55,0,0,0-6.32-5C1336.72,605.43,1336.64,606,1336.56,606.65Zm-2.08,18.8,1.54.2c.18-1.38.36-2.75.53-4.12l-1.55-.2C1334.83,622.7,1334.65,624.08,1334.48,625.45Zm5.82-33.2a2.93,2.93,0,0,0,.45,1.46,5.82,5.82,0,0,1,.45,1.45,6.1,6.1,0,0,1,.8-1.29,2.88,2.88,0,0,0,.8-1.3,2.31,2.31,0,0,0-.42-1.68,1.88,1.88,0,0,1-.47-1.22c-.21,0-.44.1-.69.38l-.74.83-.37.42C1340.17,591.62,1340.24,591.94,1340.3,592.25Z"/><path class="cls-2" d="M1399.32,656.27a5.13,5.13,0,0,1,.33-1.12A5.83,5.83,0,0,0,1400,654a8.09,8.09,0,0,1,.92-2,8,8,0,0,0,.92-2l-.48-1-.48-1-.62-.09c-2,2.19-3.57,4-4.71,5.36s-2.74,3.33-4.77,5.83l-.62-.09-.61-.09-1.2-2.5-.62-.09-.61-.09-1.86,2.06-.62-.08a8.9,8.9,0,0,1-3.31-.94c-.57-.4-.82-.82-.76-1.28a7.5,7.5,0,0,1,.76-2,11.88,11.88,0,0,0,1-3.58c-2.26-.32-3.63-.21-4.13.34a2,2,0,0,0-.56,1.79,3.7,3.7,0,0,1-.11,1.84c-.18.6-1.1.78-2.73.55q-1.55-.22-3.37-2.8a7.26,7.26,0,0,1-1.45-5.33c1.43.2,3.39-.69,5.86-2.67s3.87-4,4.17-6.16a29.93,29.93,0,0,0-.44-9.15c-.64-3.65-.61-6.52.11-8.6,0-.3.51-.63,1.4-1a4.81,4.81,0,0,0,1.71-.92,10.53,10.53,0,0,0,1.61-3.5c.57-1.78,1.08-3.57,1.55-5.37a35,35,0,0,1,1.65-4.89c.63-1.46,1.36-2.13,2.2-2,.2,0,.39.21.55.54.21,0,.63.41,1.28,1.12s1.06,1.08,1.27,1.11a13.09,13.09,0,0,0,5.73-3.36,16,16,0,0,1,5.13-3.45,5.05,5.05,0,0,1,2,1.46,5,5,0,0,0,2,1.47,21.07,21.07,0,0,1,2.3.57,19.57,19.57,0,0,0,2.31.58l-1.71,11.4.94.14,1.24.19a3.75,3.75,0,0,0,1.53-.7,3.8,3.8,0,0,1,1.54-.71l.62.1a2.55,2.55,0,0,1,2.13,1.72,20.84,20.84,0,0,1,.91,3.4c.22,1.29.47,2.49.72,3.61a3.3,3.3,0,0,0,1.54,2.34q1.1-7.07,2.17-14.13a11.89,11.89,0,0,1,4.23,2.51,9.69,9.69,0,0,1,2.63,4.61l.76-.81c.25-.28.51-.55.76-.82l.62.1.94.14c.2,0,.62.41,1.25,1.13s1,1.1,1.26,1.13l.62.1.62.1q1.07-.76,4.18-3.31c2.07-1.69,3.37-2.8,3.88-3.35a26.76,26.76,0,0,0,4.62,0c2.25-.1,4.55-.2,6.91-.28s4.6-.11,6.73-.07a24.83,24.83,0,0,0,4.5-.19q2.33-.54,6.26-1.06t4.77-5.51a31.1,31.1,0,0,0-.18-10.32,45.21,45.21,0,0,0-3.18-10.82,33.27,33.27,0,0,0-5.35-8.6c-2.08-2.37-4.19-3.73-6.28-4.07a54.59,54.59,0,0,0-6.37-.56,7.34,7.34,0,0,0-6.25,2.73c-.52.54-1,1.88-1.28,4s-.35,3.52,0,4.2a20.4,20.4,0,0,1-1.58-4.22,12.26,12.26,0,0,1,.06-4.43c.29-1.82.74-3,1.36-3.52s1.13-2,1.52-4.43c.77-4.85-.08-9-2.55-12.54q-1.11,7-2.23,14.12l-1.55,1.62-.7.36q-2.52-.4-2.7-4.39t-.11-8.66a82.84,82.84,0,0,0-.27-8.67c-.23-2.68-1.19-4.16-2.88-4.42s-2.72.75-3.07,3-.91,3.83-1.68,4.64c-.27.27-1,.17-2.06-.31a3.16,3.16,0,0,0-2.38-.37l-1.54,1.64c-.52.54-1.34,1.35-2.47,2.42s-2.45,2.28-3.94,3.6-2.85,2.46-4.06,3.36a6.51,6.51,0,0,1-2.13,1.32l-.63-.1a7.57,7.57,0,0,1-1.3-2.06,9.87,9.87,0,0,1-.93-2.47c1.4-.72,2-1.17,1.82-1.36s-.2-.88,0-2.1a1,1,0,0,1-.6-.32,1.11,1.11,0,0,0-.6-.32,5.49,5.49,0,0,1-1.43,1l-1.75.91c.52-2.09.44-3.74-.24-4.93s-1.53-2.47-2.51-3.86a22.33,22.33,0,0,1-2.73-5.76c-.83-2.45-1.09-6.28-.77-11.52.13-.92.26-2.6.4-5.07s.36-5.15.67-8.06.6-5.66.86-8.26.46-4.36.6-5.27q2.71-7.53,6.25-14.94a31.66,31.66,0,0,1,9.13-11.72,7.53,7.53,0,0,0,2-2.05,7.2,7.2,0,0,0,.66-2.23,19.89,19.89,0,0,0,.15-3.24,13.1,13.1,0,0,1,.6-4.11,2.11,2.11,0,0,1,.66-1.07c.38-.41.71-.74,1-1a4,4,0,0,0,1.6-.7,4,4,0,0,1,1.6-.69,35.52,35.52,0,0,0,3.69-3.65c.94-1.1,1.87-2.12,2.79-3.08a16.14,16.14,0,0,1,2.85-2.37,12.39,12.39,0,0,1,4.22-1.46,10.16,10.16,0,0,1,2.51-.08,4.37,4.37,0,0,1,1.43.45,1.91,1.91,0,0,0,1.31.2,6.79,6.79,0,0,0,2.2-1.3,19.58,19.58,0,0,1,.65,3.37,4.68,4.68,0,0,0,1.36,3,50.06,50.06,0,0,1,1.43-4.91q1.27-4,3.06-4.66a7.11,7.11,0,0,0,.2,1.9c.19,1,.34,1.76.46,2.4l.65.1,1,.16a29.92,29.92,0,0,1,3.29-3.92,21,21,0,0,1,3.54-3.41,2.13,2.13,0,0,0,.85-.1,2,2,0,0,1,.86-.1l.58.56.65.1q-1.78.66-2.28,3.84c0,.31-.1.61-.14.91a1.57,1.57,0,0,0,.18,1,16.29,16.29,0,0,0,5.77-3.75,11.18,11.18,0,0,0,3.37-7.41l7.19,1.16c.11.65.27,1.45.44,2.41a8.59,8.59,0,0,0,.52,2l.58.56.73-.35a11.18,11.18,0,0,0,1.3-2.83,10.68,10.68,0,0,1,1.3-2.82l.65.11q1.63.25,2.37,6c.49,3.82,1.19,6.28,2.13,7.37a10.25,10.25,0,0,1,1.68-2.06,8.14,8.14,0,0,1,1.94-1.55l.72-.34c.2.18.39.37.58.56q1.66,4,2.85,4c.78,0,1.89,1,3.32,3.14a49.65,49.65,0,0,1,4.84,10.88,94.09,94.09,0,0,1,3.4,14.15,116.71,116.71,0,0,1,1.47,14.53,60.39,60.39,0,0,1-.68,12.52l-.64,3.63q-.17.92-1,3.81c-.56,1.94-1.08,3.95-1.54,6s-1,4-1.51,5.82-.87,3.13-1,4c-2.22,4-4.5,5.77-6.83,5.37-1.27-.22-1.82-.85-1.63-1.92a28.41,28.41,0,0,0,.18-4.88,86.84,86.84,0,0,1,0-9.36c.14-4.66.22-7.76.27-9.31-.22-1.29-1.84-2.73-4.87-4.34a12.83,12.83,0,0,1-6.28-7.83l-1.23-2.55-5.47-.9a13.16,13.16,0,0,0-5.81.22,12.49,12.49,0,0,1-5.5.27l-.64-.1a18.54,18.54,0,0,0-3.32-1.94,19,19,0,0,0-3.39-1.47c-.22,0-.7.2-1.44.7a15.44,15.44,0,0,1-1.82,1.12c-.22,0-.53.23-1,.78s-.74.82-.95.78l-.64-.1-.65-.1a10.86,10.86,0,0,1-2.75-1.37,11.23,11.23,0,0,0-2.75-1.36l-1.29-.2q-7.41-1.15-13.86,5.57a28.46,28.46,0,0,0-7.8,15.85l3.52.53q3.38,6.81,6.74,13.62a5.69,5.69,0,0,1,1-2.18,5.68,5.68,0,0,0,.91-1.73l.64.1a34.22,34.22,0,0,1,7.64,2.36,60.34,60.34,0,0,1,8.89,4.67,43.63,43.63,0,0,1,8,6.42,21.71,21.71,0,0,1,5,8.06c.59.41,1.62,1.05,3.11,1.91a54.33,54.33,0,0,1,4.69,3.12c1.64,1.2,3.2,2.32,4.65,3.34l3,2.15a36,36,0,0,1,3,2.61,49.59,49.59,0,0,1,4.12,4.45,29.81,29.81,0,0,1,3.47,5.27,8.59,8.59,0,0,1,1,5.55c-.36,2.13-1.14,3.48-2.32,4.05s-2,2.23-2.47,5c-.26,1.52-.53,3.11-.82,4.77a8.32,8.32,0,0,0,.75,5c.52-.53,1.38-1.47,2.58-2.83a12,12,0,0,1,2.51-2.37l.31.05c.21,0,.33,0,.36-.17s.14-.21.35-.17q1.88.32,1.29,4.67t-.92,6.16c-.37,2.12-.91,3.35-1.61,3.7s-1.19,1.27-1.45,2.79a3,3,0,0,0,.5,2.66,2.93,2.93,0,0,1,.5,2.66q-.07.47-2.24,5.46c-1.43,3.34-3.08,7-4.92,10.85s-3.65,7.56-5.4,11-2.87,5.28-3.34,5.51-1,.07-1.5-.49a3.33,3.33,0,0,1-1-1.8q-2.33,4.28-6.4,10.6a37.48,37.48,0,0,1-8.06,9.4c-.93-.77-1.36-2.56-1.32-5.36s.12-4.49.22-5.11l-.61-.1-.93-.15a31.93,31.93,0,0,0-3.68,3.13,8.62,8.62,0,0,0-1.67,4.4c-.25,1.52-.14,2.46.32,2.85s.59,1.19.39,2.4a1.62,1.62,0,0,1-.46.86,2.23,2.23,0,0,1-.65,1.07c-.38.4-.7.73-1,1a31.34,31.34,0,0,0-2.23-3.64,30.7,30.7,0,0,1-2.24-3.64l-1.69.66c-.29,1.82-.63,3.55-1,5.21s-1.48,2.33-3.32,2a3.48,3.48,0,0,1-2.19-1,3.84,3.84,0,0,1-.78-2,18.33,18.33,0,0,1,0-2.8,9.73,9.73,0,0,0-.52-3.59,3.52,3.52,0,0,0-2.31,3.6,5.07,5.07,0,0,1-1.76,4.15,20.81,20.81,0,0,1-2.32,1.74,19,19,0,0,0-2.32,1.73l-1.89,2q-7.33-1.17-14.68-2.29-.32-6.12-.51-8.94a46.68,46.68,0,0,1,.78-9.21,1.82,1.82,0,0,0-1.68.67l-1.51,1.64a2.69,2.69,0,0,1-1.55.93c-.54.07-1.07-.24-1.59-.94q-1.78,7.65-3.24,10c-1,1.56-3,3.36-6,5.4a17.68,17.68,0,0,1-.92-4.34c-.3-2.22-.51-3.65-.62-4.28a1.7,1.7,0,0,1-.17-1ZM1383.52,633c-.37-.36-.62-.09-.75.83s0,1.4.43,1.45C1384.31,634.82,1384.42,634.06,1383.52,633Zm6.8,1c-.37-.36-.62-.09-.75.82s0,1.4.42,1.46C1391.1,635.8,1391.22,635,1390.32,634Zm-1.52,10.49,3.37-3.7-2.77-.4Zm30.83-163.29c-.65-.09-1.06.48-1.24,1.69s.06,1.87.7,2,1.06-.47,1.24-1.69S1420.27,481.28,1419.63,481.18Zm7.56,9.05.27-1.83-1.61-.24C1426.29,488.85,1426.74,489.54,1427.19,490.23Zm4.21-28.29a18.18,18.18,0,0,0,0,3.27,10.43,10.43,0,0,0,.4,2.86c1.12-.14,1.85-1.28,2.17-3.41q.54-3.65-1-4.35C1432.1,460.18,1431.58,460.73,1431.4,461.94Zm3.66,13.14a19.13,19.13,0,0,0,.47,5.67,30.16,30.16,0,0,0,.83,4.32,4.3,4.3,0,0,0,1.43,2.55l.57.56.72-.36a41.56,41.56,0,0,0,4.07-2.88c.76-.66,1.3-2.05,1.63-4.18.28-1.83.22-2.92-.16-3.29a2.8,2.8,0,0,0-1.55-.71,9.22,9.22,0,0,0-2-.06,1.45,1.45,0,0,1-1.51-.93,12.65,12.65,0,0,1-.67-4.3,10.16,10.16,0,0,1,.29-4.16c-1,.49-1.85,1.67-2.69,3.56A19.5,19.5,0,0,0,1435.06,475.08Zm-3.51,42.85c-.63-.1-1.06.54-1.26,1.91s0,2.1.64,2.19c.85.13,1.38-.49,1.59-1.85S1432.4,518.06,1431.55,517.93Zm10.18-56.3c-.86-.13-1.4.49-1.61,1.86s.13,2.11,1,2.25c.65.09,1.08-.54,1.29-1.91S1442.39,461.73,1441.73,461.63Zm-17.49,169.48c-.37-.36-.61-.16-.72.59s0,1.17.44,1.24a1.38,1.38,0,0,0,.79-1.05Q1424.86,631.22,1424.24,631.11Zm25.12-154.31a28.75,28.75,0,0,0-.22,6.73c.18,2.36,1.25,3.69,3.18,4q1.28-8.19,2.56-16.4c-1.09-.17-2.21.36-3.4,1.57A7.44,7.44,0,0,0,1449.36,476.8Zm-17.28,140.59c-.62-.09-1,.54-1.25,1.91s0,2.1.61,2.2c.82.12,1.34-.49,1.56-1.86S1432.9,617.52,1432.08,617.39Zm-5.68,36.46c-.62-.1-1,.54-1.24,1.91s0,2.09.6,2.19c.81.13,1.33-.49,1.55-1.86S1427.21,654,1426.4,653.85Zm8-15.08,1.23.2c.31-2,.63-4,.94-5.93l-1.24-.19Zm40.82-189.17q-.43,2.73,1.2,3.93a7.69,7.69,0,0,0,3.27,1.46l.15-.91c.3-1.82-.18-3-1.44-3.5A15.32,15.32,0,0,0,1475.26,449.6Zm-13.85,108.48.66-4.1-1.56,1.62Zm22.17-89.85a6.78,6.78,0,0,0,.18,1.9c.18,1,.32,1.77.44,2.41l2-2,.15-.91.15-.91c-.11-.64-.26-1.44-.43-2.41a8.62,8.62,0,0,0-.52-1.95c-.86-.14-1.39.4-1.59,1.61l-.15.91C1483.73,467.32,1483.65,467.78,1483.58,468.23Zm-11.39,87.4c-.84-.14-1.38.47-1.6,1.84s.08,2.12.92,2.25c.64.11,1.06-.52,1.29-1.89S1472.82,555.73,1472.19,555.63Zm31.93-96.6c-.38-.37-.71.27-1,1.93s-.18,2.39.31,2.16.81-.87,1-1.94A2.46,2.46,0,0,0,1504.12,459Zm-7.9,140c-.37-.37-.63-.11-.78.8s0,1.4.39,1.47a1.38,1.38,0,0,0,.82-1A1.4,1.4,0,0,0,1496.22,599Z"/></svg>
